<svg width="43" height="36" viewBox="0 0 43 36" fill="none" xmlns="http://www.w3.org/2000/svg">
<path d="M42.1333 14.6152V15.8768C42.1333 16.922 41.3525 17.7692 40.3894 17.7692H39.8081L37.9107 32.1822C37.6652 34.0468 36.1937 35.4318 34.458 35.4318H7.95526C6.21958 35.4318 4.74803 34.0468 4.5025 32.1822L2.60515 17.7692H2.02386C1.06072 17.7692 0.279968 16.922 0.279968 15.8768V14.6152C0.279968 13.57 1.06072 12.7228 2.02386 12.7228H6.91699L14.6758 1.14586C15.4312 0.0189233 16.8853 -0.230324 17.9239 0.589329C18.9625 1.40898 19.1921 2.98702 18.4368 4.11403L12.6672 12.7228H29.7461L23.9765 4.11395C23.2212 2.98702 23.4509 1.4089 24.4894 0.58925C25.5278 -0.230403 26.9822 0.0187656 27.7375 1.14578L35.4963 12.7228H40.3894C41.3525 12.7228 42.1333 13.57 42.1333 14.6152ZM22.9505 28.4929V19.6616C22.9505 18.6165 22.1698 17.7692 21.2066 17.7692C20.2435 17.7692 19.4627 18.6165 19.4627 19.6616V28.4929C19.4627 29.5381 20.2435 30.3853 21.2066 30.3853C22.1698 30.3853 22.9505 29.5381 22.9505 28.4929ZM31.0887 28.4929V19.6616C31.0887 18.6165 30.3079 17.7692 29.3448 17.7692C28.3816 17.7692 27.6009 18.6165 27.6009 19.6616V28.4929C27.6009 29.5381 28.3816 30.3853 29.3448 30.3853C30.3079 30.3853 31.0887 29.5381 31.0887 28.4929ZM14.8124 28.4929V19.6616C14.8124 18.6165 14.0316 17.7692 13.0685 17.7692C12.1054 17.7692 11.3246 18.6165 11.3246 19.6616V28.4929C11.3246 29.5381 12.1054 30.3853 13.0685 30.3853C14.0316 30.3853 14.8124 29.5381 14.8124 28.4929Z" fill="#A0DCD8"/>
</svg>
