<svg width="43" height="36" viewBox="0 0 43 36" fill="none" xmlns="http://www.w3.org/2000/svg">
<path d="M38.6722 0.391357H3.79448C1.86893 0.391357 0.306702 2.08666 0.306702 4.17622V31.9318C0.306702 34.0214 1.86893 35.7167 3.79448 35.7167H38.6722C40.5978 35.7167 42.16 34.0214 42.16 31.9318V4.17622C42.16 2.08666 40.5978 0.391357 38.6722 0.391357ZM38.6722 31.9318H3.79448V4.17622H38.6722V31.9318ZM15.4204 18.054C17.9854 18.054 20.0708 15.791 20.0708 13.0076C20.0708 10.2241 17.9854 7.96107 15.4204 7.96107C12.8554 7.96107 10.77 10.2241 10.77 13.0076C10.77 15.791 12.8554 18.054 15.4204 18.054ZM8.90988 28.147H21.9309C22.8319 28.147 23.5585 27.4689 23.5585 26.633V25.1191C23.5585 22.6116 21.3714 20.5773 18.6757 20.5773C17.8909 20.5773 17.3169 21.2081 15.4204 21.2081C13.4658 21.2081 12.9935 20.5773 12.1651 20.5773C9.46938 20.5773 7.28225 22.6116 7.28225 25.1191V26.633C7.28225 27.4689 8.00887 28.147 8.90988 28.147ZM26.465 23.1005H34.6032C34.9229 23.1005 35.1845 22.8166 35.1845 22.4697V21.2081C35.1845 20.8611 34.9229 20.5773 34.6032 20.5773H26.465C26.1453 20.5773 25.8837 20.8611 25.8837 21.2081V22.4697C25.8837 22.8166 26.1453 23.1005 26.465 23.1005ZM26.465 18.054H34.6032C34.9229 18.054 35.1845 17.7702 35.1845 17.4232V16.1616C35.1845 15.8147 34.9229 15.5308 34.6032 15.5308H26.465C26.1453 15.5308 25.8837 15.8147 25.8837 16.1616V17.4232C25.8837 17.7702 26.1453 18.054 26.465 18.054ZM26.465 13.0076H34.6032C34.9229 13.0076 35.1845 12.7237 35.1845 12.3767V11.1151C35.1845 10.7682 34.9229 10.4843 34.6032 10.4843H26.465C26.1453 10.4843 25.8837 10.7682 25.8837 11.1151V12.3767C25.8837 12.7237 26.1453 13.0076 26.465 13.0076Z" fill="#A0DCD8"/>
</svg>
