<svg width="43" height="47" viewBox="0 0 43 47" fill="none" xmlns="http://www.w3.org/2000/svg">
<path d="M14.3852 20.9325C13.1916 20.6717 12.0797 21.7326 12.0797 23.0722V27.6034C12.0797 28.5205 12.6602 29.2577 13.445 29.5813C14.933 30.1927 16.004 31.775 16.004 33.6271C16.004 36.0096 14.2463 37.9425 12.0797 37.9425C9.91314 37.9425 8.15536 36.0096 8.15536 33.6271V11.3306C8.15536 10.1348 7.28056 9.17283 6.1932 9.17283H2.26887C1.1815 9.17283 0.306702 10.1348 0.306702 11.3306V33.6271C0.306702 41.6736 7.01894 48.0299 14.6142 46.2768C19.0617 45.2519 22.6509 41.296 23.5829 36.4142C25.0055 28.961 20.5579 22.281 14.3852 20.9325ZM17.3939 0.541913C16.6417 0.49696 16.004 1.15327 16.004 1.9804V4.82141C16.004 5.5856 16.5436 6.21494 17.2304 6.2509C27.8097 6.88024 36.3124 16.3203 36.9256 27.9631C36.9665 28.7183 37.5388 29.3116 38.2255 29.3116H40.8499C41.6021 29.3116 42.1989 28.6104 42.1581 27.7832C41.4631 13.1107 30.7366 1.3151 17.3939 0.541913ZM17.4184 9.17283C16.6581 9.10989 16.004 9.7752 16.004 10.6203V13.5063C16.004 14.2615 16.5354 14.8818 17.214 14.9358C23.493 15.5022 28.4965 21.0673 29.0606 27.99C29.126 28.7362 29.682 29.3116 30.3605 29.3116H32.9931C33.7534 29.3116 34.3666 28.5924 34.3094 27.7563C33.6226 17.8577 26.4199 9.93703 17.4184 9.17283Z" fill="#A0DCD8"/>
</svg>
