<svg width="24" height="24" viewBox="0 0 24 24" fill="none" xmlns="http://www.w3.org/2000/svg">
<path d="M0.857143 5.10196H23.1429C23.6163 5.10196 24 4.69119 24 4.18442V1.89056C24 1.38379 23.6163 0.973022 23.1429 0.973022H0.857143C0.383732 0.973022 0 1.38379 0 1.89056V4.18442C0 4.69119 0.383732 5.10196 0.857143 5.10196ZM0.857143 14.2774H23.1429C23.6163 14.2774 24 13.8666 24 13.3598V11.066C24 10.5592 23.6163 10.1484 23.1429 10.1484H0.857143C0.383732 10.1484 0 10.5592 0 11.066V13.3598C0 13.8666 0.383732 14.2774 0.857143 14.2774ZM0.857143 23.4528H23.1429C23.6163 23.4528 24 23.042 24 22.5352V20.2414C24 19.7346 23.6163 19.3238 23.1429 19.3238H0.857143C0.383732 19.3238 0 19.7346 0 20.2414V22.5352C0 23.042 0.383732 23.4528 0.857143 23.4528Z" fill="white"/>
</svg>
