<svg width="109" height="77" viewBox="0 0 109 77" fill="none" xmlns="http://www.w3.org/2000/svg">
    <g id="logoCodeCafe">
        <path id="Vector" d="M8.50779 76.2522H95.0752C103.15 76.2522 105.384 65.4186 101.152 65.4186H2.41388C-1.81801 65.4186 0.450285 76.2522 8.50779 76.2522Z" fill="#5A7C83"/>
        <path id="Subtract" fill-rule="evenodd" clip-rule="evenodd" d="M65.3336 60.0018H32.8327C23.8611 60.0018 16.5823 52.7229 16.5823 43.7513V4.47942C16.5823 2.22806 18.3935 0.416809 20.6449 0.416809H87.0009C98.9517 0.416809 108.668 10.1332 108.668 22.0841C108.668 34.0349 98.9517 43.7513 87.0009 43.7513H81.584C81.584 52.7229 74.3052 60.0018 65.3336 60.0018ZM97.8345 22.0841C97.8345 16.1086 92.9763 11.2504 87.0009 11.2504H81.584V32.9177H87.0009C92.9763 32.9177 97.8345 28.0595 97.8345 22.0841ZM49.0036 20.533C39.8285 22.9554 31.5583 25.1389 24.8768 18.9143V25.3849C24.8768 38.9875 35.9038 50.0145 49.5063 50.0145C63.1089 50.0145 74.1359 38.9875 74.1359 25.3849V18.9143C65.3812 16.2091 56.8606 18.4586 49.0036 20.533Z" fill="#5A7C83"/>
        <path id="Rectangle 3" d="M24.8768 18.9143C37.2799 30.4693 55.1578 13.05 74.1359 18.9143V25.3849C74.1359 38.9875 63.1089 50.0145 49.5063 50.0145V50.0145C35.9038 50.0145 24.8768 38.9875 24.8768 25.3849V18.9143Z" fill="#C4B6A9"/>
    </g>
</svg>
