<svg width="69" height="69" viewBox="0 0 69 69" fill="none" xmlns="http://www.w3.org/2000/svg">
<rect width="69" height="69" fill="#B82E12"/>
<rect x="52.9" y="43.7" width="3.45" height="37.95" transform="rotate(90 52.9 43.7)" fill="white"/>
<rect x="52.9" y="43.7" width="3.45" height="37.95" transform="rotate(90 52.9 43.7)" fill="white"/>
<rect x="52.9" y="43.7" width="3.45" height="37.95" transform="rotate(90 52.9 43.7)" fill="white"/>
<rect x="52.9" y="43.7" width="3.45" height="37.95" transform="rotate(90 52.9 43.7)" fill="white"/>
<rect x="52.9" y="32.2" width="3.45" height="37.95" transform="rotate(90 52.9 32.2)" fill="white"/>
<rect x="52.9" y="32.2" width="3.45" height="37.95" transform="rotate(90 52.9 32.2)" fill="white"/>
<rect x="52.9" y="32.2" width="3.45" height="37.95" transform="rotate(90 52.9 32.2)" fill="white"/>
<rect x="52.9" y="32.2" width="3.45" height="37.95" transform="rotate(90 52.9 32.2)" fill="white"/>
<rect x="52.9" y="20.7" width="3.45" height="37.95" transform="rotate(90 52.9 20.7)" fill="white"/>
<rect x="52.9" y="20.7" width="3.45" height="37.95" transform="rotate(90 52.9 20.7)" fill="white"/>
<rect x="52.9" y="20.7" width="3.45" height="37.95" transform="rotate(90 52.9 20.7)" fill="white"/>
<rect x="52.9" y="20.7" width="3.45" height="37.95" transform="rotate(90 52.9 20.7)" fill="white"/>
</svg>
