<svg width="29" height="30" viewBox="0 0 29 30" fill="none" xmlns="http://www.w3.org/2000/svg">
<g clip-path="url(#clip0)">
<path d="M18.9361 20L14.2021 15L9.46802 20" stroke="#0A9BB8" stroke-width="2" stroke-linecap="round" stroke-linejoin="round"/>
<path d="M14.2021 15V26.25" stroke="#0A9BB8" stroke-width="2" stroke-linecap="round" stroke-linejoin="round"/>
<path d="M24.1318 22.9875C25.2862 22.3228 26.198 21.2711 26.7236 19.9983C27.2491 18.7254 27.3583 17.304 27.034 15.9583C26.7098 14.6127 25.9704 13.4194 24.9327 12.5668C23.895 11.7142 22.618 11.2509 21.3032 11.25H19.812C19.4538 9.78653 18.7861 8.4279 17.8592 7.27622C16.9322 6.12454 15.7701 5.20979 14.4603 4.60074C13.1505 3.99169 11.7269 3.70418 10.2967 3.75983C8.86653 3.81549 7.46689 4.21286 6.20303 4.92206C4.93917 5.63127 3.84398 6.63386 2.9998 7.85446C2.15561 9.07506 1.5844 10.4819 1.3291 11.9692C1.07381 13.4565 1.14107 14.9856 1.52584 16.4416C1.91061 17.8975 2.60287 19.2423 3.55058 20.375" stroke="#0A9BB8" stroke-width="2" stroke-linecap="round" stroke-linejoin="round"/>
<path d="M18.9361 20L14.2021 15L9.46802 20" stroke="#0A9BB8" stroke-width="2" stroke-linecap="round" stroke-linejoin="round"/>
</g>
<defs>
<clipPath id="clip0">
<rect width="28.4043" height="30" fill="white"/>
</clipPath>
</defs>
</svg>
