<svg viewBox="0 0 30 31" fill="none" xmlns="http://www.w3.org/2000/svg">
<path
    fill-rule="evenodd"
    clip-rule="evenodd"
    d="M28.9763 0.323628C29.1973 0.542381 29.2952 0.839444 29.2684 1.1275C29.2605 1.2118 29.242 1.29532 29.2128 1.37589L19.6745 29.5592C19.5417 29.9515 19.1809 30.2213 18.767 30.2378C18.3532 30.2543 17.972 30.0139 17.8085 29.6334L12.5058 17.2947L0.582379 11.8144C0.213673 11.6449 -0.0160683 11.2694 0.000877463 10.864C0.0178232 10.4585 0.278096 10.1035 0.659658 9.96544L27.9117 0.101377C27.9876 0.0720499 28.0665 0.0523103 28.1463 0.0421888C28.2073 0.0344207 28.2685 0.0323414 28.3292 0.0357852C28.5604 0.0487629 28.7883 0.141692 28.9678 0.315325C28.9693 0.316789 28.9709 0.318257 28.9724 0.319732C28.9737 0.321027 28.975 0.322326 28.9763 0.323628ZM24.5505 3.44496L3.63402 11.0158L13.0464 15.342L24.5505 3.44496ZM14.4543 16.7633L25.8995 4.92706L18.6162 26.4474L14.4543 16.7633Z"
    fill="#0A9BB8"
  />
</svg>
