<svg width="29" height="30" viewBox="0 0 29 30" fill="none" xmlns="http://www.w3.org/2000/svg">
<g clip-path="url(#clip0)">
<path d="M14.2021 18.75C16.163 18.75 17.7527 17.0711 17.7527 15C17.7527 12.9289 16.163 11.25 14.2021 11.25C12.2412 11.25 10.6516 12.9289 10.6516 15C10.6516 17.0711 12.2412 18.75 14.2021 18.75Z" stroke="#0A9BB8" stroke-width="2" stroke-linecap="round" stroke-linejoin="round"/>
<path d="M22.9602 18.75C22.8026 19.127 22.7556 19.5452 22.8253 19.9507C22.8949 20.3562 23.0779 20.7304 23.3507 21.025L23.4218 21.1C23.6418 21.3322 23.8164 21.6079 23.9355 21.9114C24.0547 22.2149 24.116 22.5402 24.116 22.8688C24.116 23.1973 24.0547 23.5226 23.9355 23.8261C23.8164 24.1296 23.6418 24.4053 23.4218 24.6375C23.2019 24.8699 22.9409 25.0543 22.6535 25.1801C22.3662 25.306 22.0582 25.3707 21.7471 25.3707C21.436 25.3707 21.128 25.306 20.8407 25.1801C20.5533 25.0543 20.2923 24.8699 20.0724 24.6375L20.0014 24.5625C19.7225 24.2743 19.3682 24.081 18.9843 24.0075C18.6004 23.934 18.2044 23.9836 17.8474 24.15C17.4974 24.3085 17.1988 24.5716 16.9886 24.9069C16.7783 25.2423 16.6654 25.6353 16.6639 26.0375V26.25C16.6639 26.913 16.4145 27.5489 15.9706 28.0178C15.5267 28.4866 14.9247 28.75 14.2969 28.75C13.6691 28.75 13.0671 28.4866 12.6232 28.0178C12.1793 27.5489 11.9299 26.913 11.9299 26.25V26.1375C11.9207 25.7238 11.7939 25.3225 11.566 24.9859C11.338 24.6493 11.0194 24.3929 10.6517 24.25C10.2947 24.0836 9.89874 24.034 9.51481 24.1075C9.13089 24.181 8.77662 24.3743 8.49769 24.6625L8.42668 24.7375C8.20685 24.9699 7.94579 25.1543 7.65844 25.2801C7.37109 25.406 7.06307 25.4707 6.75201 25.4707C6.44095 25.4707 6.13293 25.406 5.84558 25.2801C5.55823 25.1543 5.29718 24.9699 5.07734 24.7375C4.85727 24.5053 4.68268 24.2296 4.56356 23.9261C4.44444 23.6226 4.38313 23.2973 4.38313 22.9688C4.38313 22.6402 4.44444 22.3149 4.56356 22.0114C4.68268 21.7079 4.85727 21.4322 5.07734 21.2L5.14835 21.125C5.4212 20.8304 5.60423 20.4562 5.67384 20.0507C5.74345 19.6452 5.69646 19.227 5.53891 18.85C5.38889 18.4803 5.13978 18.165 4.82226 17.9429C4.50473 17.7208 4.13265 17.6016 3.75181 17.6H3.55061C2.92284 17.6 2.32078 17.3366 1.87688 16.8678C1.43298 16.3989 1.18359 15.763 1.18359 15.1C1.18359 14.437 1.43298 13.8011 1.87688 13.3322C2.32078 12.8634 2.92284 12.6 3.55061 12.6H3.65713C4.04887 12.5903 4.42879 12.4564 4.7475 12.2156C5.06621 11.9749 5.30897 11.6384 5.44423 11.25C5.60177 10.873 5.64877 10.4548 5.57916 10.0493C5.50954 9.64377 5.32652 9.2696 5.05367 8.975L4.98266 8.9C4.76259 8.66782 4.588 8.3921 4.46888 8.0886C4.34976 7.78511 4.28845 7.45979 4.28845 7.13125C4.28845 6.80271 4.34976 6.47739 4.46888 6.1739C4.588 5.8704 4.76259 5.59468 4.98266 5.3625C5.2025 5.13006 5.46355 4.94566 5.7509 4.81985C6.03825 4.69404 6.34627 4.62928 6.65733 4.62928C6.96839 4.62928 7.27641 4.69404 7.56376 4.81985C7.85111 4.94566 8.11216 5.13006 8.332 5.3625L8.40301 5.4375C8.68194 5.72567 9.03621 5.91898 9.42013 5.99251C9.80406 6.06603 10.2 6.01639 10.557 5.85H10.6517C11.0017 5.69155 11.3003 5.42844 11.5105 5.09308C11.7208 4.75772 11.8337 4.36473 11.8352 3.9625V3.75C11.8352 3.08696 12.0846 2.45107 12.5285 1.98223C12.9724 1.51339 13.5744 1.25 14.2022 1.25C14.83 1.25 15.432 1.51339 15.8759 1.98223C16.3198 2.45107 16.5692 3.08696 16.5692 3.75V3.8625C16.5707 4.26473 16.6836 4.65772 16.8939 4.99308C17.1042 5.32844 17.4027 5.59155 17.7527 5.75C18.1097 5.91639 18.5057 5.96603 18.8896 5.89251C19.2735 5.81898 19.6278 5.62567 19.9067 5.3375L19.9777 5.2625C20.1976 5.03006 20.4586 4.84566 20.746 4.71985C21.0333 4.59404 21.3413 4.52928 21.6524 4.52928C21.9635 4.52928 22.2715 4.59404 22.5588 4.71985C22.8462 4.84566 23.1072 5.03006 23.3271 5.2625C23.5472 5.49468 23.7217 5.7704 23.8409 6.0739C23.96 6.37739 24.0213 6.70271 24.0213 7.03125C24.0213 7.35979 23.96 7.68511 23.8409 7.9886C23.7217 8.2921 23.5472 8.56782 23.3271 8.8L23.2561 8.875C22.9832 9.1696 22.8002 9.54377 22.7306 9.94926C22.661 10.3548 22.708 10.773 22.8655 11.15V11.25C23.0155 11.6197 23.2646 11.935 23.5822 12.1571C23.8997 12.3792 24.2718 12.4984 24.6526 12.5H24.8538C25.4816 12.5 26.0836 12.7634 26.5275 13.2322C26.9714 13.7011 27.2208 14.337 27.2208 15C27.2208 15.663 26.9714 16.2989 26.5275 16.7678C26.0836 17.2366 25.4816 17.5 24.8538 17.5H24.7473C24.3665 17.5016 23.9944 17.6208 23.6768 17.8429C23.3593 18.065 23.1102 18.3803 22.9602 18.75V18.75Z" stroke="#0A9BB8" stroke-width="2" stroke-linecap="round" stroke-linejoin="round"/>
</g>
<defs>
<clipPath id="clip0">
<rect width="28.4043" height="30" fill="white"/>
</clipPath>
</defs>
</svg>
