<svg viewBox="0 0 32 33" fill="none" xmlns="http://www.w3.org/2000/svg">
<path
    d="M19.5465 6.92504C20.9466 7.20732 22.2334 7.91491 23.2421 8.95724C24.2508 9.99957 24.9356 11.3292 25.2087 12.776L19.5465 6.92504ZM19.5465 1C22.4554 1.33393 25.168 2.68001 27.2389 4.81722C29.3098 6.95443 30.6158 9.75575 30.9427 12.7612L19.5465 1ZM29.5092 24.5817V29.0255C29.5108 29.438 29.429 29.8463 29.2691 30.2243C29.1092 30.6023 28.8746 30.9416 28.5804 31.2205C28.2862 31.4994 27.9389 31.7117 27.5607 31.8439C27.1825 31.976 26.7818 32.0251 26.3842 31.988C21.9731 31.4927 17.736 29.9352 14.0133 27.4405C10.5498 25.1663 7.61328 22.1319 5.41241 18.5529C2.9898 14.6886 1.48216 10.289 1.01164 5.71041C0.975813 5.30079 1.02292 4.88795 1.14997 4.49818C1.27701 4.10841 1.4812 3.75024 1.74954 3.44648C2.01788 3.14272 2.34449 2.90003 2.70857 2.73385C3.07266 2.56767 3.46624 2.48165 3.86426 2.48126H8.16469C8.86037 2.47419 9.5348 2.72875 10.0623 3.1975C10.5898 3.66625 10.9343 4.3172 11.0316 5.02903C11.2132 6.45114 11.5498 7.84746 12.0351 9.19137C12.2279 9.72155 12.2697 10.2977 12.1554 10.8517C12.041 11.4056 11.7754 11.9141 11.39 12.3168L9.5695 14.198C11.6101 17.9064 14.5816 20.9769 18.1704 23.0856L19.9909 21.2044C20.3806 20.8061 20.8727 20.5317 21.4088 20.4135C21.9448 20.2954 22.5024 20.3385 23.0155 20.5378C24.3161 21.0393 25.6674 21.3872 27.0436 21.5747C27.7399 21.6762 28.3759 22.0387 28.8305 22.5931C29.2851 23.1475 29.5266 23.8552 29.5092 24.5817Z"
    stroke="#0A9BB8"
    stroke-width="2"
    stroke-linecap="round"
    stroke-linejoin="round"
  />
</svg>
