<svg width="39" height="33" viewBox="0 0 39 33" fill="none" xmlns="http://www.w3.org/2000/svg">
<path d="M37.7818 1.01737C36.1807 2.18435 34.408 3.07689 32.532 3.66064C31.5251 2.46428 30.1869 1.61633 28.6984 1.23147C27.2099 0.846614 25.6429 0.943422 24.2094 1.5088C22.7759 2.07418 21.545 3.08085 20.6832 4.39267C19.8214 5.70448 19.3703 7.25814 19.3909 8.84353V10.5712C16.4527 10.6499 13.5414 9.97653 10.916 8.61107C8.29072 7.24561 6.03294 5.23043 4.3438 2.745C4.3438 2.745 -2.3438 18.2936 12.7033 25.2042C9.26006 27.6193 5.15827 28.8303 1 28.6594C16.0471 37.2976 34.438 28.6594 34.438 8.7917C34.4364 8.31047 34.3916 7.83044 34.3042 7.35777C36.0105 5.6189 37.2147 3.42346 37.7818 1.01737V1.01737Z" stroke="#0A9BB8" stroke-width="2" stroke-linecap="round" stroke-linejoin="round"/>
</svg>
