<svg width="300" height="165" viewBox="0 0 300 165" fill="none" xmlns="http://www.w3.org/2000/svg">
<path d="M78.7737 1.34374L81.1174 0L83.5425 4.17124L81.1988 5.51497L78.7737 1.34374Z" fill="#043F4A"/>
<path d="M83.6239 9.68621L90.134 5.95368L92.5591 10.1249L86.049 13.8574L83.6239 9.68621Z" fill="#043F4A"/>
<path d="M99.1506 11.9074L88.4741 18.0287L90.8992 22.1999L101.576 16.0786L99.1506 11.9074Z" fill="#043F4A"/>
<path d="M93.3243 26.3712L99.8344 22.6386L102.259 26.8099L95.7494 30.5424L93.3243 26.3712Z" fill="#043F4A"/>
<path d="M113.017 26.2035L98.1744 34.7136L100.6 38.8849L115.442 30.3748L113.017 26.2035Z" fill="#043F4A"/>
<path d="M103.025 43.0561L122.034 32.1572L124.459 36.3284L105.45 47.2273L103.025 43.0561Z" fill="#043F4A"/>
<path d="M135.217 35.7221L107.875 51.3986L110.3 55.5698L137.642 39.8933L135.217 35.7221Z" fill="#043F4A"/>
<path d="M112.725 59.741L131.734 48.8422L134.159 53.0134L115.15 63.9123L112.725 59.741Z" fill="#043F4A"/>
<path d="M128.252 61.9622L117.575 68.0835L120 72.2548L130.677 66.1335L128.252 61.9622Z" fill="#043F4A"/>
<path d="M122.425 76.426L137.268 67.9159L139.693 72.0871L124.85 80.5972L122.425 76.426Z" fill="#043F4A"/>
<path d="M133.786 81.0359L127.276 84.7685L129.701 88.9397L136.211 85.2072L133.786 81.0359Z" fill="#043F4A"/>
<path d="M132.126 93.1109L134.469 91.7672L136.895 95.9385L134.551 97.2822L132.126 93.1109Z" fill="#043F4A"/>
<path d="M218.94 4.50601e-05L221.284 1.34374L218.858 5.51497L216.515 4.17128L218.94 4.50601e-05Z" fill="#043F4A"/>
<path d="M216.433 9.68621L209.923 5.95373L207.498 10.125L214.008 13.8574L216.433 9.68621Z" fill="#043F4A"/>
<path d="M200.907 11.9074L211.583 18.0287L209.158 22.1999L198.482 16.0786L200.907 11.9074Z" fill="#043F4A"/>
<path d="M206.733 26.3712L200.223 22.6387L197.798 26.8099L204.308 30.5424L206.733 26.3712Z" fill="#043F4A"/>
<path d="M187.04 26.2036L201.883 34.7136L199.458 38.8849L184.615 30.3748L187.04 26.2036Z" fill="#043F4A"/>
<path d="M197.033 43.0561L178.023 32.1572L175.598 36.3285L194.608 47.2273L197.033 43.0561Z" fill="#043F4A"/>
<path d="M164.84 35.7221L192.182 51.3986L189.757 55.5698L162.415 39.8934L164.84 35.7221Z" fill="#043F4A"/>
<path d="M187.332 59.741L168.323 48.8422L165.898 53.0134L184.907 63.9123L187.332 59.741Z" fill="#043F4A"/>
<path d="M171.806 61.9622L182.482 68.0835L180.057 72.2548L169.381 66.1335L171.806 61.9622Z" fill="#043F4A"/>
<path d="M177.632 76.426L162.789 67.9159L160.364 72.0872L175.207 80.5972L177.632 76.426Z" fill="#043F4A"/>
<path d="M166.272 81.036L172.782 84.7685L170.357 88.9397L163.847 85.2072L166.272 81.036Z" fill="#043F4A"/>
<path d="M167.932 93.1109L165.588 91.7673L163.163 95.9385L165.506 97.2822L167.932 93.1109Z" fill="#043F4A"/>
<path d="M180.62 135.205H172.523V164.019H167.706V135.205H162.017V132.97L167.706 131.183V129.365C167.706 121.339 171.12 117.327 177.95 117.327C179.633 117.327 181.607 117.674 183.871 118.37L182.623 122.333C180.765 121.717 179.179 121.409 177.863 121.409C176.044 121.409 174.7 122.035 173.829 123.286C172.958 124.518 172.523 126.504 172.523 129.246V131.361H180.62V135.205Z" fill="#043F4A"/>
<path d="M11.9279 147.363C12.3242 148.973 12.6747 150.519 12.9794 151.999L10.6379 161.505L0 120.455H5.22389L11.9279 147.363Z" fill="#043F4A"/>
<path d="M13.6805 164.019L24.0481 120.455H29.1087L37.0896 147.184C37.3686 148.109 37.6345 149.07 37.8873 150.066L35.7077 158.915L28.6443 134.848C28.238 133.556 27.7834 131.928 27.2803 129.961C26.7773 127.994 26.5161 126.812 26.4967 126.415C26.0711 129.037 25.3939 131.908 24.4652 135.026L16.165 164.019H13.6805Z" fill="#043F4A"/>
<path d="M48.4799 120.455L38.1124 164.019H42.0813L53.4288 120.455H48.4799Z" fill="#043F4A"/>
<path fill-rule="evenodd" clip-rule="evenodd" d="M80.6267 159.371L81.5844 164.019H85.1541V141.731C85.1541 137.917 84.2351 135.146 82.397 133.417C80.5783 131.689 77.7729 130.825 73.9808 130.825C72.104 130.825 70.2273 131.073 68.3506 131.57C66.4932 132.067 64.7809 132.752 63.2137 133.626L64.6938 137.41C68.041 135.742 71.0399 134.907 73.6905 134.907C76.051 134.907 77.7632 135.523 78.8274 136.755C79.9108 137.966 80.4526 139.854 80.4526 142.416V144.442L75.0546 144.621C64.7809 144.939 59.6441 148.396 59.6441 154.991C59.6441 158.07 60.5341 160.444 62.3141 162.112C64.1134 163.781 66.5899 164.615 69.7436 164.615C72.104 164.615 74.0678 164.258 75.635 163.543C77.2215 162.808 78.808 161.417 80.3945 159.371H80.6267ZM77.7536 158C76.051 159.689 73.7002 160.533 70.7013 160.533C68.8052 160.533 67.3251 160.066 66.261 159.133C65.2162 158.199 64.6938 156.838 64.6938 155.05C64.6938 152.766 65.5355 151.087 67.2187 150.015C68.9213 148.922 71.688 148.306 75.5189 148.167L80.3365 147.959V150.909C80.3365 153.948 79.4755 156.312 77.7536 158Z" fill="#043F4A"/>
<path d="M103.613 160.947L105.786 153.996C105.466 153.019 105.1 151.93 104.69 150.73L97.8412 131.361H92.6753L103.613 160.947Z" fill="#043F4A"/>
<path d="M107.998 158.182L109.033 154.871C109.222 154.3 109.428 153.685 109.653 153.024C110.794 149.707 113.339 142.486 117.286 131.361H122.452L110.379 164.019H106.173L107.57 159.55H107.65C107.719 159.211 107.835 158.755 107.998 158.182Z" fill="#043F4A"/>
<path fill-rule="evenodd" clip-rule="evenodd" d="M132.527 160.205C135.255 163.145 138.969 164.615 143.671 164.615C145.819 164.615 147.647 164.447 149.156 164.109C150.685 163.791 152.3 163.255 154.003 162.5V158.09C150.656 159.56 147.27 160.295 143.845 160.295C140.595 160.295 138.07 159.301 136.27 157.315C134.49 155.328 133.552 152.418 133.455 148.584H155.367V145.456C155.367 141.046 154.206 137.5 151.884 134.818C149.562 132.116 146.409 130.765 142.423 130.765C138.167 130.765 134.771 132.315 132.236 135.414C129.721 138.513 128.464 142.694 128.464 147.959C128.464 153.183 129.818 157.265 132.527 160.205ZM136.241 137.47C137.77 135.761 139.811 134.907 142.365 134.907C144.88 134.907 146.815 135.742 148.169 137.41C149.524 139.059 150.201 141.443 150.201 144.562H133.571C133.842 141.542 134.732 139.178 136.241 137.47Z" fill="#043F4A"/>
<path d="M216.554 147.661C216.554 152.984 215.248 157.146 212.636 160.146C210.024 163.126 206.415 164.615 201.811 164.615C201.071 164.615 200.354 164.569 199.658 164.477L200.752 160.42C201.131 160.456 201.523 160.474 201.927 160.474C205.08 160.474 207.47 159.391 209.095 157.226C210.74 155.04 211.562 151.852 211.562 147.661C211.562 143.509 210.74 140.36 209.095 138.215C208.558 137.499 207.935 136.902 207.227 136.423L208.398 132.085C209.997 132.84 211.4 133.92 212.607 135.324C215.238 138.364 216.554 142.476 216.554 147.661Z" fill="#043F4A"/>
<path d="M205.38 131.09C204.323 130.874 203.201 130.765 202.014 130.765C197.409 130.765 193.81 132.255 191.218 135.235C188.625 138.195 187.329 142.337 187.329 147.661C187.329 151.097 187.929 154.097 189.128 156.659C190.328 159.222 192.03 161.189 194.236 162.559C194.98 163.022 195.761 163.406 196.577 163.713L197.683 159.614C196.526 159.068 195.551 158.262 194.758 157.196C193.133 155.011 192.32 151.832 192.32 147.661C192.32 143.449 193.123 140.281 194.729 138.155C196.335 136.03 198.715 134.967 201.869 134.967C202.726 134.967 203.526 135.045 204.27 135.201L205.38 131.09Z" fill="#043F4A"/>
<path d="M242.213 130.765C243.626 130.765 244.893 130.885 246.015 131.123L245.348 135.712C244.032 135.414 242.871 135.265 241.865 135.265C239.292 135.265 237.086 136.338 235.248 138.483C233.429 140.628 232.52 143.3 232.52 146.498V164.019H227.702V131.361H231.678L232.23 137.41H232.462C233.642 135.285 235.064 133.646 236.728 132.494C238.392 131.342 240.22 130.765 242.213 130.765Z" fill="#043F4A"/>
<path d="M295.182 164.019V142.774C295.182 140.171 294.641 138.225 293.557 136.934C292.474 135.622 290.79 134.967 288.507 134.967C285.509 134.967 283.293 135.851 281.861 137.619C280.43 139.387 279.714 142.108 279.714 145.783V164.019H274.896V142.774C274.896 140.171 274.355 138.225 273.271 136.934C272.188 135.622 270.495 134.967 268.192 134.967C265.174 134.967 262.959 135.901 261.546 137.768C260.153 139.615 259.457 142.655 259.457 146.886V164.019H254.639V131.361H258.557L259.341 135.831H259.573C260.482 134.242 261.759 133 263.404 132.106C265.068 131.212 266.925 130.765 268.976 130.765C273.948 130.765 277.199 132.613 278.727 136.308H278.959C279.907 134.599 281.281 133.249 283.08 132.255C284.88 131.262 286.931 130.765 289.233 130.765C292.832 130.765 295.521 131.719 297.301 133.626C299.1 135.513 300 138.543 300 142.714V164.019H295.182Z" fill="#043F4A"/>
</svg>
