<svg width="42" height="42" viewBox="0 0 42 42" fill="none" xmlns="http://www.w3.org/2000/svg">
<rect x="0.5" y="0.5" width="41" height="41" fill="#D9D9D9" stroke="#666666"/>
<path fill-rule="evenodd" clip-rule="evenodd" d="M25.1925 25.87C23.5796 27.3238 21.4444 28.2083 19.1042 28.2083C14.0796 28.2083 10 24.1287 10 19.1042C10 14.0796 14.0796 10 19.1042 10C24.1287 10 28.2083 14.0796 28.2083 19.1042C28.2083 21.4444 27.3238 23.5796 25.87 25.1925L33 32.3225L32.3225 33L25.1925 25.87ZM19.1042 10.9583C23.5997 10.9583 27.25 14.6086 27.25 19.1042C27.25 23.5997 23.5997 27.25 19.1042 27.25C14.6086 27.25 10.9583 23.5997 10.9583 19.1042C10.9583 14.6086 14.6086 10.9583 19.1042 10.9583Z" fill="#666666"/>
</svg>
