<svg width="319" height="248" viewBox="0 0 319 248" fill="none" xmlns="http://www.w3.org/2000/svg">
<path fill-rule="evenodd" clip-rule="evenodd" d="M159.5 319C247.589 319 319 247.589 319 159.5C319 71.4106 247.589 0 159.5 0C71.4109 0 0 71.4106 0 159.5C0 247.589 71.4109 319 159.5 319ZM159.5 309.333C242.251 309.333 309.333 242.251 309.333 159.5C309.333 76.7493 242.251 9.66667 159.5 9.66667C76.7492 9.66667 9.66667 76.7493 9.66667 159.5C9.66667 242.251 76.7492 309.333 159.5 309.333Z" fill="white" fill-opacity="0.05"/>
<path d="M30.2661 162.947C32.0935 96.7683 89.254 43.6525 159.5 43.6525C229.746 43.6525 286.906 96.7684 288.734 162.947C288.764 161.802 288.779 160.653 288.779 159.5C288.779 88.101 230.899 30.2209 159.5 30.2209C88.1013 30.2209 30.221 88.101 30.221 159.5C30.221 160.653 30.2361 161.802 30.2661 162.947Z" fill="white" fill-opacity="0.05"/>
<path fill-rule="evenodd" clip-rule="evenodd" d="M174.305 287.984C238.731 281.02 288.779 229.159 288.779 166.216C288.779 98.5259 230.899 43.6525 159.5 43.6525C88.1013 43.6525 30.221 98.5259 30.221 166.216C30.221 232.404 85.5615 286.338 154.769 288.698L154.759 201.121C150.363 197.955 133.639 185.906 124.359 178.695C106.884 165.102 94.087 164.967 81.2318 166.985C94.7904 170.354 107.528 176.967 116.252 184.516L116.163 184.551C114.042 185.4 93.6948 193.545 77.2168 185.868C59.6534 177.691 57.0842 152.88 57.0842 152.88C57.0842 152.88 79.0728 140.243 106.913 155.622C118.108 161.81 142.763 179.96 154.759 188.947V158.074L154.637 157.976C150.784 154.879 134.347 141.664 126.684 135.638C115.597 126.921 108.603 124.227 99.8309 125.405C108.574 129.701 117.932 135.58 123.832 142.029L123.726 142.059C121.925 142.566 107.39 146.658 95.7283 139.49C83.205 131.796 83.4784 112.845 83.4784 112.845C83.4784 112.845 104.207 106.184 119.534 117.885C125.082 122.123 144.336 137.395 154.759 145.688V115.713C151.721 112.614 143.144 103.915 139.442 100.517C134.88 96.3177 129.048 93.6726 124.232 93.9429C130.757 97.1577 135.622 103.578 139.09 108.404C138.172 108.656 129.624 110.924 120.706 105.441C111.358 99.6966 111.563 85.5536 111.563 85.5536C111.563 85.5536 126.821 80.4177 138.357 88.8263C145.049 93.7015 161.684 110.635 161.684 110.635L161.626 110.702L164.527 113.367L167.438 110.683L167.389 110.635C167.389 110.635 184.025 93.7015 190.716 88.8263C202.253 80.4177 217.511 85.5536 217.511 85.5536C217.511 85.5536 217.716 99.6966 208.368 105.441C199.449 110.924 190.902 108.656 189.983 108.404C193.452 103.578 198.316 97.1577 204.841 93.9429C200.025 93.6726 194.194 96.3177 189.632 100.517C185.92 103.925 177.324 112.652 174.295 115.732V145.659C184.728 137.357 203.942 122.113 209.491 117.885C224.808 106.184 245.546 112.845 245.546 112.845C245.546 112.845 245.82 131.796 233.297 139.49C221.625 146.658 207.091 142.566 205.289 142.059L205.183 142.029C211.093 135.58 220.451 129.701 229.184 125.405C220.412 124.227 213.418 126.921 202.331 135.638C195.023 141.396 179.695 153.708 174.971 157.502L174.295 158.045V188.947C186.301 179.979 210.956 161.81 222.161 155.622C250.001 140.243 271.989 152.88 271.989 152.88C271.989 152.88 269.42 177.691 251.857 185.868C235.379 193.545 215.031 185.4 212.91 184.551L212.822 184.516C221.545 176.967 234.283 170.354 247.842 166.985C234.987 164.967 222.19 165.102 204.714 178.695C195.434 185.906 178.682 197.974 174.295 201.121L174.305 287.984ZM230.718 202.453C215.469 195.155 199.518 199.963 195.717 201.295C205.545 208.13 214.688 216.471 222.962 226.723C211.914 220.091 200.328 216.085 188.831 214.125C189.319 215.708 194.985 233.143 211.757 241.166C229.341 249.574 250.616 235.866 250.616 235.866C250.616 235.866 248.184 210.814 230.718 202.453ZM98.3557 202.453C113.604 195.155 129.556 199.963 133.356 201.295C123.529 208.13 114.386 216.471 106.112 226.723C117.16 220.091 128.745 216.085 140.243 214.125C139.754 215.708 134.089 233.143 117.316 241.166C99.733 249.574 78.4576 235.866 78.4576 235.866C78.4576 235.866 80.8899 210.814 98.3557 202.453ZM177.558 76.3534C177.607 86.3935 170.857 93.6726 169.147 95.362C167.946 88.3436 165.748 81.3059 162.28 74.2199C163.042 81.8465 162.241 89.0677 160.346 95.7192C159.604 95.0531 151.535 87.5133 151.477 76.4789C151.418 64.9135 164.429 57.0841 164.429 57.0841C164.429 57.0841 177.509 64.8652 177.558 76.3534Z" fill="white" fill-opacity="0.05"/>
</svg>
