<svg width="245" height="127" viewBox="0 0 245 127" fill="none" xmlns="http://www.w3.org/2000/svg">
<path fill-rule="evenodd" clip-rule="evenodd" d="M121.936 78.8579C143.712 78.8579 161.365 61.205 161.365 39.429C161.365 17.6529 143.712 0 121.936 0C100.16 0 82.5071 17.6529 82.5071 39.429C82.5071 61.205 100.16 78.8579 121.936 78.8579ZM121.936 76.4683C142.392 76.4683 158.975 59.8852 158.975 39.429C158.975 18.9727 142.392 2.38963 121.936 2.38963C101.48 2.38963 84.8967 18.9727 84.8967 39.429C84.8967 59.8852 101.48 76.4683 121.936 76.4683Z" fill="#B3B3B3"/>
<path d="M89.989 40.2812C90.4407 23.9215 104.571 10.7911 121.936 10.7911C139.301 10.7911 153.431 23.9215 153.883 40.2812C153.891 39.998 153.894 39.7139 153.894 39.429C153.894 21.7789 139.586 7.47076 121.936 7.47076C104.286 7.47076 89.9778 21.7789 89.9778 39.429C89.9778 39.7139 89.9815 39.998 89.989 40.2812Z" fill="#7D8C73"/>
<path fill-rule="evenodd" clip-rule="evenodd" d="M125.596 71.1907C141.522 69.4692 153.894 56.6489 153.894 41.0892C153.894 24.356 139.586 10.7911 121.936 10.7911C104.286 10.7911 89.9778 24.356 89.9778 41.0892C89.9778 57.4511 103.658 70.7838 120.766 71.3673L120.764 49.7179C119.677 48.9351 115.543 45.9568 113.249 44.1741C108.929 40.8139 105.766 40.7805 102.588 41.2792C105.94 42.1121 109.088 43.7469 111.245 45.6131L111.223 45.6218C110.699 45.8317 105.669 47.8449 101.595 45.9472C97.2536 43.9259 96.6185 37.7926 96.6185 37.7926C96.6185 37.7926 102.054 34.6687 108.936 38.4703C111.704 40.0001 117.799 44.4867 120.764 46.7085V39.0765L120.734 39.0523C119.781 38.2866 115.718 35.0199 113.824 33.5303C111.083 31.3753 109.354 30.7095 107.186 31.0006C109.347 32.0626 111.66 33.516 113.119 35.1102L113.093 35.1175C112.647 35.2429 109.054 36.2545 106.171 34.4825C103.076 32.5805 103.143 27.8958 103.143 27.8958C103.143 27.8958 108.267 26.2491 112.056 29.1416C113.428 30.1892 118.187 33.9646 120.764 36.0146V28.6046C120.013 27.8385 117.893 25.6883 116.978 24.8483C115.85 23.8101 114.408 23.1562 113.218 23.2231C114.831 24.0178 116.033 25.6048 116.891 26.798C116.664 26.8601 114.551 27.4209 112.346 26.0654C110.035 24.6454 110.086 21.1492 110.086 21.1492C110.086 21.1492 113.858 19.8796 116.709 21.9582C118.364 23.1634 122.476 27.3493 122.476 27.3493L122.462 27.366L123.179 28.0247L123.898 27.3612L123.886 27.3493C123.886 27.3493 127.999 23.1634 129.653 21.9582C132.505 19.8796 136.277 21.1492 136.277 21.1492C136.277 21.1492 136.327 24.6454 134.016 26.0654C131.812 27.4209 129.699 26.8601 129.472 26.798C130.329 25.6048 131.532 24.0178 133.145 23.2231C131.954 23.1562 130.512 23.8101 129.385 24.8483C128.467 25.6907 126.342 27.8481 125.593 28.6094V36.0075C128.172 33.9551 132.922 30.1868 134.294 29.1416C138.08 26.2491 143.207 27.8958 143.207 27.8958C143.207 27.8958 143.275 32.5805 140.179 34.4825C137.293 36.2545 133.701 35.2429 133.255 35.1175L133.229 35.1102C134.69 33.516 137.003 32.0626 139.162 31.0006C136.994 30.7095 135.265 31.3753 132.524 33.5303C130.717 34.9537 126.928 37.9971 125.761 38.9351L125.593 39.0694V46.7085C128.561 44.4915 134.656 40.0001 137.426 38.4703C144.308 34.6687 149.744 37.7926 149.744 37.7926C149.744 37.7926 149.109 43.9259 144.767 45.9472C140.694 47.8449 135.664 45.8317 135.139 45.6218L135.117 45.6131C137.274 43.7469 140.423 42.1121 143.774 41.2792C140.597 40.7805 137.433 40.8139 133.113 44.1741C130.819 45.9568 126.678 48.9399 125.593 49.7179L125.596 71.1907ZM139.541 50.0472C135.772 48.243 131.829 49.4315 130.889 49.7608C133.318 51.4505 135.579 53.5124 137.624 56.0468C134.893 54.4073 132.029 53.4169 129.187 52.9325C129.307 53.3239 130.708 57.6339 134.854 59.617C139.201 61.6957 144.46 58.3068 144.46 58.3068C144.46 58.3068 143.859 52.1139 139.541 50.0472ZM106.821 50.0472C110.59 48.243 114.534 49.4315 115.473 49.7608C113.044 51.4505 110.784 53.5124 108.738 56.0468C111.469 54.4073 114.333 53.4169 117.176 52.9325C117.055 53.3239 115.654 57.6339 111.508 59.617C107.161 61.6957 101.902 58.3068 101.902 58.3068C101.902 58.3068 102.503 52.1139 106.821 50.0472ZM126.4 18.8749C126.412 21.3568 124.744 23.1562 124.321 23.5739C124.024 21.8389 123.481 20.0991 122.623 18.3475C122.812 20.2328 122.614 22.0179 122.145 23.6622C121.962 23.4975 119.967 21.6337 119.953 18.9059C119.938 16.0469 123.155 14.1114 123.155 14.1114C123.155 14.1114 126.388 16.035 126.4 18.8749Z" fill="#A3AE9D"/>
<path d="M172.799 101.395C172.799 102.042 172.575 102.598 172.127 103.063C171.687 103.528 171.011 103.76 170.097 103.76H166.013V102.578H166.947V96.85H166.013V95.6671H170.048C170.811 95.6671 171.409 95.8414 171.841 96.1901C172.281 96.5387 172.501 97.0035 172.501 97.5846C172.501 98.008 172.372 98.3773 172.115 98.6928C171.857 99.0082 171.504 99.2074 171.056 99.2904V99.3402C171.637 99.4315 172.073 99.664 172.364 100.038C172.654 100.411 172.799 100.863 172.799 101.395ZM171.019 97.9332C171.019 97.5099 170.894 97.2235 170.645 97.0741C170.405 96.9247 170.093 96.85 169.711 96.85H168.329V99.0663H169.624C170.097 99.0663 170.446 98.9625 170.67 98.755C170.903 98.5392 171.019 98.2653 171.019 97.9332ZM171.318 101.345C171.318 100.548 170.861 100.15 169.948 100.15H168.329V102.578H169.761C170.799 102.578 171.318 102.167 171.318 101.345Z" fill="#666666"/>
<path d="M183 99.7013C183 100.847 182.63 101.83 181.892 102.652C181.153 103.474 180.144 103.885 178.866 103.885C177.579 103.885 176.579 103.474 175.865 102.652C175.151 101.83 174.794 100.855 174.794 99.7262C174.794 98.5475 175.168 97.5556 175.915 96.7504C176.662 95.9452 177.658 95.5426 178.903 95.5426C180.165 95.5426 181.161 95.9535 181.892 96.7753C182.63 97.5888 183 98.5641 183 99.7013ZM181.506 99.7387C181.506 98.8339 181.273 98.1117 180.808 97.5722C180.352 97.0326 179.713 96.7628 178.891 96.7628C178.028 96.7628 177.376 97.0451 176.936 97.6095C176.504 98.1657 176.289 98.8588 176.289 99.6889C176.289 100.494 176.5 101.191 176.924 101.781C177.355 102.37 178.023 102.665 178.928 102.665C179.783 102.665 180.427 102.391 180.858 101.843C181.29 101.287 181.506 100.585 181.506 99.7387Z" fill="#666666"/>
<path d="M192.298 98.3068L191.103 98.4064L190.854 96.85H189.272V102.578H190.63V103.76H186.583V102.578H187.89V96.85H186.297L186.048 98.4064L184.865 98.3068L185.114 95.6671H192.049L192.298 98.3068Z" fill="#666666"/>
<path d="M201.476 103.76H198.375V102.578H199.197L198.786 101.469H195.761L195.325 102.578H196.234V103.76H193.171V102.578H193.918L196.358 96.85H195.175V95.6671H197.778L200.691 102.578H201.476V103.76ZM198.413 100.461L197.354 97.6469H197.28L196.159 100.461H198.413Z" fill="#666666"/>
<path d="M211.672 96.85H210.738V103.76L209.941 103.773L205.458 98.1574H205.409V102.578H206.592V103.76H203.217V102.578H204.114V96.85H203.093V95.6671H205.122L209.393 101.021H209.443V96.85H208.26V95.6671H211.672V96.85Z" fill="#666666"/>
<path d="M217.025 103.76H213.788V102.578H214.722V96.85H213.788V95.6671H217.025V96.85H216.104V102.578H217.025V103.76Z" fill="#666666"/>
<path d="M225.954 102.988C225.663 103.262 225.248 103.482 224.709 103.648C224.177 103.806 223.625 103.885 223.052 103.885C221.882 103.885 220.915 103.507 220.151 102.752C219.396 101.988 219.018 101.009 219.018 99.8134C219.018 99.141 219.159 98.4769 219.442 97.8212C219.724 97.1654 220.164 96.6217 220.761 96.1901C221.359 95.7584 222.123 95.5426 223.052 95.5426C223.733 95.5426 224.314 95.6381 224.796 95.829C225.277 96.0199 225.659 96.244 225.941 96.5013L226.153 98.257L225.02 98.369L224.821 97.2484C224.323 96.9247 223.725 96.7628 223.028 96.7628C222.264 96.7628 221.65 97.0285 221.185 97.5597C220.728 98.091 220.5 98.8173 220.5 99.7387C220.5 100.702 220.745 101.432 221.235 101.93C221.724 102.42 222.368 102.665 223.165 102.665C223.829 102.665 224.372 102.549 224.796 102.316L224.995 101.108L226.128 101.22L225.954 102.988Z" fill="#666666"/>
<path d="M236.32 103.76H233.219V102.578H234.041L233.63 101.469H230.605L230.169 102.578H231.078V103.76H228.015V102.578H228.762L231.202 96.85H230.019V95.6671H232.622L235.535 102.578H236.32V103.76ZM233.257 100.461L232.198 97.6469H232.124L231.003 100.461H233.257Z" fill="#666666"/>
<path d="M244.013 103.76H238.024V102.578H238.958V96.85H238.024V95.6671H241.548V96.85H240.34V102.578H242.83L243.079 100.897L244.262 100.996L244.013 103.76Z" fill="#666666"/>
<path d="M173.733 113.037H173.248V116.212H172.177L172.04 115.265C171.791 115.581 171.463 115.838 171.056 116.037C170.649 116.237 170.172 116.336 169.624 116.336C168.495 116.336 167.591 115.942 166.91 115.153C166.238 114.356 165.901 113.377 165.901 112.215C165.901 111.061 166.258 110.069 166.972 109.239C167.686 108.409 168.69 107.994 169.985 107.994C170.641 107.994 171.226 108.089 171.741 108.28C172.256 108.463 172.654 108.687 172.936 108.953L173.16 110.621L172.027 110.733L171.803 109.712C171.322 109.38 170.708 109.214 169.96 109.214C169.205 109.214 168.587 109.471 168.105 109.986C167.624 110.501 167.383 111.235 167.383 112.19C167.383 113.128 167.611 113.85 168.068 114.356C168.524 114.863 169.122 115.116 169.861 115.116C170.483 115.116 170.973 114.95 171.33 114.618C171.687 114.278 171.866 113.85 171.866 113.335V113.037H170.147V111.854H173.733V113.037Z" fill="#666666"/>
<path d="M183.579 116.212H180.479V115.029H181.301L180.89 113.921H177.864L177.428 115.029H178.337V116.212H175.274V115.029H176.021L178.462 109.301H177.279V108.118H179.881L182.795 115.029H183.579V116.212ZM180.516 112.912L179.458 110.098H179.383L178.263 112.912H180.516Z" fill="#666666"/>
<path d="M192.493 116.212H190.6L188.932 113.012H187.6V115.029H188.546V116.212H185.284V115.029H186.218V109.301H185.284V108.118H188.882C189.886 108.118 190.638 108.33 191.136 108.753C191.634 109.168 191.883 109.754 191.883 110.509C191.883 111.049 191.738 111.513 191.447 111.904C191.165 112.285 190.771 112.559 190.264 112.725L191.497 115.029H192.493V116.212ZM190.414 110.546C190.414 110.09 190.281 109.77 190.015 109.588C189.75 109.397 189.297 109.301 188.658 109.301H187.6V111.904H188.646C189.31 111.904 189.77 111.787 190.028 111.555C190.285 111.314 190.414 110.978 190.414 110.546Z" fill="#666666"/>
<path d="M202.216 112.14C202.216 113.352 201.855 114.336 201.133 115.091C200.41 115.838 199.41 116.212 198.132 116.212H194.372V115.029H195.305V109.301H194.372V108.118H198.057C199.419 108.118 200.452 108.492 201.158 109.239C201.863 109.986 202.216 110.953 202.216 112.14ZM200.734 112.153C200.734 110.252 199.829 109.301 198.02 109.301H196.688V115.029H198.02C199.829 115.029 200.734 114.07 200.734 112.153Z" fill="#666666"/>
<path d="M210.377 116.212H204.213V115.029H205.147V109.301H204.213V108.118H210.29L210.539 110.459L209.356 110.559L209.107 109.301H206.529V111.542H210.09V112.725H206.529V115.029H209.194L209.443 113.771L210.626 113.871L210.377 116.212Z" fill="#666666"/>
<path d="M221.307 109.301H220.373V116.212L219.576 116.224L215.094 110.609H215.044V115.029H216.227V116.212H212.852V115.029H213.749V109.301H212.728V108.118H214.757L219.028 113.472H219.078V109.301H217.895V108.118H221.307V109.301Z" fill="#666666"/>
<path d="M229.3 113.833C229.3 114.639 229.018 115.257 228.453 115.689C227.897 116.12 227.158 116.336 226.237 116.336C225.689 116.336 225.158 116.27 224.643 116.137C224.137 116.004 223.734 115.813 223.435 115.564L223.66 113.709L224.768 113.821L224.743 114.817C225.017 114.958 225.266 115.05 225.49 115.091C225.722 115.124 225.938 115.141 226.137 115.141C226.619 115.141 227.017 115.066 227.333 114.917C227.656 114.759 227.818 114.448 227.818 113.983C227.818 113.477 227.636 113.14 227.27 112.974C226.905 112.8 226.486 112.667 226.013 112.576C225.631 112.501 225.245 112.402 224.855 112.277C224.465 112.153 224.141 111.945 223.884 111.655C223.626 111.364 223.498 110.937 223.498 110.372C223.498 109.525 223.784 108.919 224.357 108.554C224.938 108.181 225.585 107.994 226.299 107.994C226.797 107.994 227.279 108.069 227.743 108.218C228.217 108.367 228.586 108.562 228.852 108.803L228.926 110.509L227.818 110.609L227.706 109.563C227.474 109.43 227.241 109.339 227.009 109.289C226.776 109.239 226.552 109.214 226.337 109.214C225.946 109.214 225.623 109.293 225.365 109.451C225.108 109.608 224.979 109.862 224.979 110.21C224.979 110.617 225.137 110.895 225.452 111.044C225.776 111.186 226.137 111.302 226.536 111.393C226.876 111.468 227.262 111.567 227.694 111.692C228.125 111.816 228.499 112.041 228.814 112.364C229.138 112.68 229.3 113.169 229.3 113.833Z" fill="#666666"/>
<path d="M30.0756 101.104C30.0756 103.955 29.4403 106.558 28.1697 108.914C26.8991 111.269 25.1172 113.159 22.824 114.585C20.5617 115.979 17.9431 116.677 14.9681 116.677C11.993 116.677 9.37441 115.979 7.11216 114.585C4.88089 113.159 3.12997 111.269 1.85939 108.914C0.619796 106.558 0 103.955 0 101.104C0 98.2221 0.635291 95.6035 1.90587 93.2483C3.20744 90.893 4.98936 89.0181 7.25161 87.6236C9.51386 86.2291 12.1015 85.5318 15.0146 85.5318C17.9896 85.5318 20.6082 86.2291 22.8705 87.6236C25.1327 89.0181 26.8991 90.893 28.1697 93.2483C29.4403 95.6035 30.0756 98.2221 30.0756 101.104ZM27.24 101.151C27.24 97.4009 26.1244 94.2709 23.8931 91.7607C21.6619 89.2196 18.7023 87.949 15.0146 87.949C11.2648 87.949 8.28977 89.2351 6.08949 91.8072C3.92021 94.3484 2.83557 97.4319 2.83557 101.058C2.83557 104.652 3.92021 107.751 6.08949 110.355C8.28977 112.958 11.2803 114.259 15.061 114.259C18.8108 114.259 21.7703 112.989 23.9396 110.448C26.1399 107.906 27.24 104.807 27.24 101.151Z" fill="#666666"/>
<path d="M41.7294 116.212H31.5493V114.073H35.361V86.3685H31.5028V84.2302H37.9177V114.073H41.7294V116.212Z" fill="#666666"/>
<path d="M64.3221 97.7573H61.7189L54.2814 116.212L51.2599 123.975H55.0251V126.113H44.7985V123.975H48.7962L51.7712 116.072L44.1942 97.7573H41.6376V95.5725H50.9345V97.7573H46.8903L53.1193 112.772H53.3982L59.0693 97.7573H55.3041V95.5725H64.3221V97.7573Z" fill="#666666"/>
<path d="M103.363 116.212H93.1825V114.073H96.9943V103.8C96.9943 101.445 96.5139 99.8026 95.5532 98.8729C94.6236 97.9122 93.4459 97.4319 92.0204 97.4319C89.9751 97.4319 88.3946 98.2066 87.279 99.7561C86.1943 101.306 85.621 102.716 85.559 103.986V114.073H89.3708V116.212H79.1906V114.073H83.0024V103.8C83.0024 101.414 82.522 99.7561 81.5614 98.8264C80.6317 97.8967 79.4695 97.4319 78.075 97.4319C76.0297 97.4319 74.4492 98.1911 73.3336 99.7096C72.2489 101.228 71.6756 102.623 71.6136 103.893V114.073H75.3324V116.212H65.1987V114.073H69.057V97.7573H65.1523V95.5725H71.6136V99.6167C72.2954 98.3461 73.2096 97.2924 74.3562 96.4557C75.5028 95.588 76.9439 95.1541 78.6793 95.1541C80.2908 95.1541 81.6853 95.5725 82.8629 96.4092C84.0405 97.2149 84.8308 98.501 85.2336 100.267C85.8844 98.8109 86.8296 97.6023 88.0692 96.6416C89.3088 95.65 90.8428 95.1541 92.6712 95.1541C94.6855 95.1541 96.328 95.7894 97.5986 97.06C98.9001 98.3306 99.5509 100.376 99.5509 103.196V114.073H103.363V116.212Z" fill="#666666"/>
<path d="M126.158 105.288C126.158 107.085 125.848 108.867 125.228 110.634C124.608 112.369 123.616 113.81 122.253 114.957C120.889 116.103 119.061 116.677 116.768 116.677C115.342 116.677 114.01 116.382 112.77 115.793C111.53 115.174 110.554 114.275 109.841 113.097V123.975H114.908V126.113H103.427V123.975H107.285V97.7573H103.38V95.5725H109.841V99.9885C110.492 98.7179 111.406 97.6023 112.584 96.6416C113.762 95.65 115.311 95.1541 117.233 95.1541C119.898 95.1541 122.051 96.0528 123.694 97.8502C125.336 99.6167 126.158 102.096 126.158 105.288ZM123.461 105.52C123.461 102.886 122.826 100.887 121.556 99.5237C120.285 98.1291 118.689 97.4319 116.768 97.4319C114.846 97.4319 113.219 98.2221 111.887 99.8026C110.585 101.383 109.903 102.933 109.841 104.451V108.123C109.841 109.859 110.477 111.346 111.747 112.586C113.018 113.794 114.552 114.399 116.349 114.399C118.921 114.399 120.75 113.485 121.835 111.656C122.919 109.797 123.461 107.751 123.461 105.52Z" fill="#666666"/>
<path d="M132.291 89.8084V86.1361H135.173V89.8084H132.291ZM138.985 116.212H128.758V114.073H132.616V97.7573H128.712V95.5725H135.173V114.073H138.985V116.212Z" fill="#666666"/>
<path d="M143.001 97.1994C143.868 96.4867 144.907 95.9754 146.115 95.6655C147.355 95.3246 148.594 95.1541 149.834 95.1541C154.606 95.1541 156.993 97.4629 156.993 102.08V112.121C156.993 113.702 157.597 114.492 158.805 114.492C159.425 114.492 159.937 114.383 160.339 114.166L160.386 116.026C159.704 116.46 158.898 116.677 157.969 116.677C155.613 116.677 154.436 115.282 154.436 112.493V112.4C153.785 113.516 152.84 114.507 151.6 115.375C150.392 116.243 148.966 116.677 147.324 116.677C145.96 116.677 144.566 116.274 143.14 115.468C141.746 114.631 141.048 113.113 141.048 110.912C141.048 108.309 142.086 106.605 144.163 105.799C146.239 104.962 148.424 104.544 150.717 104.544C151.368 104.544 152.003 104.575 152.623 104.637C153.274 104.668 153.878 104.699 154.436 104.73V102.545C154.436 100.965 154.064 99.7251 153.32 98.8264C152.607 97.8967 151.306 97.4319 149.416 97.4319C147.866 97.4319 146.471 97.7418 145.232 98.3616L144.395 102.08L142.257 101.801L143.001 97.1994ZM154.436 108.635V106.729C153.847 106.667 153.212 106.62 152.53 106.589C151.848 106.527 151.135 106.496 150.392 106.496C148.718 106.496 147.184 106.76 145.79 107.287C144.426 107.782 143.744 108.898 143.744 110.634C143.744 112.121 144.225 113.128 145.185 113.655C146.146 114.151 147.076 114.399 147.975 114.399C149.524 114.399 150.965 113.872 152.298 112.818C153.63 111.734 154.343 110.339 154.436 108.635Z" fill="#666666"/>
</svg>
