<svg width="284" height="62" viewBox="0 0 284 62" fill="none" xmlns="http://www.w3.org/2000/svg">
<path d="M26.4079 22.7575V9.36691H24.3766V22.7575C23.7845 22.9668 23.2716 23.3539 22.908 23.8659C22.5444 24.3778 22.3479 24.9896 22.3453 25.6176C22.347 26.0701 22.4512 26.5163 22.6499 26.9227L16.5478 33.0249L17.984 34.461L24.0871 28.3599C24.4936 28.5587 24.9398 28.6628 25.3923 28.6646C26.1102 28.666 26.8054 28.4132 27.3548 27.9511C27.9042 27.489 28.2723 26.8473 28.3939 26.1398C28.5156 25.4323 28.3829 24.7046 28.0194 24.0855C27.6559 23.4664 27.085 22.996 26.4079 22.7575ZM25.3923 26.6333C25.1914 26.6333 24.995 26.5737 24.828 26.4621C24.661 26.3505 24.5308 26.1919 24.4539 26.0063C24.377 25.8207 24.3569 25.6165 24.3961 25.4194C24.4353 25.2224 24.532 25.0414 24.6741 24.8994C24.8161 24.7574 24.9971 24.6606 25.1941 24.6214C25.3911 24.5822 25.5953 24.6024 25.7809 24.6792C25.9665 24.7561 26.1251 24.8863 26.2367 25.0533C26.3484 25.2203 26.4079 25.4167 26.4079 25.6176C26.4079 25.887 26.3009 26.1453 26.1104 26.3358C25.92 26.5263 25.6616 26.6333 25.3923 26.6333Z" fill="#B3D3E5"/>
<path d="M55.8623 45.9309H57.8936C58.701 45.9285 59.4746 45.6067 60.0455 45.0358C60.6164 44.4649 60.9382 43.6913 60.9406 42.8839V32.7273C60.9382 31.9199 60.6164 31.1463 60.0455 30.5754C59.4746 30.0045 58.701 29.6827 57.8936 29.6803H55.8623V28.6646C55.8623 28.3952 55.7553 28.1369 55.5648 27.9464C55.3743 27.7559 55.116 27.6489 54.8466 27.6489H50.6925C50.7433 26.9887 50.7839 26.3184 50.7839 25.6176C50.7783 24.5987 50.7105 23.5812 50.5808 22.5706H51.1496C52.0463 22.5803 52.9155 22.2611 53.593 21.6735C54.2704 21.0859 54.7092 20.2705 54.8263 19.3814C54.8945 18.7338 54.782 18.0799 54.5013 17.4923H56.167C57.3642 17.5189 58.5259 17.0849 59.4124 16.2797C60.2988 15.4746 60.8422 14.3598 60.9304 13.1655C60.9669 12.5445 60.8747 11.9227 60.6597 11.339C60.4448 10.7553 60.1116 10.2222 59.6812 9.77319C59.2544 9.32416 58.7409 8.96657 58.1717 8.72213C57.6025 8.4777 56.9896 8.35151 56.3701 8.35125H43.9891C41.1214 5.26249 37.5297 2.93637 33.5381 1.5828C29.5466 0.229227 25.2808 -0.1092 21.1258 0.598057C16.9708 1.30531 13.0572 3.036 9.7383 5.63393C6.41938 8.23187 3.79955 11.6153 2.1152 15.4789C0.430848 19.3425 -0.265003 23.5647 0.0904356 27.7645C0.445875 31.9643 1.84142 36.0095 4.15113 39.535C6.46085 43.0606 9.61205 45.9556 13.3204 47.9588C17.0287 49.962 21.1775 51.0104 25.3922 51.0093C27.0015 51.0078 28.6069 50.8513 30.1862 50.5421C30.2781 50.7062 30.3834 50.8625 30.5011 51.0093H25.3922C25.1229 51.0093 24.8645 51.1163 24.6741 51.3068C24.4836 51.4972 24.3766 51.7556 24.3766 52.0249V54.0563C24.379 54.8637 24.7008 55.6373 25.2717 56.2082C25.8426 56.7791 26.6162 57.1009 27.4236 57.1033H29.4549V60.1503C29.4549 60.4197 29.5619 60.678 29.7524 60.8685C29.9429 61.0589 30.2012 61.166 30.4706 61.166H54.8466C55.116 61.166 55.3743 61.0589 55.5648 60.8685C55.7553 60.678 55.8623 60.4197 55.8623 60.1503V57.1033H57.8936C58.701 57.1009 59.4746 56.7791 60.0455 56.2082C60.6164 55.6373 60.9382 54.8637 60.9406 54.0563V52.0249C60.9406 51.7556 60.8336 51.4972 60.6431 51.3068C60.4526 51.1163 60.1943 51.0093 59.9249 51.0093H54.8161C55.4914 50.1368 55.8592 49.0655 55.8623 47.9623V45.9309ZM55.8623 31.7116H57.8936C58.163 31.7116 58.4213 31.8186 58.6118 32.0091C58.8023 32.1996 58.9093 32.4579 58.9093 32.7273V42.8839C58.9093 43.1533 58.8023 43.4117 58.6118 43.6021C58.4213 43.7926 58.163 43.8996 57.8936 43.8996H55.8623V31.7116ZM53.8309 29.6803V47.9623C53.8285 48.7697 53.5067 49.5433 52.9358 50.1142C52.3649 50.6851 51.5913 51.0069 50.7839 51.0093H34.5333C33.7259 51.0069 32.9523 50.6851 32.3814 50.1142C31.8105 49.5433 31.4887 48.7697 31.4863 47.9623V29.6803H53.8309ZM46.4775 22.5706H48.5291C48.6714 23.5801 48.7461 24.5981 48.7526 25.6176C48.7526 26.3184 48.712 26.9887 48.651 27.6489H46.6095C46.6814 26.9742 46.7187 26.2962 46.7213 25.6176C46.7108 24.5975 46.6293 23.5794 46.4775 22.5706V22.5706ZM25.3922 48.9779C21.5959 48.9799 17.8563 48.0566 14.4971 46.288C11.138 44.5194 8.26043 41.9588 6.11364 38.8277C3.96684 35.6967 2.61546 32.0897 2.17648 28.3188C1.7375 24.548 2.22415 20.7269 3.5943 17.1865C4.96446 13.646 7.17682 10.4929 10.0399 7.9999C12.903 5.50694 16.3305 3.74932 20.0257 2.87917C23.721 2.00902 27.5726 2.05257 31.2473 3.00604C34.9219 3.95952 38.3088 5.79419 41.1148 8.35125H37.8951C35.1703 6.37514 32.0164 5.07197 28.6915 4.5483C25.3665 4.02463 21.9648 4.29533 18.7644 5.33826C15.5641 6.38119 12.6561 8.16674 10.278 10.5489C7.90003 12.9311 6.11957 15.8423 5.08225 19.0444C4.04492 22.2466 3.78018 25.6488 4.30968 28.9728C4.83917 32.2969 6.14786 35.4484 8.12874 38.1698C10.1096 40.8912 12.7065 43.1051 15.7069 44.6305C18.7074 46.156 22.0263 46.9496 25.3922 46.9466C26.7555 46.945 28.1157 46.8158 29.4549 46.5607V47.9623C29.4549 48.1857 29.4955 48.3889 29.5159 48.6021C28.1553 48.8503 26.7752 48.9761 25.3922 48.9779V48.9779ZM30.4706 27.6489C30.2012 27.6489 29.9429 27.7559 29.7524 27.9464C29.5619 28.1369 29.4549 28.3952 29.4549 28.6646V44.4785C26.808 45.0514 24.0701 45.0608 21.4194 44.506C18.7686 43.9512 16.2643 42.8447 14.0693 41.2584C11.8743 39.6721 10.0378 37.6416 8.67912 35.2988C7.32047 32.9561 6.47014 30.3536 6.18342 27.6606C5.89671 24.9676 6.18002 22.2445 7.01495 19.6682C7.84988 17.0919 9.21772 14.7202 11.0295 12.7073C12.8413 10.6944 15.0565 9.08542 17.5311 7.98495C20.0056 6.88447 22.684 6.31717 25.3922 6.31992C28.604 6.31253 31.7656 7.11603 34.584 8.65595C33.565 9.00253 32.7022 9.69998 32.1498 10.6238C31.5974 11.5476 31.3913 12.6377 31.5682 13.6995C31.7452 14.7612 32.2937 15.7255 33.1159 16.4202C33.9381 17.115 34.9804 17.4949 36.0568 17.4923C36.1914 17.4923 36.3206 17.5458 36.4158 17.641C36.5111 17.7362 36.5646 17.8654 36.5646 18.0001V21.5549H38.5959V18.0001C38.5959 17.3267 38.3284 16.6808 37.8522 16.2046C37.376 15.7284 36.7302 15.4609 36.0568 15.4609C35.7124 15.4619 35.3715 15.3921 35.0552 15.2559C34.739 15.1196 34.4541 14.9197 34.2184 14.6687C33.9789 14.4183 33.7931 14.1215 33.6726 13.7966C33.5521 13.4717 33.4993 13.1256 33.5176 12.7796C33.5898 12.1085 33.9121 11.4893 34.4203 11.0451C34.9284 10.601 35.5852 10.3644 36.2599 10.3826H56.3701C56.7145 10.3816 57.0554 10.4514 57.3716 10.5876C57.6879 10.7239 57.9727 10.9238 58.2085 11.1748C58.448 11.4252 58.6338 11.722 58.7543 12.0469C58.8748 12.3718 58.9275 12.7179 58.9093 13.0639C58.837 13.735 58.5147 14.3542 58.0066 14.7984C57.4984 15.2426 56.8416 15.4791 56.167 15.4609H51.2918C51.0224 15.4609 50.7641 15.5679 50.5736 15.7584C50.3831 15.9489 50.2761 16.2072 50.2761 16.4766C50.2761 16.746 50.3831 17.0043 50.5736 17.1948C50.7641 17.3853 51.0224 17.4923 51.2918 17.4923C51.5039 17.4926 51.7137 17.5369 51.9078 17.6226C52.1018 17.7083 52.276 17.8334 52.4192 17.9899C52.565 18.1487 52.6749 18.337 52.7415 18.5421C52.8081 18.7471 52.8298 18.9641 52.8051 19.1783C52.7437 19.5685 52.5412 19.9226 52.2361 20.1735C51.9309 20.4244 51.5443 20.5545 51.1496 20.5393H42.6586C42.3892 20.5393 42.1309 20.6463 41.9404 20.8367C41.7499 21.0272 41.6429 21.2856 41.6429 21.5549V25.6176H43.6743V22.5706H44.4259C44.5948 23.5776 44.6831 24.5965 44.6899 25.6176C44.6838 26.2963 44.6432 26.9743 44.568 27.6489H30.4706ZM53.8309 59.1346H31.4863V57.1033H53.8309V59.1346ZM58.9093 53.0406V54.0563C58.9093 54.3257 58.8023 54.584 58.6118 54.7745C58.4213 54.9649 58.163 55.0719 57.8936 55.0719H27.4236C27.1542 55.0719 26.8959 54.9649 26.7054 54.7745C26.5149 54.584 26.4079 54.3257 26.4079 54.0563V53.0406H58.9093Z" fill="url(#paint0_linear)"/>
<path d="M36.5646 23.5863H38.5959V25.6176H36.5646V23.5863Z" fill="#B4B3E5"/>
<path d="M33.5176 31.7116H35.5489V35.7743H33.5176V31.7116Z" fill="#B3D3E5"/>
<path d="M33.5176 37.8056H35.5489V39.8369H33.5176V37.8056Z" fill="#B4B3E5"/>
<path fill-rule="evenodd" clip-rule="evenodd" d="M77.0817 46.18C78.5908 47.1224 80.2669 47.5936 82.1101 47.5936C84.1097 47.5936 85.8871 47.1671 87.4423 46.3142C89.0293 45.4296 90.2671 44.2134 91.1558 42.6655C92.0445 41.1175 92.4888 39.38 92.4888 37.453V15.3712C92.4888 15.083 92.4185 14.8336 92.2778 14.6232C92.5479 14.6831 92.7717 14.8123 92.949 15.0109C93.2347 15.2636 93.3775 15.5953 93.3775 16.006V38.0878C93.3775 40.0148 92.9332 41.7523 92.0445 43.3002C91.1558 44.8482 89.9179 46.0644 88.331 46.949C86.7758 47.8019 84.9984 48.2284 82.9988 48.2284C81.031 48.2284 79.2536 47.6913 77.6667 46.6173C77.4658 46.4773 77.2708 46.3316 77.0817 46.18ZM75.5413 40.1706C75.5731 40.2107 75.6044 40.2525 75.6354 40.2962C76.2384 41.6546 77.1112 42.7444 78.2538 43.5658C78.39 43.6599 78.5281 43.7484 78.6683 43.8313C77.7555 43.0616 77.0408 42.0949 76.5241 40.931C76.2334 40.5212 75.9059 40.2677 75.5413 40.1706ZM119.067 26.6029C118.448 25.8347 117.691 25.1654 116.796 24.5952C117.75 25.3595 118.507 26.2653 119.067 27.3124V26.6029ZM104.631 45.9892C104.89 46.1939 105.158 46.3875 105.435 46.5699C107.149 47.6755 109.069 48.2284 111.196 48.2284C113.068 48.2284 114.798 47.7387 116.385 46.7594C117.462 46.0951 118.356 45.329 119.067 44.4611V42.5233C118.274 43.9449 117.083 45.1453 115.496 46.1246C113.909 47.1039 112.18 47.5936 110.307 47.5936C108.216 47.5936 106.324 47.0588 104.631 45.9892ZM120.132 47.0838C120.187 47.1874 120.256 47.2847 120.337 47.3754C120.622 47.6282 120.971 47.7545 121.384 47.7545C121.797 47.7545 122.13 47.6282 122.384 47.3754C122.669 47.0911 122.812 46.7436 122.812 46.3329V25.0093C122.812 24.5986 122.669 24.2511 122.384 23.9668C122.196 23.7567 121.965 23.6242 121.691 23.5694C121.846 23.8034 121.924 24.0718 121.924 24.3745V45.6982C121.924 46.1088 121.781 46.4563 121.495 46.7406C121.241 46.9934 120.908 47.1197 120.495 47.1197C120.368 47.1197 120.247 47.1078 120.132 47.0838ZM106.308 43.8075C105.314 42.9856 104.515 41.9478 103.912 40.694C103.182 39.1461 102.817 37.4244 102.817 35.529C102.817 33.6335 103.182 31.9434 103.912 30.4587C104.673 28.9423 105.705 27.7577 107.006 26.9047C108.339 26.0518 109.831 25.6253 111.481 25.6253C113.079 25.6253 114.513 26.0397 115.784 26.8686C115.541 26.6716 115.287 26.4878 115.02 26.3173C113.719 25.4328 112.243 24.9905 110.593 24.9905C108.942 24.9905 107.451 25.417 106.118 26.2699C104.816 27.1229 103.785 28.3075 103.023 29.8239C102.293 31.3086 101.928 32.9987 101.928 34.8942C101.928 36.7896 102.293 38.5113 103.023 40.0592C103.753 41.5756 104.769 42.776 106.07 43.6606C106.149 43.711 106.228 43.76 106.308 43.8075ZM137.986 41.7892L130.47 23.9668C130.343 23.6825 130.152 23.4614 129.898 23.3034C129.753 23.1795 129.594 23.096 129.422 23.0531C129.483 23.1381 129.536 23.2311 129.581 23.332L137.675 42.5233L137.986 41.7892ZM137.306 47.1034C137.438 47.1288 137.577 47.1342 137.722 47.1197C137.976 47.1197 138.214 47.0408 138.436 46.8828C138.69 46.6933 138.881 46.4721 139.008 46.2194L148.339 24.4219C148.466 24.1692 148.529 23.9006 148.529 23.6163C148.529 23.427 148.487 23.2564 148.402 23.1046C148.605 23.1541 148.801 23.252 148.99 23.3982C149.275 23.6193 149.418 23.9036 149.418 24.2511C149.418 24.5354 149.355 24.804 149.228 25.0567L139.896 46.8542C139.769 47.1069 139.579 47.328 139.325 47.5176C139.103 47.6755 138.865 47.7545 138.611 47.7545C138.293 47.7861 138.008 47.7229 137.754 47.565C137.572 47.4517 137.422 47.2979 137.306 47.1034ZM172.255 26.6029C171.636 25.8346 170.879 25.1654 169.984 24.5952C170.938 25.3595 171.695 26.2653 172.255 27.3124V26.6029ZM157.819 45.9892C158.077 46.1939 158.345 46.3875 158.623 46.5699C160.337 47.6755 162.257 48.2284 164.383 48.2284C166.256 48.2284 167.986 47.7387 169.573 46.7594C170.649 46.0951 171.543 45.3289 172.255 44.4611V42.5233C171.461 43.9449 170.271 45.1453 168.684 46.1246C167.097 47.1039 165.367 47.5936 163.495 47.5936C161.403 47.5936 159.511 47.0588 157.819 45.9892ZM173.32 47.0838C173.375 47.1874 173.443 47.2847 173.524 47.3754C173.81 47.6282 174.159 47.7545 174.572 47.7545C174.984 47.7545 175.318 47.6282 175.571 47.3754C175.857 47.0911 176 46.7436 176 46.3329V25.0093C176 24.5986 175.857 24.2511 175.571 23.9668C175.384 23.7567 175.153 23.6242 174.878 23.5694C175.034 23.8034 175.111 24.0718 175.111 24.3745V45.6982C175.111 46.1088 174.968 46.4563 174.683 46.7406C174.429 46.9934 174.096 47.1197 173.683 47.1197C173.556 47.1197 173.435 47.1078 173.32 47.0838ZM159.496 43.8075C158.502 42.9856 157.703 41.9478 157.099 40.694C156.369 39.1461 156.004 37.4244 156.004 35.529C156.004 33.6335 156.369 31.9434 157.099 30.4587C157.861 28.9423 158.893 27.7577 160.194 26.9047C161.527 26.0518 163.019 25.6253 164.669 25.6253C166.267 25.6253 167.701 26.0397 168.971 26.8685C168.729 26.6715 168.474 26.4878 168.208 26.3173C166.907 25.4328 165.431 24.9905 163.78 24.9905C162.13 24.9905 160.638 25.417 159.305 26.2699C158.004 27.1229 156.972 28.3075 156.211 29.8239C155.481 31.3086 155.116 32.9987 155.116 34.8942C155.116 36.7896 155.481 38.5113 156.211 40.0592C156.941 41.5756 157.956 42.776 159.258 43.6606C159.336 43.711 159.416 43.76 159.496 43.8075ZM178.357 16.6113C178.415 16.7193 178.488 16.8177 178.577 16.9063C178.863 17.159 179.212 17.2854 179.624 17.2854H188.591V16.6506H178.736C178.603 16.6506 178.477 16.6375 178.357 16.6113ZM189.653 47.0786C189.782 47.106 189.92 47.1197 190.067 47.1197C190.479 47.1197 190.828 46.9934 191.114 46.7406C191.4 46.4563 191.543 46.1088 191.543 45.6982V16.6506H201.397C201.81 16.6506 202.143 16.54 202.397 16.3189C202.683 16.0662 202.826 15.7345 202.826 15.3238C202.826 15.0555 202.765 14.8208 202.643 14.6199C202.895 14.6736 203.11 14.7881 203.286 14.9635C203.572 15.2162 203.714 15.5479 203.714 15.9586C203.714 16.3693 203.572 16.701 203.286 16.9537C203.032 17.1748 202.699 17.2854 202.286 17.2854H192.431V46.3329C192.431 46.7436 192.288 47.0911 192.003 47.3754C191.717 47.6282 191.368 47.7545 190.955 47.7545C190.511 47.7545 190.146 47.6282 189.86 47.3754C189.778 47.2831 189.709 47.1842 189.653 47.0786ZM210.515 46.7406C210.801 46.4563 210.944 46.1088 210.944 45.6982V23.9006C210.944 23.6096 210.872 23.3582 210.729 23.1465C210.995 23.2035 211.22 23.3347 211.404 23.5403C211.69 23.7931 211.832 24.1248 211.832 24.5354V46.3329C211.832 46.7436 211.69 47.0911 211.404 47.3754C211.15 47.6282 210.817 47.7545 210.404 47.7545C209.992 47.7545 209.642 47.6282 209.357 47.3754C209.276 47.2847 209.208 47.1875 209.152 47.0838C209.267 47.1078 209.388 47.1197 209.515 47.1197C209.928 47.1197 210.261 46.9934 210.515 46.7406ZM208.662 19.1951C208.91 19.2678 209.194 19.3042 209.515 19.3042C210.15 19.3042 210.626 19.1621 210.944 18.8777C211.293 18.5618 211.467 18.1196 211.467 17.5509V17.0771C211.467 16.661 211.387 16.3191 211.226 16.0511C211.979 16.2579 212.356 16.8115 212.356 17.7119V18.1857C212.356 18.7544 212.182 19.1966 211.832 19.5125C211.515 19.7968 211.039 19.939 210.404 19.939C209.769 19.939 209.277 19.7968 208.928 19.5125C208.824 19.418 208.735 19.3122 208.662 19.1951ZM251.36 24.4052C251.692 24.6905 251.992 25.012 252.262 25.3696C253.626 27.1071 254.309 29.4132 254.309 32.2879V45.6982C254.309 46.1088 254.166 46.4563 253.88 46.7406C253.626 46.9934 253.293 47.1197 252.881 47.1197C252.754 47.1197 252.633 47.1078 252.517 47.0838C252.573 47.1875 252.641 47.2847 252.722 47.3754C253.008 47.6282 253.357 47.7545 253.769 47.7545C254.182 47.7545 254.515 47.6282 254.769 47.3754C255.055 47.0911 255.198 46.7436 255.198 46.3329V32.9227C255.198 30.048 254.515 27.7419 253.15 26.0044C252.658 25.3505 252.061 24.8174 251.36 24.4052ZM249.339 26.7036C248.368 25.8143 247.026 25.3696 245.311 25.3696C243.978 25.3696 242.708 25.6855 241.502 26.3173C240.328 26.9491 239.376 27.8179 238.646 28.9235C237.916 29.9976 237.551 31.1665 237.551 32.4301V45.6982C237.551 46.1088 237.408 46.4563 237.122 46.7406C236.868 46.9934 236.535 47.1197 236.122 47.1197C235.995 47.1197 235.874 47.1078 235.759 47.0838C235.814 47.1874 235.883 47.2847 235.964 47.3754C236.249 47.6282 236.598 47.7545 237.011 47.7545C237.424 47.7545 237.757 47.6282 238.011 47.3754C238.296 47.0911 238.439 46.7436 238.439 46.3329V33.0649C238.439 31.8013 238.804 30.6324 239.534 29.5583C240.264 28.4527 241.216 27.5839 242.391 26.9521C243.597 26.3203 244.866 26.0044 246.2 26.0044C247.441 26.0044 248.488 26.2375 249.339 26.7036ZM232.694 26.6715C231.755 25.8036 230.453 25.3696 228.791 25.3696C227.489 25.3696 226.252 25.6855 225.077 26.3173C223.935 26.9491 222.998 27.8021 222.268 28.8762C221.57 29.9187 221.221 31.0559 221.221 32.2879V45.6982C221.221 46.1088 221.078 46.4563 220.792 46.7406C220.538 46.9934 220.205 47.1197 219.793 47.1197C219.666 47.1197 219.545 47.1077 219.43 47.0838C219.485 47.1874 219.553 47.2847 219.634 47.3754C219.92 47.6282 220.269 47.7545 220.681 47.7545C221.094 47.7545 221.427 47.6282 221.681 47.3754C221.967 47.0911 222.11 46.7436 222.11 46.3329V32.9227C222.11 31.6907 222.459 30.5534 223.157 29.511C223.887 28.4369 224.823 27.5839 225.966 26.9521C227.14 26.3203 228.378 26.0044 229.679 26.0044C230.87 26.0044 231.875 26.2268 232.694 26.6715ZM236.932 27.9284C237.036 27.7115 237.153 27.4989 237.284 27.2904C236.716 26.198 235.943 25.3271 234.964 24.6776C234.876 24.6194 234.787 24.5631 234.698 24.5088C235.709 25.3611 236.454 26.501 236.932 27.9284ZM221.221 27.2177C221.488 26.8142 221.784 26.4321 222.11 26.0715V25.1041C222.11 24.6934 221.967 24.3617 221.681 24.109C221.497 23.9033 221.272 23.7721 221.006 23.7152C221.149 23.9269 221.221 24.1782 221.221 24.4693V27.2177ZM281.927 34.6099C282.213 34.3255 282.355 33.9938 282.355 33.6148C282.324 31.277 281.784 29.2553 280.737 27.5494C280.052 26.4335 279.231 25.4933 278.274 24.7289C279.62 25.585 280.737 26.7367 281.625 28.1841C282.673 29.89 283.212 31.9118 283.244 34.2495C283.244 34.6286 283.101 34.9603 282.816 35.2446C282.53 35.4974 282.197 35.6237 281.816 35.6237H263.82C263.82 37.5192 264.201 39.2251 264.962 40.7414C265.566 41.8717 266.354 42.828 267.326 43.6104C265.937 42.7315 264.852 41.5635 264.074 40.1066C263.312 38.5903 262.931 36.8844 262.931 34.9889H280.927C281.308 34.9889 281.641 34.8626 281.927 34.6099ZM281.619 41.7987C281.729 41.9792 281.784 42.1733 281.784 42.3811C281.784 42.7286 281.625 43.0603 281.308 43.3762C280.292 44.6083 279.007 45.6192 277.452 46.4089C275.928 47.1987 274.31 47.5936 272.596 47.5936C270.152 47.5936 267.994 47.0723 266.121 46.0299C265.892 45.9026 265.67 45.7693 265.454 45.6298C265.936 46.0108 266.455 46.3557 267.01 46.6646C268.882 47.7071 271.041 48.2284 273.484 48.2284C275.198 48.2284 276.817 47.8335 278.34 47.0437C279.896 46.254 281.181 45.2431 282.197 44.011C282.514 43.6951 282.673 43.3634 282.673 43.0159C282.673 42.7 282.546 42.4157 282.292 42.163C282.088 41.9602 281.864 41.8387 281.619 41.7987ZM266.169 26.9807C267.756 25.7171 269.469 25.0853 271.31 25.0853C272.58 25.0853 273.802 25.3696 274.976 25.9382C275.618 26.2238 276.201 26.5854 276.725 27.0229C276.451 26.8564 276.164 26.7064 275.865 26.573C274.691 26.0044 273.469 25.7201 272.199 25.7201C270.358 25.7201 268.644 26.3519 267.057 27.6155C265.644 28.7638 264.689 30.3687 264.193 32.4301H263.169C263.614 30.0608 264.613 28.2444 266.169 26.9807Z" fill="#B3D3E5"/>
<path d="M81.7293 47.4666C79.7615 47.4666 77.9841 46.9296 76.3971 45.8555C74.8102 44.7498 73.5882 43.2809 72.7313 41.4486C72.5726 41.1959 72.4932 40.9432 72.4932 40.6904C72.4932 40.3113 72.6361 39.9954 72.9217 39.7427C73.2391 39.49 73.5724 39.3636 73.9215 39.3636C74.4293 39.3636 74.8737 39.6321 75.2545 40.1692C75.8576 41.5276 76.7304 42.6175 77.873 43.4388C79.0156 44.2286 80.301 44.6235 81.7293 44.6235C83.9193 44.6235 85.6967 43.9601 87.0614 42.6333C88.4262 41.2749 89.1086 39.5058 89.1086 37.326V15.2442C89.1086 14.8335 89.2514 14.5018 89.5371 14.2491C89.8227 13.9648 90.1877 13.8226 90.6321 13.8226C91.0764 13.8226 91.4256 13.9648 91.6795 14.2491C91.9651 14.5018 92.108 14.8335 92.108 15.2442V37.326C92.108 39.2531 91.6636 40.9905 90.7749 42.5385C89.8862 44.0864 88.6484 45.3027 87.0614 46.1872C85.5062 47.0401 83.7288 47.4666 81.7293 47.4666Z" fill="#806749"/>
<path d="M120.114 22.7786C120.527 22.7786 120.86 22.9207 121.114 23.205C121.4 23.4894 121.543 23.8368 121.543 24.2475V45.5712C121.543 45.9819 121.4 46.3294 121.114 46.6137C120.86 46.8664 120.527 46.9928 120.114 46.9928C119.702 46.9928 119.353 46.8664 119.067 46.6137C118.813 46.3294 118.686 45.9819 118.686 45.5712V42.3963C117.893 43.8179 116.702 45.0183 115.116 45.9977C113.529 46.977 111.799 47.4666 109.926 47.4666C107.8 47.4666 105.879 46.9138 104.166 45.8081C102.483 44.7024 101.15 43.1861 100.166 41.2591C99.2143 39.332 98.7382 37.1681 98.7382 34.7672C98.7382 32.3663 99.2301 30.2181 100.214 28.3227C101.198 26.3957 102.531 24.8951 104.213 23.8211C105.927 22.747 107.816 22.2099 109.879 22.2099C111.783 22.2099 113.529 22.668 115.116 23.5841C116.702 24.5003 117.893 25.7007 118.686 27.1855V24.2475C118.686 23.8368 118.813 23.4894 119.067 23.205C119.353 22.9207 119.702 22.7786 120.114 22.7786ZM110.212 44.813C111.862 44.813 113.338 44.3865 114.639 43.5336C115.972 42.649 117.004 41.4486 117.734 39.9323C118.496 38.3843 118.877 36.6626 118.877 34.7672C118.877 32.9349 118.496 31.2606 117.734 29.7443C117.004 28.2279 115.972 27.0433 114.639 26.1903C113.338 25.3058 111.862 24.8635 110.212 24.8635C108.561 24.8635 107.07 25.29 105.737 26.143C104.435 26.9959 103.404 28.1806 102.642 29.6969C101.912 31.1817 101.547 32.8718 101.547 34.7672C101.547 36.6626 101.912 38.3843 102.642 39.9323C103.372 41.4486 104.388 42.649 105.689 43.5336C107.022 44.3865 108.53 44.813 110.212 44.813Z" fill="#806749"/>
<path d="M146.815 22.3047C147.133 22.3047 147.434 22.4153 147.72 22.6364C148.006 22.8575 148.148 23.1419 148.148 23.4894C148.148 23.7737 148.085 24.0422 147.958 24.2949L138.627 46.0924C138.5 46.3451 138.309 46.5663 138.055 46.7558C137.833 46.9138 137.595 46.9928 137.341 46.9928C137.024 47.0243 136.738 46.9612 136.484 46.8032C136.23 46.6453 136.04 46.4083 135.913 46.0924L126.534 24.2949C126.534 24.2317 126.502 24.137 126.439 24.0106C126.407 23.8842 126.391 23.7579 126.391 23.6315C126.391 23.2524 126.518 22.9365 126.772 22.6838C127.026 22.3995 127.391 22.2573 127.867 22.2573C128.153 22.2573 128.407 22.3521 128.629 22.5416C128.883 22.6996 129.073 22.9207 129.2 23.205L137.294 42.3963L145.435 23.205C145.562 22.9207 145.736 22.6996 145.958 22.5416C146.212 22.3521 146.498 22.2731 146.815 22.3047Z" fill="#806749"/>
<path d="M173.302 22.7786C173.715 22.7786 174.048 22.9207 174.302 23.205C174.588 23.4894 174.73 23.8368 174.73 24.2475V45.5712C174.73 45.9819 174.588 46.3294 174.302 46.6137C174.048 46.8664 173.715 46.9928 173.302 46.9928C172.89 46.9928 172.54 46.8664 172.255 46.6137C172.001 46.3294 171.874 45.9819 171.874 45.5712V42.3963C171.08 43.8179 169.89 45.0183 168.303 45.9977C166.716 46.977 164.987 47.4666 163.114 47.4666C160.987 47.4666 159.067 46.9138 157.353 45.8081C155.671 44.7024 154.338 43.1861 153.354 41.2591C152.402 39.332 151.926 37.1681 151.926 34.7672C151.926 32.3663 152.418 30.2181 153.402 28.3227C154.386 26.3957 155.719 24.8951 157.401 23.8211C159.115 22.747 161.003 22.2099 163.066 22.2099C164.971 22.2099 166.716 22.668 168.303 23.5841C169.89 24.5003 171.08 25.7007 171.874 27.1855V24.2475C171.874 23.8368 172.001 23.4894 172.255 23.205C172.54 22.9207 172.89 22.7786 173.302 22.7786ZM163.4 44.813C165.05 44.813 166.526 44.3865 167.827 43.5336C169.16 42.649 170.192 41.4486 170.922 39.9323C171.683 38.3843 172.064 36.6626 172.064 34.7672C172.064 32.9349 171.683 31.2606 170.922 29.7443C170.192 28.2279 169.16 27.0433 167.827 26.1903C166.526 25.3058 165.05 24.8635 163.4 24.8635C161.749 24.8635 160.257 25.29 158.924 26.143C157.623 26.9959 156.592 28.1806 155.83 29.6969C155.1 31.1817 154.735 32.8718 154.735 34.7672C154.735 36.6626 155.1 38.3843 155.83 39.9323C156.56 41.4486 157.575 42.649 158.877 43.5336C160.21 44.3865 161.717 44.813 163.4 44.813Z" fill="#806749"/>
<path d="M201.017 13.8226C201.429 13.8226 201.763 13.949 202.016 14.2017C202.302 14.4544 202.445 14.7861 202.445 15.1968C202.445 15.6075 202.302 15.9392 202.016 16.1919C201.763 16.4131 201.429 16.5236 201.017 16.5236H191.162V45.5712C191.162 45.9819 191.019 46.3294 190.733 46.6137C190.448 46.8664 190.098 46.9928 189.686 46.9928C189.241 46.9928 188.876 46.8664 188.591 46.6137C188.337 46.3294 188.21 45.9819 188.21 45.5712V16.5236H178.355C177.942 16.5236 177.593 16.3973 177.308 16.1445C177.054 15.8918 176.927 15.5601 176.927 15.1494C176.927 14.7704 177.054 14.4544 177.308 14.2017C177.593 13.949 177.942 13.8226 178.355 13.8226H201.017Z" fill="#806749"/>
<path d="M210.563 45.5712C210.563 45.9819 210.42 46.3294 210.134 46.6137C209.881 46.8664 209.547 46.9928 209.135 46.9928C208.722 46.9928 208.373 46.8664 208.087 46.6137C207.833 46.3294 207.706 45.9819 207.706 45.5712V23.7737C207.706 23.363 207.833 23.0313 208.087 22.7786C208.373 22.4942 208.722 22.3521 209.135 22.3521C209.547 22.3521 209.881 22.4942 210.134 22.7786C210.42 23.0313 210.563 23.363 210.563 23.7737V45.5712ZM209.135 19.1772C208.5 19.1772 208.008 19.0351 207.659 18.7508C207.31 18.4349 207.135 17.9926 207.135 17.424V16.9501C207.135 16.3815 207.31 15.955 207.659 15.6707C208.04 15.3548 208.547 15.1968 209.182 15.1968C210.452 15.1968 211.087 15.7813 211.087 16.9501V17.424C211.087 17.9926 210.912 18.4349 210.563 18.7508C210.246 19.0351 209.769 19.1772 209.135 19.1772Z" fill="#806749"/>
<path d="M245.596 22.589C248.453 22.589 250.548 23.4736 251.881 25.2426C253.246 26.9801 253.928 29.2862 253.928 32.161V45.5712C253.928 45.9819 253.785 46.3294 253.499 46.6137C253.246 46.8664 252.912 46.9928 252.5 46.9928C252.087 46.9928 251.738 46.8664 251.452 46.6137C251.198 46.3294 251.071 45.9819 251.071 45.5712V32.3031C251.071 30.2181 250.564 28.5281 249.548 27.2328C248.564 25.906 247.025 25.2426 244.93 25.2426C243.597 25.2426 242.327 25.5585 241.121 26.1903C239.947 26.8222 238.995 27.6909 238.265 28.7966C237.535 29.8707 237.17 31.0395 237.17 32.3031V45.5712C237.17 45.9819 237.027 46.3294 236.741 46.6137C236.487 46.8664 236.154 46.9928 235.742 46.9928C235.329 46.9928 234.98 46.8664 234.694 46.6137C234.44 46.3294 234.313 45.9819 234.313 45.5712V32.161C234.313 30.1076 233.837 28.4491 232.885 27.1855C231.933 25.8902 230.441 25.2426 228.41 25.2426C227.108 25.2426 225.871 25.5585 224.696 26.1903C223.554 26.8222 222.617 27.6751 221.887 28.7492C221.189 29.7917 220.84 30.9289 220.84 32.161V45.5712C220.84 45.9819 220.697 46.3294 220.412 46.6137C220.158 46.8664 219.824 46.9928 219.412 46.9928C218.999 46.9928 218.65 46.8664 218.364 46.6137C218.11 46.3294 217.983 45.9819 217.983 45.5712V24.3423C217.983 23.9316 218.11 23.5999 218.364 23.3472C218.65 23.0629 218.999 22.9207 219.412 22.9207C219.824 22.9207 220.158 23.0629 220.412 23.3472C220.697 23.5999 220.84 23.9316 220.84 24.3423V27.0907C221.697 25.7955 222.855 24.7214 224.315 23.8684C225.775 23.0155 227.315 22.589 228.933 22.589C230.774 22.589 232.361 23.0313 233.694 23.9158C235.027 24.8004 235.98 26.0956 236.551 27.8015C237.217 26.4115 238.439 25.1952 240.217 24.1528C241.994 23.1103 243.787 22.589 245.596 22.589Z" fill="#806749"/>
<path d="M281.975 33.4878C281.975 33.8669 281.832 34.1986 281.546 34.4829C281.261 34.7356 280.927 34.862 280.546 34.862H262.55C262.55 36.7574 262.931 38.4633 263.693 39.9796C264.486 41.4644 265.597 42.649 267.026 43.5336C268.486 44.3865 270.199 44.813 272.167 44.813C273.691 44.813 275.056 44.4971 276.262 43.8653C277.468 43.2335 278.436 42.4279 279.166 41.4486C279.515 41.1643 279.848 41.0221 280.165 41.0221C280.483 41.0221 280.769 41.1485 281.022 41.4012C281.276 41.6539 281.403 41.9383 281.403 42.2542C281.403 42.6017 281.245 42.9334 280.927 43.2493C279.912 44.4813 278.626 45.4922 277.071 46.282C275.547 47.0717 273.929 47.4666 272.215 47.4666C269.771 47.4666 267.613 46.9454 265.74 45.9029C263.868 44.8604 262.408 43.4072 261.36 41.5434C260.313 39.6479 259.789 37.4682 259.789 35.0041C259.789 32.4137 260.297 30.155 261.313 28.2279C262.36 26.2693 263.741 24.7846 265.454 23.7737C267.168 22.7312 268.993 22.2099 270.929 22.2099C272.834 22.2099 274.611 22.6522 276.262 23.5367C277.944 24.4213 279.309 25.7165 280.356 27.4224C281.403 29.1283 281.943 31.1501 281.975 33.4878ZM270.929 24.9583C269.089 24.9583 267.375 25.5901 265.788 26.8538C264.232 28.1174 263.233 29.9338 262.788 32.3031H279.023V31.924C278.864 30.5025 278.388 29.2704 277.595 28.2279C276.801 27.1539 275.801 26.3483 274.595 25.8113C273.421 25.2426 272.199 24.9583 270.929 24.9583Z" fill="#806749"/>
<defs>
<linearGradient id="paint0_linear" x1="10.8555" y1="4.41554" x2="57.0684" y2="61.166" gradientUnits="userSpaceOnUse">
<stop stop-color="#D7C8B1"/>
<stop offset="0.454571" stop-color="#97805D"/>
<stop offset="1" stop-color="#5C4728"/>
</linearGradient>
</defs>
</svg>
