<svg width="147" height="38" viewBox="0 0 147 38" fill="none" xmlns="http://www.w3.org/2000/svg">
<path fill-rule="evenodd" clip-rule="evenodd" d="M17.4167 36.4167C17.4167 37.2911 16.7078 38 15.8333 38C14.9589 38 14.25 37.2911 14.25 36.4167V31.5339C9.75967 30.7803 6.33333 26.8696 6.33333 22.1657C6.33333 19.9791 6.7067 19.0996 10.0058 11.3284C11.1043 8.74082 12.5272 5.38908 14.3687 0.970543C14.3721 0.970543 14.3808 0.953741 14.3959 0.924558C14.4957 0.731945 14.875 0 15.8333 0C16.7976 0 17.1715 0.734886 17.2696 0.927792C17.2845 0.956936 17.293 0.973709 17.2963 0.973709C18.891 4.81046 20.1693 7.86147 21.194 10.3071C25.311 20.1335 25.3333 20.1868 25.3333 22.1657C25.3333 26.8696 21.907 30.7803 17.4167 31.5339V36.4167ZM30.0833 36C29.2089 36 28.5 35.2911 28.5 34.4167V32.5631C26.6507 32.1878 25.0404 31.1603 23.9036 29.7369C25.7719 27.7452 26.9167 25.0869 26.9167 22.1673C26.9167 20.4843 26.866 19.9159 25.2035 15.8279C25.2567 15.7025 25.3109 15.5749 25.366 15.445C26.2612 13.3353 27.4038 10.6427 28.8626 7.1437C28.8653 7.1437 28.8723 7.13 28.8846 7.10617C28.9669 6.94685 29.2831 6.33465 30.0833 6.33465C30.884 6.33465 31.1956 6.94368 31.2791 7.10698C31.2921 7.13227 31.2995 7.14687 31.3025 7.14687C32.6322 10.3458 33.6979 12.8892 34.552 14.9276C37.9807 23.1103 38 23.1563 38 24.8066C38 28.6334 35.2767 31.8284 31.6667 32.5631V34.4167C31.6667 35.2911 30.9578 36 30.0833 36ZM0 33.2454C0 30.6236 2.128 28.4956 4.75 28.4956C7.372 28.4956 9.5 30.6236 9.5 33.2454C9.5 35.8673 7.372 37.9953 4.75 37.9953C2.128 37.9953 0 35.8673 0 33.2454ZM53.9143 19.1076C53.9143 18.5 54.14 18 54.5913 17.6076C55.0427 17.2025 55.6424 17 56.3904 17C57.1255 17 57.7187 17.2025 58.1701 17.6076C58.6214 18 58.8471 18.5 58.8471 19.1076C58.8471 19.7025 58.6214 20.1962 58.1701 20.5886C57.7187 20.981 57.1255 21.1772 56.3904 21.1772C55.6424 21.1772 55.0427 20.981 54.5913 20.5886C54.14 20.1962 53.9143 19.7025 53.9143 19.1076ZM58.5183 22.0316V32.7405H54.2238V22.0316H58.5183ZM50.1693 25.8481C50.9947 26.038 51.633 26.4304 52.0844 27.0253C52.5487 27.6076 52.7808 28.2848 52.7808 29.057C52.7808 30.2342 52.381 31.1456 51.5814 31.7911C50.7948 32.424 49.6599 32.7405 48.1768 32.7405H41V19.2975H47.9834C49.3762 19.2975 50.4724 19.5949 51.2719 20.1899C52.0715 20.7848 52.4713 21.6519 52.4713 22.7911C52.4713 23.5759 52.2585 24.2405 51.8329 24.7848C51.4202 25.3165 50.8657 25.6709 50.1693 25.8481ZM45.2945 24.538H46.9581C47.345 24.538 47.6287 24.462 47.8093 24.3101C48.0027 24.1582 48.0994 23.9241 48.0994 23.6076C48.0994 23.2785 48.0027 23.038 47.8093 22.8861C47.6287 22.7215 47.345 22.6392 46.9581 22.6392H45.2945V24.538ZM47.2483 29.3608C47.6352 29.3608 47.9189 29.2911 48.0994 29.1519C48.2929 29 48.3896 28.7595 48.3896 28.4304C48.3896 27.7848 48.0092 27.462 47.2483 27.462H45.2945V29.3608H47.2483ZM66.2225 22.3354C65.7067 22.0443 65.0941 21.8987 64.3848 21.8987C63.5336 21.8987 62.7663 22.1203 62.0828 22.5633C61.3993 22.9937 60.8576 23.6266 60.4578 24.462C60.071 25.2848 59.8775 26.2595 59.8775 27.3861C59.8775 28.5127 60.071 29.4937 60.4578 30.3291C60.8576 31.1519 61.3993 31.7848 62.0828 32.2278C62.7663 32.6582 63.5336 32.8734 64.3848 32.8734C65.0941 32.8734 65.7067 32.7342 66.2225 32.4557C66.7384 32.1646 67.1317 31.7722 67.4025 31.2785V32.5506C67.4025 33.2468 67.2607 33.7215 66.9769 33.9747C66.6932 34.2278 66.2999 34.3544 65.7969 34.3544C64.9845 34.3544 64.5202 34.076 64.4041 33.519H60.187C60.3289 34.8987 60.9092 35.9873 61.928 36.7848C62.9597 37.5949 64.3525 38 66.1064 38C67.409 38 68.4729 37.7532 69.2983 37.2595C70.1365 36.7658 70.7427 36.1076 71.1167 35.2848C71.4907 34.462 71.6777 33.5506 71.6777 32.5506V22.0316H67.4025V23.4937C67.1317 23 66.7384 22.6139 66.2225 22.3354ZM64.6749 26.057C64.9716 25.7405 65.352 25.5823 65.8163 25.5823C66.2805 25.5823 66.661 25.7405 66.9576 26.057C67.2542 26.3734 67.4025 26.8165 67.4025 27.3861C67.4025 27.9557 67.2542 28.3987 66.9576 28.7152C66.661 29.0316 66.2805 29.1899 65.8163 29.1899C65.352 29.1899 64.9716 29.0316 64.6749 28.7152C64.3783 28.3987 64.23 27.9557 64.23 27.3861C64.23 26.8165 64.3783 26.3734 64.6749 26.057ZM87.4746 28.7722C87.4746 29.5443 87.2682 30.2405 86.8555 30.8608C86.4557 31.481 85.869 31.9747 85.0952 32.3418C84.3214 32.6962 83.3993 32.8734 82.3289 32.8734C80.6911 32.8734 79.337 32.5 78.2666 31.7532C77.2091 30.9937 76.6352 29.8861 76.5449 28.4304H81.1102C81.1747 29.2025 81.5229 29.5886 82.1548 29.5886C82.3741 29.5886 82.5482 29.5316 82.6771 29.4177C82.819 29.3038 82.8899 29.1392 82.8899 28.9241C82.8899 28.6076 82.7223 28.3608 82.387 28.1835C82.0645 27.9937 81.5358 27.7785 80.8007 27.538C79.9366 27.2595 79.2145 26.9747 78.6341 26.6835C78.0667 26.3924 77.5702 25.962 77.1446 25.3924C76.719 24.8228 76.5062 24.0823 76.5062 23.1709C76.5062 22.2975 76.7319 21.557 77.1833 20.9494C77.6476 20.3291 78.273 19.8608 79.0597 19.5443C79.8593 19.2278 80.7556 19.0696 81.7486 19.0696C83.3864 19.0696 84.6889 19.443 85.6562 20.1899C86.6234 20.9367 87.1521 22.0127 87.2424 23.4177H82.6191C82.5546 22.7089 82.258 22.3544 81.7292 22.3544C81.5487 22.3544 81.4004 22.4114 81.2843 22.5253C81.1683 22.6266 81.1102 22.7848 81.1102 23C81.1102 23.2911 81.2714 23.5316 81.5938 23.7215C81.9291 23.8987 82.445 24.1076 83.1414 24.3481C84.0183 24.6519 84.7405 24.9557 85.308 25.2595C85.8883 25.5506 86.3913 25.9873 86.8168 26.5696C87.2553 27.1392 87.4746 27.8734 87.4746 28.7722ZM98.5783 22.5633C97.8948 22.1203 97.1275 21.8987 96.2763 21.8987C95.567 21.8987 94.9544 22.0443 94.4386 22.3354C93.9356 22.6139 93.5487 23 93.2779 23.4937V22.0316H88.9834V37.8671H93.2779V31.2785C93.5487 31.7722 93.9356 32.1646 94.4386 32.4557C94.9544 32.7342 95.567 32.8734 96.2763 32.8734C97.1275 32.8734 97.8948 32.6582 98.5783 32.2278C99.2618 31.7848 99.797 31.1519 100.184 30.3291C100.584 29.4937 100.784 28.5127 100.784 27.3861C100.784 26.2595 100.584 25.2848 100.184 24.462C99.797 23.6266 99.2618 22.9937 98.5783 22.5633ZM93.7035 26.057C94.0001 25.7405 94.3805 25.5823 94.8448 25.5823C95.3091 25.5823 95.6895 25.7405 95.9861 26.057C96.2828 26.3734 96.4311 26.8165 96.4311 27.3861C96.4311 27.9557 96.2828 28.3987 95.9861 28.7152C95.6895 29.0316 95.3091 29.1899 94.8448 29.1899C94.3805 29.1899 94.0001 29.0316 93.7035 28.7152C93.4069 28.3987 93.2586 27.9557 93.2586 27.3861C93.2586 26.8165 93.4069 26.3734 93.7035 26.057ZM106.426 24.0063C106.865 23.3861 107.4 22.8924 108.032 22.5253C108.664 22.1456 109.321 21.9557 110.005 21.9557V26.4557H108.786C107.974 26.4557 107.374 26.5949 106.987 26.8734C106.613 27.1519 106.426 27.6456 106.426 28.3544V32.7405H102.132V22.0316H106.426V24.0063ZM118.416 32.7405H122.71V22.0316H118.416V27.7089C118.416 28.2152 118.28 28.6203 118.01 28.9241C117.739 29.2152 117.365 29.3608 116.888 29.3608C116.423 29.3608 116.049 29.2152 115.766 28.9241C115.495 28.6203 115.359 28.2152 115.359 27.7089V22.0316H111.084V28.2405C111.084 29.6456 111.432 30.7595 112.129 31.5823C112.838 32.4051 113.818 32.8165 115.069 32.8165C115.843 32.8165 116.507 32.6582 117.062 32.3418C117.629 32.0253 118.08 31.6139 118.416 31.1076V32.7405ZM129.641 21.8987C131.059 21.8987 132.252 22.2911 133.219 23.076C134.2 23.8608 134.819 24.9494 135.077 26.3418H130.531C130.363 25.7848 130.034 25.5063 129.544 25.5063C129.196 25.5063 128.919 25.6646 128.712 25.981C128.519 26.2975 128.422 26.7658 128.422 27.3861C128.422 28.0063 128.519 28.4747 128.712 28.7911C128.919 29.1076 129.196 29.2658 129.544 29.2658C130.034 29.2658 130.363 28.9873 130.531 28.4304H135.077C134.819 29.8228 134.2 30.9114 133.219 31.6962C132.252 32.481 131.059 32.8734 129.641 32.8734C128.557 32.8734 127.59 32.6519 126.739 32.2089C125.901 31.7658 125.243 31.1329 124.766 30.3101C124.302 29.4747 124.07 28.5 124.07 27.3861C124.07 26.2722 124.302 25.3038 124.766 24.481C125.243 23.6456 125.901 23.0063 126.739 22.5633C127.59 22.1203 128.557 21.8987 129.641 21.8987ZM146.903 28.1266C146.968 27.8354 147 27.557 147 27.2911C147 26.1899 146.761 25.2342 146.284 24.4241C145.82 23.6139 145.162 22.9937 144.311 22.5633C143.473 22.1203 142.512 21.8987 141.429 21.8987C140.345 21.8987 139.378 22.1203 138.527 22.5633C137.689 23.0063 137.031 23.6456 136.554 24.481C136.09 25.3038 135.858 26.2722 135.858 27.3861C135.858 28.5 136.09 29.4747 136.554 30.3101C137.031 31.1329 137.689 31.7658 138.527 32.2089C139.378 32.6519 140.345 32.8734 141.429 32.8734C142.332 32.8734 143.157 32.7025 143.905 32.3608C144.666 32.0063 145.291 31.5316 145.781 30.9367C146.284 30.3291 146.613 29.6456 146.768 28.8861H142.222C142.016 29.3038 141.68 29.5127 141.216 29.5127C140.881 29.5127 140.61 29.4177 140.404 29.2278C140.197 29.0253 140.075 28.6582 140.036 28.1266H146.903ZM142.299 25.5063C142.531 25.6962 142.647 25.9937 142.647 26.3987H140.075C140.191 25.6013 140.642 25.2025 141.429 25.2025C141.777 25.2025 142.067 25.3038 142.299 25.5063Z" fill="white"/>
</svg>
