<svg viewBox="0 0 14 13" xmlns="http://www.w3.org/2000/svg">
<path
    d="M0 1.5C0 0.671573 0.671573 0 1.5 0H12.5C13.3284 0 14 0.671573 14 1.5C14 2.32843 13.3284 3 12.5 3H1.5C0.671573 3 0 2.32843 0 1.5Z"
    fill="black"
  />
<path
    d="M0 6.5C0 5.67157 0.671573 5 1.5 5H12.5C13.3284 5 14 5.67157 14 6.5C14 7.32843 13.3284 8 12.5 8H1.5C0.671573 8 0 7.32843 0 6.5Z"
    fill="black"
  />
<path
    d="M0 11.5C0 10.6716 0.671573 10 1.5 10H12.5C13.3284 10 14 10.6716 14 11.5C14 12.3284 13.3284 13 12.5 13H1.5C0.671573 13 0 12.3284 0 11.5Z"
    fill="black"
  />
</svg>
