<svg width="38" height="38" viewBox="0 0 38 38" fill="none" xmlns="http://www.w3.org/2000/svg">
<path fill-rule="evenodd" clip-rule="evenodd" d="M15.8333 38C16.7078 38 17.4167 37.2911 17.4167 36.4167V31.5339C21.907 30.7803 25.3333 26.8696 25.3333 22.1657C25.3333 19.6943 25.2985 20.2262 17.2963 0.973709C17.271 0.973709 16.9432 0 15.8333 0C14.7297 0 14.3941 0.970543 14.3687 0.970543C6.99675 18.6588 6.33333 19.2509 6.33333 22.1657C6.33333 26.8696 9.75967 30.7803 14.25 31.5339V36.4167C14.25 37.2911 14.9589 38 15.8333 38V38ZM28.5 34.4167C28.5 35.2911 29.2089 36 30.0833 36V36C30.9578 36 31.6667 35.2911 31.6667 34.4167V32.5631C35.2767 31.8284 38 28.6334 38 24.8066C38 22.7452 37.9699 23.187 31.3025 7.14687C31.2803 7.14687 31.008 6.33465 30.0833 6.33465C29.1634 6.33465 28.8832 7.1437 28.8626 7.1437C27.3141 10.858 26.1218 13.6636 25.2035 15.8279C26.866 19.9159 26.9167 20.4843 26.9167 22.1673C26.9167 25.0869 25.7719 27.7452 23.9036 29.7369C25.0404 31.1603 26.6507 32.1878 28.5 32.5631V34.4167ZM4.75 28.4956C2.128 28.4956 0 30.6236 0 33.2454C0 35.8673 2.128 37.9953 4.75 37.9953C7.372 37.9953 9.5 35.8673 9.5 33.2454C9.5 30.6236 7.372 28.4956 4.75 28.4956Z" fill="white"/>
</svg>
