<svg width="333" height="294" viewBox="0 0 333 294" fill="none" xmlns="http://www.w3.org/2000/svg">
<path d="M208.303 206.244C214.373 208.529 221.146 205.459 223.43 199.389L228.394 186.199C230.679 180.128 227.609 173.355 221.539 171.071L108.698 128.608C102.627 126.323 95.8542 129.393 93.5699 135.463L88.6064 148.653C86.3217 154.724 89.3915 161.497 95.4616 163.781L208.303 206.244Z" fill="#5F4D37"/>
<path d="M88.606 148.653L93.5695 135.463C95.8542 129.392 102.627 126.323 108.697 128.608L161.416 148.446V188.601L95.4612 163.781C89.3907 161.497 86.3213 154.724 88.606 148.653Z" fill="#6A563D"/>
<path d="M183.402 28.7326C183.402 28.7326 186.842 43.5189 179.115 54.0925C177.525 47.3496 172.571 38.5966 169.578 32.5936C162.625 18.649 173.156 0 173.156 0C173.156 0 153.595 4.45939 144.004 27.2965C137.981 41.6389 140.142 51.9687 145.773 67.9898C145.626 68.0044 131.516 59.6297 132.116 29.6176C132.116 29.6176 103.047 61.7859 103.047 97.1194C103.047 120.487 118.243 142.866 147.155 147.754C177.544 152.892 196.522 131.376 203.244 113.809C210.301 95.3603 215.746 60.5443 183.402 28.7326Z" fill="#FFA733"/>
<path d="M183.402 28.7326C183.402 28.7326 186.842 43.5189 179.115 54.0925C177.525 47.3496 172.128 38.7979 169.578 32.5936C163.192 17.0577 173.156 0 173.156 0C173.156 0 163.883 1.81004 155.583 10.3415V148.522C181.07 148.798 197.167 129.691 203.243 113.809C210.301 95.3603 215.746 60.5443 183.402 28.7326Z" fill="#FF9811"/>
<path d="M173.875 130.543C176.742 144.72 165.05 148.521 155.583 148.521C146.116 148.521 138.227 142.609 136.547 131.933C135.076 122.581 139.592 109.644 156.734 89.4434C156.734 114.342 170.647 114.585 173.875 130.543Z" fill="#FFDA44"/>
<path d="M173.875 130.543C170.647 114.584 156.734 114.342 156.734 89.4438C156.338 89.91 155.961 90.3668 155.583 90.8245V147.642C155.963 147.668 156.347 147.685 156.734 147.685C166.201 147.685 176.743 144.721 173.875 130.543Z" fill="#FFD422"/>
<path d="M108.697 206.244C102.627 208.529 95.8538 205.459 93.5695 199.389L88.606 186.199C86.3213 180.128 89.3911 173.355 95.4612 171.071L208.302 128.608C214.373 126.323 221.146 129.393 223.43 135.463L228.394 148.653C230.678 154.724 227.608 161.497 221.538 163.781L108.697 206.244Z" fill="#806749"/>
<path d="M228.394 148.653L223.43 135.463C221.146 129.392 214.373 126.323 208.303 128.608L155.584 148.446V188.601L221.539 163.781C227.609 161.497 230.679 154.724 228.394 148.653Z" fill="#6A563D"/>
<path d="M5.52 238.152V268.488C5.52 271.816 8.63467 273.48 14.864 273.48C21.136 273.48 24.272 271.816 24.272 268.488V263.88C24.272 262.899 25.1253 262.408 26.832 262.408C28.5387 262.408 29.392 262.899 29.392 263.88V267.848C29.392 274.589 24.6347 277.96 15.12 277.96C10.6827 277.96 7.12 277.171 4.432 275.592C1.744 273.971 0.400002 271.389 0.400002 267.848V238.792C0.400002 235.251 1.744 232.691 4.432 231.112C7.12 229.491 10.6827 228.68 15.12 228.68C24.6347 228.68 29.392 232.051 29.392 238.792V242.76C29.392 243.741 28.5387 244.232 26.832 244.232C25.1253 244.232 24.272 243.741 24.272 242.76V238.152C24.272 234.824 21.136 233.16 14.864 233.16C8.63467 233.16 5.52 234.824 5.52 238.152Z" fill="#FFF5CB"/>
<path d="M63.492 268.488V247.112C63.492 243.784 60.5693 242.12 54.724 242.12C48.9213 242.12 46.02 243.784 46.02 247.112V268.488C46.02 271.816 48.9213 273.48 54.724 273.48C60.5693 273.48 63.492 271.816 63.492 268.488ZM68.612 247.752V267.848C68.612 271.389 67.3533 273.971 64.836 275.592C62.3187 277.171 58.9693 277.96 54.788 277.96C50.6067 277.96 47.236 277.171 44.676 275.592C42.1587 273.971 40.9 271.389 40.9 267.848V247.752C40.9 244.211 42.1587 241.651 44.676 240.072C47.1933 238.451 50.5427 237.64 54.724 237.64C58.9053 237.64 62.2547 238.451 64.772 240.072C67.332 241.651 68.612 244.211 68.612 247.752Z" fill="#FFF5CB"/>
<path d="M109.112 227.272V267.848C109.112 271.389 107.853 273.971 105.336 275.592C102.819 277.171 99.4693 277.96 95.288 277.96C91.1067 277.96 87.736 277.171 85.176 275.592C82.6587 273.971 81.4 271.389 81.4 267.848V248.712C81.4 245.171 82.6587 242.611 85.176 241.032C87.6933 239.411 91.0427 238.6 95.224 238.6H100.792C101.645 238.6 102.072 239.347 102.072 240.84C102.072 242.333 101.645 243.08 100.792 243.08H95.224C89.4213 243.08 86.52 244.744 86.52 248.072V268.488C86.52 271.816 89.4213 273.48 95.224 273.48C101.069 273.48 103.992 271.816 103.992 268.488V227.272C103.992 226.291 104.845 225.8 106.552 225.8C108.259 225.8 109.112 226.291 109.112 227.272Z" fill="#FFF5CB"/>
<path d="M150.557 247.624V249.544C150.557 253.171 149.81 255.667 148.317 257.032C146.824 258.397 144.093 259.272 140.125 259.656L127.645 260.872V268.488C127.645 271.816 130.418 273.48 135.965 273.48C142.28 273.48 145.437 272.029 145.437 269.128V266.696C145.437 265.715 146.29 265.224 147.997 265.224C149.704 265.224 150.557 265.715 150.557 266.696V268.488C150.557 274.803 145.864 277.96 136.477 277.96C132.338 277.96 128.968 277.149 126.365 275.528C123.805 273.907 122.525 271.347 122.525 267.848V247.752C122.525 244.211 123.89 241.651 126.621 240.072C129.352 238.451 132.914 237.64 137.309 237.64C141.704 237.64 145.01 238.408 147.229 239.944C149.448 241.48 150.557 244.04 150.557 247.624ZM127.645 247.112V256.392L139.677 255.176C142.109 254.92 143.666 254.408 144.349 253.64C145.074 252.872 145.437 251.507 145.437 249.544V247.112C145.437 243.784 142.472 242.12 136.541 242.12C130.61 242.12 127.645 243.784 127.645 247.112Z" fill="#FFF5CB"/>
<path d="M168.457 238.152V268.488C168.457 271.816 171.572 273.48 177.802 273.48C184.074 273.48 187.209 271.816 187.209 268.488V263.88C187.209 262.899 188.063 262.408 189.77 262.408C191.476 262.408 192.33 262.899 192.33 263.88V267.848C192.33 274.589 187.572 277.96 178.058 277.96C173.62 277.96 170.057 277.171 167.369 275.592C164.681 273.971 163.338 271.389 163.338 267.848V238.792C163.338 235.251 164.681 232.691 167.369 231.112C170.057 229.491 173.62 228.68 178.058 228.68C187.572 228.68 192.33 232.051 192.33 238.792V242.76C192.33 243.741 191.476 244.232 189.77 244.232C188.063 244.232 187.209 243.741 187.209 242.76V238.152C187.209 234.824 184.074 233.16 177.802 233.16C171.572 233.16 168.457 234.824 168.457 238.152Z" fill="#FFF5CB"/>
<path d="M220.67 277H213.181C209.427 277 206.718 276.232 205.054 274.696C203.39 273.16 202.558 270.557 202.558 266.888V266.376C202.558 262.749 203.304 260.253 204.798 258.888C206.291 257.523 208.958 256.648 212.798 256.264L223.869 255.176V248.072C223.869 244.744 220.968 243.08 215.166 243.08H206.397C205.544 243.08 205.118 242.333 205.118 240.84C205.118 239.347 205.544 238.6 206.397 238.6H215.166C219.347 238.6 222.696 239.411 225.214 241.032C227.731 242.611 228.99 245.171 228.99 248.712V267.592C228.99 270.365 229.48 272.563 230.462 274.184C230.76 274.696 230.91 275.016 230.91 275.144C230.91 275.656 230.504 276.211 229.694 276.808C228.883 277.363 228.2 277.64 227.646 277.64C226.707 277.64 225.832 276.765 225.022 275.016C224.254 273.224 223.869 270.963 223.869 268.232V259.656L213.181 260.744C210.877 261 209.384 261.512 208.701 262.28C208.019 263.048 207.677 264.413 207.677 266.376V266.888C207.677 268.936 208.019 270.387 208.701 271.24C209.427 272.093 210.92 272.52 213.181 272.52H220.67C221.523 272.52 221.95 273.267 221.95 274.76C221.95 276.253 221.523 277 220.67 277Z" fill="#FFF5CB"/>
<path d="M243.04 275.848V247.752C243.04 244.253 244.256 241.693 246.688 240.072C249.163 238.451 252.576 237.64 256.928 237.64C261.28 237.64 264.608 238.771 266.912 241.032C269.173 238.771 272.48 237.64 276.832 237.64C286.133 237.64 290.784 241.011 290.784 247.752V275.848C290.784 276.829 289.931 277.32 288.224 277.32C286.517 277.32 285.664 276.829 285.664 275.848V247.112C285.664 243.784 282.955 242.12 277.536 242.12C272.16 242.12 269.472 243.827 269.472 247.24V275.848C269.472 276.829 268.619 277.32 266.912 277.32C265.205 277.32 264.352 276.829 264.352 275.848V247.112C264.352 243.784 261.643 242.12 256.224 242.12C250.848 242.12 248.16 243.784 248.16 247.112V275.848C248.16 276.829 247.307 277.32 245.6 277.32C243.893 277.32 243.04 276.829 243.04 275.848Z" fill="#FFF5CB"/>
<path d="M313.172 272.52H318.741C324.543 272.52 327.444 270.856 327.444 267.528V247.112C327.444 243.784 324.522 242.12 318.676 242.12C312.874 242.12 309.973 243.784 309.973 247.112V291.848C309.973 292.829 309.119 293.32 307.413 293.32C305.706 293.32 304.853 292.829 304.853 291.848V247.752C304.853 244.211 306.111 241.651 308.629 240.072C311.146 238.451 314.495 237.64 318.676 237.64C322.858 237.64 326.207 238.451 328.724 240.072C331.284 241.651 332.564 244.211 332.564 247.752V266.888C332.564 270.429 331.306 273.011 328.788 274.632C326.271 276.211 322.922 277 318.741 277H313.172C312.319 277 311.892 276.253 311.892 274.76C311.892 273.267 312.319 272.52 313.172 272.52Z" fill="#FFF5CB"/>
</svg>
