<svg width="769" height="546" viewBox="0 0 769 546" fill="none" xmlns="http://www.w3.org/2000/svg">
<path d="M128.662 33.1782L129.004 32.5866L129.004 32.5862L128.662 33.1782ZM76.6374 3.14188L76.9792 2.54993L76.9786 2.54958L76.6374 3.14188ZM61.6176 3.17559L61.2748 2.58423L61.2722 2.58576L61.6176 3.17559ZM9.21852 33.8609L9.56131 34.4522L9.56393 34.4507L9.21852 33.8609ZM1.67934 46.919L2.36286 46.9232L2.36286 46.9202L1.67934 46.919ZM1.3047 107.641L0.621189 107.636L0.621184 107.639L1.3047 107.641ZM8.7854 120.665L8.44302 121.257L8.44363 121.257L8.7854 120.665ZM60.8098 150.701L60.468 151.293L60.4687 151.294L60.8098 150.701ZM75.8297 150.668L76.1725 151.259L76.1751 151.257L75.8297 150.668ZM128.229 119.982L127.886 119.391L127.883 119.393L128.229 119.982ZM135.768 106.924L135.084 106.92L135.084 106.923L135.768 106.924ZM136.143 46.2026L136.826 46.2068L136.826 46.2038L136.143 46.2026ZM0.759274 76.4631C0.432617 76.6523 0.321193 77.0705 0.510402 77.3971C0.699611 77.7238 1.1178 77.8352 1.44446 77.646L0.759274 76.4631ZM34.9728 57.4355L35.3154 58.027C35.5261 57.905 35.656 57.68 35.6563 57.4365L34.9728 57.4355ZM35.7114 18.2939C35.7119 17.9164 35.4063 17.61 35.0288 17.6094C34.6513 17.6089 34.3449 17.9145 34.3444 18.292L35.7114 18.2939ZM102.078 136.142C102.405 136.331 102.823 136.219 103.011 135.892C103.2 135.565 103.088 135.147 102.761 134.958L102.078 136.142ZM68.6685 116.064L69.0103 115.472C68.7985 115.35 68.5376 115.35 68.326 115.473L68.6685 116.064ZM34.455 135.092C34.1283 135.281 34.0169 135.699 34.2061 136.026C34.3953 136.352 34.8135 136.464 35.1402 136.275L34.455 135.092ZM103.333 18.161C103.334 17.7835 103.028 17.477 102.651 17.4765C102.273 17.4759 101.967 17.7815 101.966 18.159L103.333 18.161ZM102.594 57.3026L101.911 57.3016C101.911 57.5462 102.041 57.7723 102.253 57.8945L102.594 57.3026ZM136.004 77.3806C136.331 77.5693 136.749 77.4573 136.937 77.1304C137.126 76.8035 137.014 76.3854 136.687 76.1967L136.004 77.3806ZM2.69775 114.406C2.371 114.595 2.25936 115.013 2.4484 115.34C2.63744 115.666 3.05558 115.778 3.38233 115.589L2.69775 114.406ZM68.7887 76.9591L69.131 77.5508C69.342 77.4287 69.472 77.2035 69.4722 76.9598L68.7887 76.9591ZM69.54 1.00061C69.5403 0.623111 69.2346 0.316815 68.8571 0.316479C68.4796 0.316142 68.1733 0.621892 68.1729 0.99939L69.54 1.00061ZM133.933 115.359C134.26 115.548 134.678 115.436 134.866 115.109C135.055 114.782 134.943 114.364 134.616 114.175L133.933 115.359ZM69.0654 76.3296C68.7385 76.1409 68.3204 76.2529 68.1317 76.5798C67.9429 76.9067 68.0549 77.3248 68.3819 77.5135L69.0654 76.3296ZM511.462 92.0841L511.804 91.4925L511.803 91.4921L511.462 92.0841ZM401.127 28.3823L401.469 27.7904L401.468 27.79L401.127 28.3823ZM369.273 28.4538L368.93 27.8625L368.927 27.864L369.273 28.4538ZM258.143 93.5319L258.486 94.1233L258.489 94.1218L258.143 93.5319ZM242.154 121.226L242.838 121.23L242.838 121.227L242.154 121.226ZM241.359 250.006L240.676 250.002L240.676 250.005L241.359 250.006ZM257.225 277.628L256.882 278.22L256.883 278.22L257.225 277.628ZM367.559 341.33L367.218 341.922L367.218 341.922L367.559 341.33ZM399.414 341.259L399.757 341.85L399.759 341.848L399.414 341.259ZM510.543 276.18L510.2 275.589L510.198 275.591L510.543 276.18ZM526.532 248.486L525.849 248.482L525.849 248.485L526.532 248.486ZM527.327 119.707L528.01 119.711L528.01 119.708L527.327 119.707ZM240.587 184.547C240.26 184.736 240.149 185.154 240.338 185.481C240.527 185.807 240.945 185.919 241.272 185.73L240.587 184.547ZM312.764 143.53L313.106 144.121C313.317 143.999 313.447 143.774 313.447 143.531L312.764 143.53ZM313.564 60.5161C313.564 60.1386 313.259 59.8321 312.881 59.8316C312.504 59.8311 312.197 60.1366 312.197 60.5141L313.564 60.5161ZM455.464 309.789C455.791 309.978 456.209 309.866 456.398 309.539C456.587 309.212 456.475 308.794 456.148 308.605L455.464 309.789ZM384.226 267.871L384.568 267.279C384.356 267.156 384.095 267.157 383.884 267.279L384.226 267.871ZM312.049 308.888C311.723 309.077 311.611 309.495 311.801 309.822C311.99 310.148 312.408 310.26 312.735 310.071L312.049 308.888ZM456.978 60.2341C456.978 59.8566 456.673 59.5501 456.295 59.5496C455.918 59.5491 455.611 59.8547 455.611 60.2322L456.978 60.2341ZM456.177 143.248L455.494 143.247C455.494 143.491 455.624 143.717 455.836 143.84L456.177 143.248ZM527.415 185.166C527.742 185.355 528.16 185.243 528.349 184.916C528.538 184.589 528.426 184.171 528.099 183.982L527.415 185.166ZM244.698 265.017C244.371 265.206 244.259 265.624 244.448 265.951C244.637 266.277 245.055 266.389 245.382 266.2L244.698 265.017ZM384.481 184.936L384.823 185.527C385.034 185.405 385.164 185.18 385.165 184.936L384.481 184.936ZM385.309 23.8404C385.309 23.4629 385.003 23.1566 384.626 23.1563C384.248 23.1559 383.942 23.4617 383.941 23.8392L385.309 23.8404ZM523.023 265.712C523.35 265.901 523.768 265.789 523.957 265.462C524.146 265.135 524.034 264.717 523.707 264.528L523.023 265.712ZM384.685 184.264C384.358 184.075 383.94 184.187 383.751 184.514C383.562 184.841 383.674 185.259 384.001 185.448L384.685 184.264ZM759.901 33.1782L760.243 32.5866L760.243 32.5862L759.901 33.1782ZM707.877 3.14188L708.218 2.54993L708.218 2.54958L707.877 3.14188ZM692.857 3.17559L692.514 2.58423L692.511 2.58576L692.857 3.17559ZM640.458 33.8609L640.8 34.4522L640.803 34.4507L640.458 33.8609ZM632.918 46.919L633.602 46.9232L633.602 46.9202L632.918 46.919ZM632.544 107.641L631.86 107.636L631.86 107.639L632.544 107.641ZM640.025 120.665L639.682 121.257L639.683 121.257L640.025 120.665ZM692.049 150.701L691.707 151.293L691.708 151.294L692.049 150.701ZM707.069 150.668L707.412 151.259L707.414 151.257L707.069 150.668ZM759.468 119.982L759.125 119.391L759.122 119.393L759.468 119.982ZM767.007 106.924L766.323 106.92L766.323 106.923L767.007 106.924ZM767.382 46.2026L768.065 46.2068L768.065 46.2038L767.382 46.2026ZM631.999 76.4631C631.672 76.6523 631.56 77.0705 631.75 77.3971C631.939 77.7238 632.357 77.8352 632.684 77.646L631.999 76.4631ZM666.212 57.4355L666.554 58.027C666.765 57.905 666.895 57.68 666.895 57.4365L666.212 57.4355ZM666.95 18.2939C666.951 17.9164 666.645 17.61 666.268 17.6094C665.89 17.6089 665.584 17.9145 665.583 18.292L666.95 18.2939ZM733.317 136.142C733.644 136.331 734.062 136.219 734.25 135.892C734.439 135.565 734.327 135.147 734 134.958L733.317 136.142ZM699.908 116.064L700.249 115.472C700.038 115.35 699.777 115.35 699.565 115.473L699.908 116.064ZM665.694 135.092C665.368 135.281 665.256 135.699 665.445 136.026C665.635 136.352 666.053 136.464 666.38 136.275L665.694 135.092ZM734.572 18.161C734.573 17.7835 734.267 17.477 733.89 17.4765C733.512 17.4759 733.206 17.7815 733.205 18.159L734.572 18.161ZM733.834 57.3026L733.15 57.3016C733.15 57.5462 733.28 57.7723 733.492 57.8945L733.834 57.3026ZM767.243 77.3806C767.57 77.5693 767.988 77.4573 768.177 77.1304C768.365 76.8035 768.253 76.3854 767.926 76.1967L767.243 77.3806ZM633.937 114.406C633.61 114.595 633.499 115.013 633.688 115.34C633.877 115.666 634.295 115.778 634.621 115.589L633.937 114.406ZM700.028 76.9591L700.37 77.5508C700.581 77.4287 700.711 77.2035 700.711 76.9598L700.028 76.9591ZM700.779 1.00061C700.779 0.623111 700.474 0.316815 700.096 0.316479C699.719 0.316142 699.412 0.621892 699.412 0.99939L700.779 1.00061ZM765.172 115.359C765.499 115.548 765.917 115.436 766.106 115.109C766.294 114.782 766.182 114.364 765.855 114.175L765.172 115.359ZM700.304 76.3296C699.978 76.1409 699.559 76.2529 699.371 76.5798C699.182 76.9067 699.294 77.3248 699.621 77.5135L700.304 76.3296ZM306.74 291.518L307.082 290.926L307.082 290.926L306.74 291.518ZM196.405 227.816L196.747 227.224L196.746 227.224L196.405 227.816ZM164.551 227.888L164.208 227.296L164.205 227.298L164.551 227.888ZM53.4216 292.966L53.7644 293.557L53.7671 293.556L53.4216 292.966ZM37.4325 320.66L38.116 320.664L38.116 320.661L37.4325 320.66ZM36.6378 449.44L35.9543 449.435L35.9543 449.438L36.6378 449.44ZM52.5032 477.062L52.1608 477.654L52.1614 477.654L52.5032 477.062ZM162.838 540.764L162.496 541.356L162.497 541.356L162.838 540.764ZM194.692 540.692L195.035 541.284L195.038 541.282L194.692 540.692ZM305.822 475.614L305.479 475.023L305.476 475.024L305.822 475.614ZM321.811 447.92L321.127 447.916L321.127 447.919L321.811 447.92ZM322.605 319.14L323.289 319.145L323.289 319.142L322.605 319.14ZM35.8651 383.98C35.5384 384.17 35.427 384.588 35.6162 384.914C35.8054 385.241 36.2236 385.353 36.5503 385.163L35.8651 383.98ZM108.042 342.963L108.385 343.555C108.595 343.433 108.725 343.208 108.725 342.964L108.042 342.963ZM108.842 259.95C108.843 259.572 108.537 259.266 108.16 259.265C107.782 259.265 107.476 259.57 107.475 259.948L108.842 259.95ZM250.743 509.223C251.069 509.412 251.487 509.3 251.676 508.973C251.865 508.646 251.753 508.228 251.426 508.039L250.743 509.223ZM179.505 467.304L179.846 466.713C179.635 466.59 179.374 466.59 179.162 466.713L179.505 467.304ZM107.328 508.321C107.001 508.511 106.89 508.929 107.079 509.255C107.268 509.582 107.686 509.694 108.013 509.504L107.328 508.321ZM252.256 259.668C252.257 259.29 251.951 258.984 251.574 258.983C251.196 258.983 250.89 259.288 250.889 259.666L252.256 259.668ZM251.456 342.681L250.772 342.681C250.772 342.925 250.902 343.151 251.114 343.273L251.456 342.681ZM322.694 384.6C323.021 384.789 323.439 384.677 323.627 384.35C323.816 384.023 323.704 383.605 323.377 383.416L322.694 384.6ZM39.9759 464.45C39.6491 464.64 39.5375 465.058 39.7265 465.384C39.9156 465.711 40.3337 465.823 40.6605 465.634L39.9759 464.45ZM179.76 384.37L180.102 384.961C180.313 384.839 180.443 384.614 180.443 384.37L179.76 384.37ZM180.587 223.274C180.587 222.897 180.281 222.59 179.904 222.59C179.526 222.59 179.22 222.895 179.22 223.273L180.587 223.274ZM318.301 465.146C318.628 465.335 319.046 465.223 319.235 464.896C319.424 464.569 319.312 464.151 318.985 463.962L318.301 465.146ZM179.963 383.698C179.636 383.509 179.218 383.621 179.03 383.948C178.841 384.275 178.953 384.693 179.28 384.882L179.963 383.698ZM555.179 232.612L555.522 232.02L555.521 232.02L555.179 232.612ZM503.155 202.576L503.497 201.984L503.496 201.983L503.155 202.576ZM488.135 202.609L487.792 202.018L487.79 202.02L488.135 202.609ZM435.736 233.295L436.079 233.886L436.081 233.885L435.736 233.295ZM428.197 246.353L428.88 246.357L428.88 246.354L428.197 246.353ZM427.822 307.074L427.139 307.07L427.139 307.073L427.822 307.074ZM435.303 320.099L434.96 320.69L434.961 320.691L435.303 320.099ZM487.327 350.135L486.985 350.727L486.986 350.727L487.327 350.135ZM502.347 350.101L502.69 350.693L502.692 350.691L502.347 350.101ZM554.746 319.416L554.403 318.825L554.401 318.826L554.746 319.416ZM562.285 306.358L561.602 306.354L561.602 306.357L562.285 306.358ZM562.66 245.636L563.344 245.641L563.344 245.638L562.66 245.636ZM427.277 275.897C426.95 276.086 426.839 276.504 427.028 276.831C427.217 277.158 427.635 277.269 427.962 277.08L427.277 275.897ZM461.49 256.869L461.833 257.461C462.044 257.339 462.173 257.114 462.174 256.87L461.49 256.869ZM462.229 217.728C462.229 217.35 461.924 217.044 461.546 217.043C461.169 217.043 460.862 217.348 460.862 217.726L462.229 217.728ZM528.595 335.576C528.922 335.765 529.34 335.653 529.529 335.326C529.717 334.999 529.605 334.581 529.279 334.392L528.595 335.576ZM495.186 315.498L495.528 314.906C495.316 314.784 495.055 314.784 494.843 314.906L495.186 315.498ZM460.972 334.525C460.646 334.715 460.534 335.133 460.724 335.46C460.913 335.786 461.331 335.898 461.658 335.708L460.972 334.525ZM529.85 217.595C529.851 217.217 529.545 216.911 529.168 216.91C528.79 216.91 528.484 217.215 528.483 217.593L529.85 217.595ZM529.112 256.736L528.428 256.735C528.428 256.98 528.558 257.206 528.77 257.328L529.112 256.736ZM562.521 276.814C562.848 277.003 563.266 276.891 563.455 276.564C563.643 276.237 563.531 275.819 563.205 275.63L562.521 276.814ZM429.215 313.84C428.888 314.029 428.777 314.447 428.966 314.774C429.155 315.1 429.573 315.212 429.9 315.023L429.215 313.84ZM495.306 276.393L495.648 276.985C495.859 276.862 495.989 276.637 495.99 276.394L495.306 276.393ZM496.057 200.434C496.058 200.057 495.752 199.751 495.374 199.75C494.997 199.75 494.691 200.056 494.69 200.433L496.057 200.434ZM560.45 314.793C560.777 314.982 561.195 314.87 561.384 314.543C561.572 314.216 561.46 313.798 561.134 313.609L560.45 314.793ZM495.583 275.763C495.256 275.575 494.838 275.687 494.649 276.014C494.46 276.341 494.572 276.759 494.899 276.947L495.583 275.763ZM759.901 232.612L760.243 232.02L760.243 232.02L759.901 232.612ZM707.877 202.576L708.218 201.984L708.218 201.983L707.877 202.576ZM692.857 202.609L692.514 202.018L692.511 202.02L692.857 202.609ZM640.458 233.295L640.8 233.886L640.803 233.885L640.458 233.295ZM632.918 246.353L633.602 246.357L633.602 246.354L632.918 246.353ZM632.544 307.074L631.86 307.07L631.86 307.073L632.544 307.074ZM640.025 320.099L639.682 320.69L639.683 320.691L640.025 320.099ZM692.049 350.135L691.707 350.727L691.708 350.727L692.049 350.135ZM707.069 350.101L707.412 350.693L707.414 350.691L707.069 350.101ZM759.468 319.416L759.125 318.825L759.122 318.826L759.468 319.416ZM767.007 306.358L766.323 306.354L766.323 306.357L767.007 306.358ZM767.382 245.636L768.065 245.641L768.065 245.638L767.382 245.636ZM631.999 275.897C631.672 276.086 631.56 276.504 631.75 276.831C631.939 277.158 632.357 277.269 632.684 277.08L631.999 275.897ZM666.212 256.869L666.554 257.461C666.765 257.339 666.895 257.114 666.895 256.87L666.212 256.869ZM666.95 217.728C666.951 217.35 666.645 217.044 666.268 217.043C665.89 217.043 665.584 217.348 665.583 217.726L666.95 217.728ZM733.317 335.576C733.644 335.765 734.062 335.653 734.25 335.326C734.439 334.999 734.327 334.581 734 334.392L733.317 335.576ZM699.908 315.498L700.249 314.906C700.038 314.784 699.777 314.784 699.565 314.906L699.908 315.498ZM665.694 334.525C665.368 334.715 665.256 335.133 665.445 335.46C665.635 335.786 666.053 335.898 666.38 335.708L665.694 334.525ZM734.572 217.595C734.573 217.217 734.267 216.911 733.89 216.91C733.512 216.91 733.206 217.215 733.205 217.593L734.572 217.595ZM733.834 256.736L733.15 256.735C733.15 256.98 733.28 257.206 733.492 257.328L733.834 256.736ZM767.243 276.814C767.57 277.003 767.988 276.891 768.177 276.564C768.365 276.237 768.253 275.819 767.926 275.63L767.243 276.814ZM633.937 313.84C633.61 314.029 633.499 314.447 633.688 314.774C633.877 315.1 634.295 315.212 634.621 315.023L633.937 313.84ZM700.028 276.393L700.37 276.985C700.581 276.862 700.711 276.637 700.711 276.394L700.028 276.393ZM700.779 200.434C700.779 200.057 700.474 199.751 700.096 199.75C699.719 199.75 699.412 200.056 699.412 200.433L700.779 200.434ZM765.172 314.793C765.499 314.982 765.917 314.87 766.106 314.543C766.294 314.216 766.182 313.798 765.855 313.609L765.172 314.793ZM700.304 275.763C699.978 275.575 699.559 275.687 699.371 276.014C699.182 276.341 699.294 276.759 699.621 276.947L700.304 275.763ZM129.004 32.5862L76.9792 2.54993L76.2957 3.73382L128.32 33.7701L129.004 32.5862ZM76.9786 2.54958C74.5921 1.17503 71.8848 0.454797 69.1284 0.460984L69.1315 1.82802C71.6476 1.82238 74.1185 2.4798 76.2963 3.73418L76.9786 2.54958ZM69.1284 0.460984C66.372 0.467171 63.6636 1.19953 61.2748 2.58423L61.9603 3.76695C64.1422 2.50221 66.6153 1.83367 69.1315 1.82802L69.1284 0.460984ZM61.2722 2.58576L8.87311 33.2711L9.56393 34.4507L61.963 3.76542L61.2722 2.58576ZM8.87574 33.2695C6.48456 34.6556 4.49763 36.6465 3.11451 39.0422L4.29841 39.7257C5.56207 37.537 7.37725 35.7182 9.5613 34.4522L8.87574 33.2695ZM3.11451 39.0422C1.7314 41.4378 1.00059 44.154 0.995819 46.9178L2.36286 46.9202C2.36722 44.3958 3.03474 41.9144 4.29841 39.7257L3.11451 39.0422ZM0.995831 46.9148L0.621196 107.636L1.98821 107.645L2.36285 46.9232L0.995831 46.9148ZM0.621184 107.639C0.616414 110.401 1.33632 113.112 2.70916 115.502L3.89458 114.822C2.6414 112.64 1.98387 110.164 1.98823 107.642L0.621184 107.639ZM2.70916 115.502C4.082 117.893 6.0594 119.877 8.44302 121.257L9.12777 120.073C6.95253 118.815 5.14775 117.003 3.89458 114.822L2.70916 115.502ZM8.44363 121.257L60.468 151.293L61.1516 150.109L9.12716 120.073L8.44363 121.257ZM60.4687 151.294C62.8551 152.668 65.5624 153.388 68.3188 153.382L68.3157 152.015C65.7996 152.021 63.3288 151.363 61.151 150.109L60.4687 151.294ZM68.3188 153.382C71.0752 153.376 73.7836 152.644 76.1725 151.259L75.4869 150.076C73.305 151.341 70.8319 152.01 68.3157 152.015L68.3188 153.382ZM76.1751 151.257L128.574 120.572L127.883 119.393L75.4843 150.078L76.1751 151.257ZM128.572 120.574C130.963 119.188 132.95 117.197 134.333 114.801L133.149 114.118C131.885 116.306 130.07 118.125 127.886 119.391L128.572 120.574ZM134.333 114.801C135.716 112.405 136.447 109.689 136.451 106.925L135.084 106.923C135.08 109.447 134.413 111.929 133.149 114.118L134.333 114.801ZM136.451 106.928L136.826 46.2068L135.459 46.1984L135.084 106.92L136.451 106.928ZM136.826 46.2038C136.831 43.4426 136.111 40.7309 134.738 38.3407L133.553 39.0216C134.806 41.2035 135.463 43.6795 135.459 46.2014L136.826 46.2038ZM134.738 38.3407C133.365 35.9505 131.388 33.9661 129.004 32.5866L128.319 33.7698C130.495 35.0286 132.299 36.8397 133.553 39.0216L134.738 38.3407ZM1.44446 77.646L35.3154 58.027L34.6302 56.8441L0.759274 76.4631L1.44446 77.646ZM35.6563 57.4365L35.7114 18.2939L34.3444 18.292L34.2893 57.4346L35.6563 57.4365ZM102.761 134.958L69.0103 115.472L68.3268 116.656L102.078 136.142L102.761 134.958ZM68.326 115.473L34.455 135.092L35.1402 136.275L69.0111 116.656L68.326 115.473ZM101.966 18.159L101.911 57.3016L103.278 57.3035L103.333 18.161L101.966 18.159ZM102.253 57.8945L136.004 77.3806L136.687 76.1967L102.936 56.7106L102.253 57.8945ZM3.38233 115.589L69.131 77.5508L68.4464 76.3675L2.69775 114.406L3.38233 115.589ZM69.4722 76.9598L69.54 1.00061L68.1729 0.99939L68.1052 76.9585L69.4722 76.9598ZM134.616 114.175L69.0654 76.3296L68.3819 77.5135L133.933 115.359L134.616 114.175ZM511.803 91.4921L401.469 27.7904L400.785 28.9743L511.12 92.676L511.803 91.4921ZM401.468 27.79C396.524 24.9422 390.915 23.4499 385.203 23.4627L385.207 24.8298C390.677 24.8175 396.05 26.247 400.786 28.9746L401.468 27.79ZM385.203 23.4627C379.492 23.4756 373.88 24.993 368.93 27.8625L369.615 29.0452C374.359 26.2957 379.736 24.8421 385.207 24.8298L385.203 23.4627ZM368.927 27.864L257.798 92.9421L258.489 94.1218L369.618 29.0437L368.927 27.864ZM257.801 92.9406C252.845 95.8129 248.728 99.9388 245.861 104.904L247.045 105.587C249.792 100.829 253.738 96.8755 258.486 94.1233L257.801 92.9406ZM245.861 104.904C242.995 109.868 241.48 115.497 241.471 121.225L242.838 121.227C242.847 115.739 244.298 110.345 247.045 105.587L245.861 104.904ZM241.471 121.222L240.676 250.002L242.043 250.01L242.838 121.23L241.471 121.222ZM240.676 250.005C240.666 255.726 242.158 261.345 245.003 266.298L246.188 265.617C243.463 260.873 242.034 255.49 242.043 250.007L240.676 250.005ZM245.003 266.298C247.847 271.25 251.944 275.362 256.882 278.22L257.567 277.037C252.837 274.299 248.913 270.361 246.188 265.617L245.003 266.298ZM256.883 278.22L367.218 341.922L367.901 340.738L257.567 277.036L256.883 278.22ZM367.218 341.922C372.163 344.77 377.772 346.262 383.483 346.25L383.48 344.883C378.009 344.895 372.636 343.465 367.901 340.738L367.218 341.922ZM383.483 346.25C389.194 346.237 394.806 344.719 399.757 341.85L399.071 340.667C394.328 343.417 388.951 344.87 383.48 344.883L383.483 346.25ZM399.759 341.848L510.889 276.77L510.198 275.591L399.069 340.669L399.759 341.848ZM510.886 276.772C515.841 273.899 519.959 269.774 522.825 264.809L521.641 264.125C518.894 268.883 514.948 272.837 510.2 275.589L510.886 276.772ZM522.825 264.809C525.692 259.844 527.206 254.215 527.216 248.488L525.849 248.485C525.839 253.973 524.388 259.367 521.641 264.125L522.825 264.809ZM527.216 248.491L528.01 119.711L526.643 119.702L525.849 248.482L527.216 248.491ZM528.01 119.708C528.02 113.986 526.528 108.367 523.684 103.414L522.498 104.095C525.223 108.839 526.653 114.223 526.643 119.705L528.01 119.708ZM523.684 103.414C520.839 98.462 516.742 94.3505 511.804 91.4925L511.119 92.6757C515.849 95.4131 519.774 99.3512 522.498 104.095L523.684 103.414ZM241.272 185.73L313.106 144.121L312.421 142.938L240.587 184.547L241.272 185.73ZM313.447 143.531L313.564 60.5161L312.197 60.5141L312.08 143.529L313.447 143.531ZM456.148 308.605L384.568 267.279L383.885 268.463L455.464 309.789L456.148 308.605ZM383.884 267.279L312.049 308.888L312.735 310.071L384.569 268.462L383.884 267.279ZM455.611 60.2322L455.494 143.247L456.861 143.249L456.978 60.2341L455.611 60.2322ZM455.836 143.84L527.415 185.166L528.099 183.982L456.519 142.656L455.836 143.84ZM245.382 266.2L384.823 185.527L384.139 184.344L244.698 265.017L245.382 266.2ZM385.165 184.936L385.309 23.8404L383.941 23.8392L383.798 184.935L385.165 184.936ZM523.707 264.528L384.685 184.264L384.001 185.448L523.023 265.712L523.707 264.528ZM760.243 32.5862L708.218 2.54993L707.535 3.73382L759.559 33.7701L760.243 32.5862ZM708.218 2.54958C705.831 1.17503 703.124 0.454797 700.368 0.460984L700.371 1.82802C702.887 1.82238 705.358 2.4798 707.535 3.73418L708.218 2.54958ZM700.368 0.460984C697.611 0.467171 694.903 1.19953 692.514 2.58423L693.2 3.76695C695.381 2.50221 697.855 1.83367 700.371 1.82802L700.368 0.460984ZM692.511 2.58576L640.112 33.2711L640.803 34.4507L693.202 3.76542L692.511 2.58576ZM640.115 33.2695C637.724 34.6556 635.737 36.6465 634.354 39.0422L635.538 39.7257C636.801 37.5369 638.616 35.7182 640.8 34.4522L640.115 33.2695ZM634.354 39.0422C632.971 41.4378 632.24 44.154 632.235 46.9178L633.602 46.9202C633.606 44.3958 634.274 41.9144 635.538 39.7257L634.354 39.0422ZM632.235 46.9148L631.86 107.636L633.227 107.645L633.602 46.9232L632.235 46.9148ZM631.86 107.639C631.855 110.401 632.576 113.112 633.948 115.502L635.134 114.822C633.881 112.64 633.223 110.164 633.227 107.642L631.86 107.639ZM633.948 115.502C635.321 117.893 637.299 119.877 639.682 121.257L640.367 120.073C638.192 118.815 636.387 117.003 635.134 114.822L633.948 115.502ZM639.683 121.257L691.707 151.293L692.391 150.109L640.366 120.073L639.683 121.257ZM691.708 151.294C694.094 152.668 696.802 153.388 699.558 153.382L699.555 152.015C697.039 152.021 694.568 151.363 692.39 150.109L691.708 151.294ZM699.558 153.382C702.314 153.376 705.023 152.644 707.412 151.259L706.726 150.076C704.544 151.341 702.071 152.01 699.555 152.015L699.558 153.382ZM707.414 151.257L759.813 120.572L759.122 119.393L706.723 150.078L707.414 151.257ZM759.811 120.574C762.202 119.188 764.189 117.197 765.572 114.801L764.388 114.118C763.124 116.306 761.309 118.125 759.125 119.391L759.811 120.574ZM765.572 114.801C766.955 112.405 767.686 109.689 767.69 106.925L766.323 106.923C766.319 109.447 765.652 111.929 764.388 114.118L765.572 114.801ZM767.69 106.928L768.065 46.2068L766.698 46.1984L766.323 106.92L767.69 106.928ZM768.065 46.2038C768.07 43.4427 767.35 40.7309 765.977 38.3407L764.792 39.0216C766.045 41.2035 766.703 43.6795 766.698 46.2014L768.065 46.2038ZM765.977 38.3407C764.604 35.9505 762.627 33.9661 760.243 32.5866L759.559 33.7698C761.734 35.0286 763.539 36.8397 764.792 39.0216L765.977 38.3407ZM632.684 77.646L666.554 58.027L665.869 56.8441L631.999 76.4631L632.684 77.646ZM666.895 57.4365L666.95 18.2939L665.583 18.292L665.528 57.4346L666.895 57.4365ZM734 134.958L700.249 115.472L699.566 116.656L733.317 136.142L734 134.958ZM699.565 115.473L665.694 135.092L666.38 136.275L700.25 116.656L699.565 115.473ZM733.205 18.159L733.15 57.3016L734.517 57.3035L734.572 18.161L733.205 18.159ZM733.492 57.8945L767.243 77.3806L767.926 76.1967L734.175 56.7106L733.492 57.8945ZM634.621 115.589L700.37 77.5508L699.685 76.3675L633.937 114.406L634.621 115.589ZM700.711 76.9598L700.779 1.00061L699.412 0.99939L699.344 76.9585L700.711 76.9598ZM765.855 114.175L700.304 76.3296L699.621 77.5135L765.172 115.359L765.855 114.175ZM307.082 290.926L196.747 227.224L196.064 228.408L306.398 292.11L307.082 290.926ZM196.746 227.224C191.802 224.376 186.193 222.884 180.482 222.897L180.485 224.264C185.956 224.251 191.328 225.681 196.064 228.408L196.746 227.224ZM180.482 222.897C174.771 222.909 169.158 224.427 164.208 227.296L164.894 228.479C169.637 225.729 175.014 224.276 180.485 224.264L180.482 222.897ZM164.205 227.298L53.0762 292.376L53.7671 293.556L164.896 228.477L164.205 227.298ZM53.0789 292.374C48.1237 295.247 44.006 299.373 41.1396 304.337L42.3235 305.021C45.0704 300.263 49.0164 296.309 53.7644 293.557L53.0789 292.374ZM41.1396 304.337C38.2732 309.302 36.7588 314.931 36.749 320.659L38.116 320.661C38.1255 315.173 39.5765 309.779 42.3235 305.021L41.1396 304.337ZM36.749 320.656L35.9543 449.435L37.3213 449.444L38.116 320.664L36.749 320.656ZM35.9543 449.438C35.9444 455.16 37.4364 460.779 40.2809 465.732L41.4663 465.051C38.7415 460.307 37.3119 454.923 37.3213 449.441L35.9543 449.438ZM40.2809 465.732C43.1254 470.684 47.2223 474.796 52.1608 477.654L52.8455 476.47C48.1155 473.733 44.1911 469.795 41.4663 465.051L40.2809 465.732ZM52.1614 477.654L162.496 541.356L163.18 540.172L52.8449 476.47L52.1614 477.654ZM162.497 541.356C167.441 544.204 173.05 545.696 178.761 545.683L178.758 544.316C173.287 544.329 167.915 542.899 163.179 540.172L162.497 541.356ZM178.761 545.683C184.473 545.671 190.085 544.153 195.035 541.284L194.349 540.101C189.606 542.85 184.229 544.304 178.758 544.316L178.761 545.683ZM195.038 541.282L306.167 476.204L305.476 475.024L194.347 540.102L195.038 541.282ZM306.164 476.206C311.119 473.333 315.237 469.207 318.104 464.243L316.92 463.559C314.173 468.317 310.227 472.271 305.479 475.023L306.164 476.206ZM318.104 464.243C320.97 459.278 322.484 453.649 322.494 447.921L321.127 447.919C321.118 453.407 319.667 458.801 316.92 463.559L318.104 464.243ZM322.494 447.924L323.289 319.145L321.922 319.136L321.127 447.916L322.494 447.924ZM323.289 319.142C323.299 313.42 321.807 307.801 318.962 302.848L317.777 303.529C320.502 308.273 321.931 313.657 321.922 319.139L323.289 319.142ZM318.962 302.848C316.118 297.896 312.021 293.784 307.082 290.926L306.398 292.109C311.128 294.847 315.052 298.785 317.777 303.529L318.962 302.848ZM36.5503 385.163L108.385 343.555L107.699 342.372L35.8651 383.98L36.5503 385.163ZM108.725 342.964L108.842 259.95L107.475 259.948L107.358 342.962L108.725 342.964ZM251.426 508.039L179.846 466.713L179.163 467.896L250.743 509.223L251.426 508.039ZM179.162 466.713L107.328 508.321L108.013 509.504L179.847 467.896L179.162 466.713ZM250.889 259.666L250.772 342.681L252.139 342.682L252.256 259.668L250.889 259.666ZM251.114 343.273L322.694 384.6L323.377 383.416L251.798 342.09L251.114 343.273ZM40.6605 465.634L180.102 384.961L179.417 383.778L39.9759 464.45L40.6605 465.634ZM180.443 384.37L180.587 223.274L179.22 223.273L179.076 384.369L180.443 384.37ZM318.985 463.962L179.963 383.698L179.28 384.882L318.301 465.146L318.985 463.962ZM555.521 232.02L503.497 201.984L502.813 203.168L554.837 233.204L555.521 232.02ZM503.496 201.983C501.11 200.609 498.402 199.889 495.646 199.895L495.649 201.262C498.165 201.256 500.636 201.914 502.814 203.168L503.496 201.983ZM495.646 199.895C492.889 199.901 490.181 200.633 487.792 202.018L488.478 203.201C490.66 201.936 493.133 201.267 495.649 201.262L495.646 199.895ZM487.79 202.02L435.391 232.705L436.081 233.885L488.48 203.199L487.79 202.02ZM435.393 232.703C433.002 234.089 431.015 236.08 429.632 238.476L430.816 239.159C432.079 236.971 433.895 235.152 436.079 233.886L435.393 232.703ZM429.632 238.476C428.249 240.872 427.518 243.588 427.513 246.352L428.88 246.354C428.885 243.83 429.552 241.348 430.816 239.159L429.632 238.476ZM427.513 246.349L427.139 307.07L428.506 307.079L428.88 246.357L427.513 246.349ZM427.139 307.073C427.134 309.834 427.854 312.546 429.227 314.936L430.412 314.255C429.159 312.074 428.501 309.598 428.506 307.076L427.139 307.073ZM429.227 314.936C430.599 317.326 432.577 319.311 434.96 320.69L435.645 319.507C433.47 318.248 431.665 316.437 430.412 314.255L429.227 314.936ZM434.961 320.691L486.985 350.727L487.669 349.543L435.645 319.507L434.961 320.691ZM486.986 350.727C489.373 352.102 492.08 352.822 494.836 352.816L494.833 351.449C492.317 351.455 489.846 350.797 487.668 349.543L486.986 350.727ZM494.836 352.816C497.593 352.81 500.301 352.077 502.69 350.693L502.004 349.51C499.822 350.775 497.349 351.443 494.833 351.449L494.836 352.816ZM502.692 350.691L555.092 320.006L554.401 318.826L502.002 349.512L502.692 350.691ZM555.089 320.007C557.48 318.621 559.467 316.63 560.85 314.235L559.666 313.551C558.403 315.74 556.587 317.559 554.403 318.825L555.089 320.007ZM560.85 314.235C562.233 311.839 562.964 309.123 562.969 306.359L561.602 306.357C561.597 308.881 560.93 311.363 559.666 313.551L560.85 314.235ZM562.969 306.362L563.344 245.641L561.977 245.632L561.602 306.354L562.969 306.362ZM563.344 245.638C563.348 242.876 562.628 240.165 561.255 237.775L560.07 238.455C561.323 240.637 561.981 243.113 561.977 245.635L563.344 245.638ZM561.255 237.775C559.883 235.384 557.905 233.4 555.522 232.02L554.837 233.204C557.012 234.462 558.817 236.274 560.07 238.455L561.255 237.775ZM427.962 277.08L461.833 257.461L461.148 256.278L427.277 275.897L427.962 277.08ZM462.174 256.87L462.229 217.728L460.862 217.726L460.807 256.868L462.174 256.87ZM529.279 334.392L495.528 314.906L494.844 316.09L528.595 335.576L529.279 334.392ZM494.843 314.906L460.972 334.525L461.658 335.708L495.529 316.089L494.843 314.906ZM528.483 217.593L528.428 256.735L529.795 256.737L529.85 217.595L528.483 217.593ZM528.77 257.328L562.521 276.814L563.205 275.63L529.454 256.144L528.77 257.328ZM429.9 315.023L495.648 276.985L494.964 275.801L429.215 313.84L429.9 315.023ZM495.99 276.394L496.057 200.434L494.69 200.433L494.623 276.392L495.99 276.394ZM561.134 313.609L495.583 275.763L494.899 276.947L560.45 314.793L561.134 313.609ZM760.243 232.02L708.218 201.984L707.535 203.168L759.559 233.204L760.243 232.02ZM708.218 201.983C705.831 200.609 703.124 199.889 700.368 199.895L700.371 201.262C702.887 201.256 705.358 201.914 707.535 203.168L708.218 201.983ZM700.368 199.895C697.611 199.901 694.903 200.633 692.514 202.018L693.2 203.201C695.381 201.936 697.855 201.267 700.371 201.262L700.368 199.895ZM692.511 202.02L640.112 232.705L640.803 233.885L693.202 203.199L692.511 202.02ZM640.115 232.703C637.724 234.089 635.737 236.08 634.354 238.476L635.538 239.159C636.801 236.971 638.616 235.152 640.8 233.886L640.115 232.703ZM634.354 238.476C632.971 240.872 632.24 243.588 632.235 246.352L633.602 246.354C633.606 243.83 634.274 241.348 635.538 239.159L634.354 238.476ZM632.235 246.349L631.86 307.07L633.227 307.079L633.602 246.357L632.235 246.349ZM631.86 307.073C631.855 309.834 632.576 312.546 633.948 314.936L635.134 314.255C633.881 312.074 633.223 309.597 633.227 307.076L631.86 307.073ZM633.948 314.936C635.321 317.326 637.299 319.311 639.682 320.69L640.367 319.507C638.192 318.248 636.387 316.437 635.134 314.255L633.948 314.936ZM639.683 320.691L691.707 350.727L692.391 349.543L640.366 319.507L639.683 320.691ZM691.708 350.727C694.094 352.102 696.802 352.822 699.558 352.816L699.555 351.449C697.039 351.455 694.568 350.797 692.39 349.543L691.708 350.727ZM699.558 352.816C702.314 352.81 705.023 352.077 707.412 350.693L706.726 349.51C704.544 350.775 702.071 351.443 699.555 351.449L699.558 352.816ZM707.414 350.691L759.813 320.006L759.122 318.826L706.723 349.512L707.414 350.691ZM759.811 320.007C762.202 318.621 764.189 316.63 765.572 314.235L764.388 313.551C763.124 315.74 761.309 317.559 759.125 318.825L759.811 320.007ZM765.572 314.235C766.955 311.839 767.686 309.123 767.69 306.359L766.323 306.357C766.319 308.881 765.652 311.363 764.388 313.551L765.572 314.235ZM767.69 306.362L768.065 245.641L766.698 245.632L766.323 306.354L767.69 306.362ZM768.065 245.638C768.07 242.876 767.35 240.165 765.977 237.775L764.792 238.455C766.045 240.637 766.703 243.113 766.698 245.635L768.065 245.638ZM765.977 237.775C764.604 235.384 762.627 233.4 760.243 232.02L759.559 233.204C761.734 234.462 763.539 236.274 764.792 238.455L765.977 237.775ZM632.684 277.08L666.554 257.461L665.869 256.278L631.999 275.897L632.684 277.08ZM666.895 256.87L666.95 217.728L665.583 217.726L665.528 256.868L666.895 256.87ZM734 334.392L700.249 314.906L699.566 316.09L733.317 335.576L734 334.392ZM699.565 314.906L665.694 334.525L666.38 335.708L700.25 316.089L699.565 314.906ZM733.205 217.593L733.15 256.735L734.517 256.737L734.572 217.595L733.205 217.593ZM733.492 257.328L767.243 276.814L767.926 275.63L734.175 256.144L733.492 257.328ZM634.621 315.023L700.37 276.985L699.685 275.801L633.937 313.84L634.621 315.023ZM700.711 276.394L700.779 200.434L699.412 200.433L699.344 276.392L700.711 276.394ZM765.855 313.609L700.304 275.763L699.621 276.947L765.172 314.793L765.855 313.609Z" fill="#465975" fill-opacity="0.1"/>
</svg>
