<svg width="562" height="400" viewBox="0 0 562 400" fill="none" xmlns="http://www.w3.org/2000/svg">
<path d="M93.8209 24.5385L94.0713 24.1058L94.0709 24.1055L93.8209 24.5385ZM55.7647 2.5668L56.0147 2.13378L56.0143 2.13353L55.7647 2.5668ZM44.7776 2.59146L44.5268 2.15887L44.5249 2.15999L44.7776 2.59146ZM6.44739 25.0379L6.69814 25.4705L6.70006 25.4694L6.44739 25.0379ZM0.932434 34.59L1.43243 34.5931L1.43243 34.5909L0.932434 34.59ZM0.658386 79.0082L0.158391 79.0051L0.158387 79.0074L0.658386 79.0082ZM6.13055 88.5357L5.88011 88.9684L5.88055 88.9687L6.13055 88.5357ZM44.1867 110.507L43.9367 110.94L43.9372 110.941L44.1867 110.507ZM55.1738 110.483L55.4246 110.915L55.4265 110.914L55.1738 110.483ZM93.5041 88.0363L93.2533 87.6037L93.2514 87.6048L93.5041 88.0363ZM99.019 78.4842L98.519 78.4811L98.519 78.4833L99.019 78.4842ZM99.2931 34.066L99.7931 34.069L99.7931 34.0668L99.2931 34.066ZM0.259401 56.2017C0.020449 56.3401 -0.0610583 56.646 0.0773492 56.8849C0.215757 57.1239 0.521667 57.2054 0.760619 57.067L0.259401 56.2017ZM25.2868 42.2829L25.5374 42.7156C25.6916 42.6263 25.7866 42.4618 25.7868 42.2836L25.2868 42.2829ZM25.8271 13.6506C25.8275 13.3745 25.6039 13.1503 25.3278 13.1499C25.0516 13.1495 24.8275 13.373 24.8271 13.6492L25.8271 13.6506ZM74.3743 99.8573C74.6135 99.9953 74.9193 99.9134 75.0573 99.6743C75.1954 99.4351 75.1135 99.1293 74.8743 98.9913L74.3743 99.8573ZM49.9354 85.1701L50.1854 84.7371C50.0305 84.6476 49.8396 84.6478 49.6848 84.7374L49.9354 85.1701ZM24.908 99.0888C24.6691 99.2272 24.5876 99.5332 24.726 99.7721C24.8644 100.011 25.1703 100.093 25.4092 99.9542L24.908 99.0888ZM75.2927 13.5533C75.2931 13.2772 75.0696 13.053 74.7934 13.0526C74.5173 13.0522 74.2931 13.2758 74.2927 13.5519L75.2927 13.5533ZM74.7524 42.1857L74.2524 42.185C74.2522 42.3638 74.3475 42.5292 74.5024 42.6187L74.7524 42.1857ZM99.1914 56.8728C99.4306 57.0109 99.7363 56.929 99.8744 56.6898C100.012 56.4507 99.9306 56.1449 99.6914 56.0068L99.1914 56.8728ZM1.67741 83.957C1.43839 84.0953 1.35672 84.4011 1.49501 84.6402C1.63329 84.8792 1.93916 84.9609 2.17818 84.8226L1.67741 83.957ZM50.0233 56.5645L50.2737 56.9973C50.428 56.908 50.5232 56.7433 50.5233 56.565L50.0233 56.5645ZM50.5729 1.00045C50.5731 0.724304 50.3495 0.500247 50.0733 0.5C49.7972 0.499754 49.5731 0.723412 49.5729 0.999554L50.5729 1.00045ZM97.6765 84.6545C97.9156 84.7925 98.2214 84.7106 98.3595 84.4714C98.4975 84.2323 98.4156 83.9265 98.1765 83.7884L97.6765 84.6545ZM50.2257 56.1041C49.9866 55.966 49.6808 56.0479 49.5427 56.2871C49.4046 56.5262 49.4866 56.832 49.7257 56.9701L50.2257 56.1041ZM373.841 67.6285L374.092 67.1958L374.091 67.1955L373.841 67.6285ZM293.131 21.0303L293.381 20.5973L293.38 20.5971L293.131 21.0303ZM269.829 21.0826L269.578 20.6501L269.576 20.6512L269.829 21.0826ZM188.537 68.6877L188.788 69.1202L188.79 69.1191L188.537 68.6877ZM176.841 88.946L177.341 88.9491L177.341 88.9468L176.841 88.946ZM176.26 183.149L175.76 183.146L175.76 183.148L176.26 183.149ZM187.865 203.355L187.615 203.788L187.615 203.788L187.865 203.355ZM268.576 249.953L268.326 250.386L268.326 250.387L268.576 249.953ZM291.878 249.901L292.128 250.334L292.13 250.333L291.878 249.901ZM373.169 202.296L372.919 201.863L372.917 201.865L373.169 202.296ZM384.865 182.038L384.365 182.035L384.365 182.037L384.865 182.038ZM385.447 87.8345L385.947 87.8376L385.947 87.8354L385.447 87.8345ZM175.695 135.265C175.456 135.404 175.374 135.71 175.513 135.949C175.651 136.188 175.957 136.269 176.196 136.131L175.695 135.265ZM228.492 105.261L228.743 105.694C228.897 105.605 228.992 105.44 228.992 105.262L228.492 105.261ZM229.078 44.5363C229.078 44.2602 228.855 44.036 228.579 44.0356C228.302 44.0353 228.078 44.2588 228.078 44.5349L229.078 44.5363ZM332.879 226.881C333.118 227.019 333.424 226.937 333.562 226.698C333.7 226.459 333.618 226.153 333.379 226.015L332.879 226.881ZM280.768 196.217L281.018 195.784C280.863 195.695 280.672 195.695 280.517 195.785L280.768 196.217ZM227.97 226.222C227.731 226.36 227.65 226.666 227.788 226.905C227.926 227.144 228.232 227.225 228.471 227.087L227.97 226.222ZM333.986 44.3301C333.986 44.0539 333.763 43.8298 333.487 43.8294C333.21 43.829 332.986 44.0525 332.986 44.3287L333.986 44.3301ZM333.4 105.055L332.9 105.054C332.9 105.233 332.995 105.399 333.15 105.488L333.4 105.055ZM385.511 135.719C385.75 135.857 386.056 135.775 386.194 135.536C386.332 135.296 386.25 134.991 386.011 134.853L385.511 135.719ZM178.702 194.13C178.463 194.268 178.381 194.574 178.519 194.813C178.658 195.052 178.963 195.134 179.202 194.995L178.702 194.13ZM280.954 135.55L281.205 135.983C281.359 135.894 281.454 135.729 281.454 135.551L280.954 135.55ZM281.559 17.7079C281.56 17.4317 281.336 17.2077 281.06 17.2074C280.784 17.2072 280.56 17.4309 280.559 17.707L281.559 17.7079ZM382.298 194.639C382.538 194.777 382.843 194.695 382.981 194.456C383.119 194.216 383.038 193.911 382.798 193.772L382.298 194.639ZM281.103 135.059C280.864 134.921 280.558 135.003 280.42 135.242C280.282 135.481 280.364 135.787 280.603 135.925L281.103 135.059ZM555.576 24.5385L555.826 24.1058L555.826 24.1055L555.576 24.5385ZM517.52 2.5668L517.77 2.13378L517.769 2.13353L517.52 2.5668ZM506.533 2.59146L506.282 2.15887L506.28 2.15999L506.533 2.59146ZM468.202 25.0379L468.453 25.4705L468.455 25.4694L468.202 25.0379ZM462.688 34.59L463.187 34.5931L463.187 34.5909L462.688 34.59ZM462.413 79.0082L461.913 79.0051L461.913 79.0074L462.413 79.0082ZM467.886 88.5357L467.635 88.9684L467.636 88.9687L467.886 88.5357ZM505.942 110.507L505.692 110.94L505.692 110.941L505.942 110.507ZM516.929 110.483L517.18 110.915L517.182 110.914L516.929 110.483ZM555.259 88.0363L555.008 87.6037L555.006 87.6048L555.259 88.0363ZM560.774 78.4842L560.274 78.4811L560.274 78.4833L560.774 78.4842ZM561.048 34.066L561.548 34.069L561.548 34.0668L561.048 34.066ZM462.015 56.2017C461.776 56.3401 461.694 56.646 461.832 56.8849C461.971 57.1239 462.277 57.2054 462.516 57.067L462.015 56.2017ZM487.042 42.2829L487.292 42.7156C487.446 42.6263 487.541 42.4618 487.542 42.2836L487.042 42.2829ZM487.582 13.6506C487.582 13.3745 487.359 13.1503 487.083 13.1499C486.807 13.1495 486.582 13.373 486.582 13.6492L487.582 13.6506ZM536.129 99.8573C536.369 99.9953 536.674 99.9134 536.812 99.6743C536.95 99.4351 536.869 99.1293 536.629 98.9913L536.129 99.8573ZM511.69 85.1701L511.94 84.7371C511.786 84.6476 511.595 84.6478 511.44 84.7374L511.69 85.1701ZM486.663 99.0888C486.424 99.2272 486.343 99.5332 486.481 99.7721C486.62 100.011 486.925 100.093 487.164 99.9542L486.663 99.0888ZM537.048 13.5533C537.048 13.2772 536.825 13.053 536.549 13.0526C536.272 13.0522 536.048 13.2758 536.048 13.5519L537.048 13.5533ZM536.508 42.1857L536.008 42.185C536.007 42.3638 536.103 42.5292 536.258 42.6187L536.508 42.1857ZM560.947 56.8728C561.186 57.0109 561.491 56.929 561.63 56.6898C561.768 56.4507 561.686 56.1449 561.447 56.0068L560.947 56.8728ZM463.432 83.957C463.193 84.0953 463.112 84.4011 463.25 84.6402C463.388 84.8792 463.694 84.9609 463.933 84.8226L463.432 83.957ZM511.778 56.5645L512.029 56.9973C512.183 56.908 512.278 56.7433 512.278 56.565L511.778 56.5645ZM512.328 1.00045C512.328 0.724304 512.104 0.500247 511.828 0.5C511.552 0.499754 511.328 0.723412 511.328 0.999554L512.328 1.00045ZM559.432 84.6545C559.671 84.7925 559.977 84.7106 560.115 84.4714C560.253 84.2323 560.171 83.9265 559.932 83.7884L559.432 84.6545ZM511.981 56.1041C511.742 55.966 511.436 56.0479 511.298 56.2871C511.16 56.5262 511.242 56.832 511.481 56.9701L511.981 56.1041ZM224.086 213.515L224.337 213.083L224.336 213.082L224.086 213.515ZM143.376 166.917L143.626 166.484L143.625 166.484L143.376 166.917ZM120.074 166.97L119.823 166.537L119.821 166.538L120.074 166.97ZM38.7822 214.575L39.033 215.007L39.0349 215.006L38.7822 214.575ZM27.0861 234.833L27.5861 234.836L27.5861 234.834L27.0861 234.833ZM26.5048 329.036L26.0048 329.033L26.0048 329.035L26.5048 329.036ZM38.1104 349.242L37.8599 349.675L37.8604 349.675L38.1104 349.242ZM118.821 395.84L118.571 396.273L118.571 396.274L118.821 395.84ZM142.122 395.788L142.373 396.221L142.375 396.219L142.122 395.788ZM223.414 348.183L223.163 347.75L223.162 347.752L223.414 348.183ZM235.11 327.925L234.61 327.922L234.61 327.924L235.11 327.925ZM235.692 233.721L236.192 233.725L236.192 233.722L235.692 233.721ZM25.9395 281.152C25.7006 281.291 25.6191 281.597 25.7575 281.836C25.8959 282.075 26.2018 282.156 26.4407 282.018L25.9395 281.152ZM78.7373 251.148L78.9879 251.581C79.1421 251.492 79.2371 251.327 79.2373 251.149L78.7373 251.148ZM79.3228 190.423C79.3231 190.147 79.0996 189.923 78.8235 189.923C78.5473 189.922 78.3231 190.146 78.3228 190.422L79.3228 190.423ZM183.124 372.768C183.363 372.906 183.669 372.824 183.807 372.585C183.945 372.346 183.863 372.04 183.624 371.902L183.124 372.768ZM131.013 342.104L131.263 341.671C131.108 341.582 130.917 341.582 130.762 341.672L131.013 342.104ZM78.2149 372.109C77.976 372.247 77.8944 372.553 78.0329 372.792C78.1713 373.031 78.4772 373.112 78.7161 372.974L78.2149 372.109ZM184.231 190.217C184.231 189.941 184.008 189.717 183.731 189.716C183.455 189.716 183.231 189.939 183.231 190.216L184.231 190.217ZM183.645 250.942L183.145 250.941C183.145 251.12 183.24 251.286 183.395 251.375L183.645 250.942ZM235.756 281.606C235.995 281.744 236.301 281.662 236.439 281.423C236.577 281.183 236.495 280.878 236.256 280.74L235.756 281.606ZM28.9466 340.017C28.7076 340.155 28.6259 340.461 28.7642 340.7C28.9025 340.939 29.2083 341.021 29.4473 340.882L28.9466 340.017ZM131.199 281.437L131.449 281.87C131.604 281.781 131.699 281.616 131.699 281.437L131.199 281.437ZM131.804 163.595C131.805 163.319 131.581 163.095 131.305 163.094C131.029 163.094 130.805 163.318 130.804 163.594L131.804 163.595ZM232.543 340.525C232.782 340.664 233.088 340.582 233.226 340.342C233.364 340.103 233.282 339.798 233.043 339.659L232.543 340.525ZM131.348 280.946C131.109 280.808 130.803 280.89 130.665 281.129C130.527 281.368 130.609 281.674 130.848 281.812L131.348 280.946ZM405.821 170.425L406.071 169.993L406.071 169.992L405.821 170.425ZM367.765 148.454L368.015 148.021L368.014 148.02L367.765 148.454ZM356.778 148.478L356.527 148.046L356.525 148.047L356.778 148.478ZM318.447 170.925L318.698 171.357L318.7 171.356L318.447 170.925ZM312.932 180.477L313.432 180.48L313.432 180.478L312.932 180.477ZM312.658 224.895L312.158 224.892L312.158 224.894L312.658 224.895ZM318.13 234.423L317.88 234.855L317.88 234.856L318.13 234.423ZM356.187 256.394L355.937 256.827L355.937 256.828L356.187 256.394ZM367.174 256.37L367.425 256.802L367.426 256.801L367.174 256.37ZM405.504 233.923L405.253 233.491L405.251 233.492L405.504 233.923ZM411.019 224.371L410.519 224.368L410.519 224.37L411.019 224.371ZM411.293 179.953L411.793 179.956L411.793 179.954L411.293 179.953ZM312.259 202.089C312.02 202.227 311.939 202.533 312.077 202.772C312.216 203.011 312.522 203.092 312.761 202.954L312.259 202.089ZM337.287 188.17L337.537 188.603C337.691 188.513 337.786 188.349 337.787 188.171L337.287 188.17ZM337.827 159.538C337.827 159.261 337.604 159.037 337.328 159.037C337.052 159.036 336.827 159.26 336.827 159.536L337.827 159.538ZM386.374 245.744C386.613 245.882 386.919 245.8 387.057 245.561C387.195 245.322 387.113 245.016 386.874 244.878L386.374 245.744ZM361.935 231.057L362.185 230.624C362.03 230.535 361.84 230.535 361.685 230.624L361.935 231.057ZM336.908 244.976C336.669 245.114 336.588 245.42 336.726 245.659C336.864 245.898 337.17 245.98 337.409 245.841L336.908 244.976ZM387.293 159.44C387.293 159.164 387.07 158.94 386.793 158.94C386.517 158.939 386.293 159.163 386.293 159.439L387.293 159.44ZM386.752 188.073L386.252 188.072C386.252 188.251 386.347 188.416 386.502 188.506L386.752 188.073ZM411.191 202.76C411.43 202.898 411.736 202.816 411.874 202.577C412.012 202.338 411.93 202.032 411.691 201.894L411.191 202.76ZM313.677 229.844C313.438 229.982 313.357 230.288 313.495 230.527C313.633 230.766 313.939 230.848 314.178 230.71L313.677 229.844ZM362.023 202.452L362.274 202.884C362.428 202.795 362.523 202.63 362.523 202.452L362.023 202.452ZM362.573 146.887C362.573 146.611 362.349 146.387 362.073 146.387C361.797 146.387 361.573 146.61 361.573 146.887L362.573 146.887ZM409.676 230.541C409.916 230.679 410.221 230.598 410.359 230.358C410.497 230.119 410.416 229.813 410.176 229.675L409.676 230.541ZM362.226 201.991C361.987 201.853 361.681 201.935 361.543 202.174C361.405 202.413 361.487 202.719 361.726 202.857L362.226 201.991ZM555.576 170.425L555.826 169.993L555.826 169.992L555.576 170.425ZM517.52 148.454L517.77 148.021L517.769 148.02L517.52 148.454ZM506.533 148.478L506.282 148.046L506.28 148.047L506.533 148.478ZM468.202 170.925L468.453 171.357L468.455 171.356L468.202 170.925ZM462.688 180.477L463.187 180.48L463.187 180.478L462.688 180.477ZM462.413 224.895L461.913 224.892L461.913 224.894L462.413 224.895ZM467.886 234.423L467.635 234.855L467.636 234.856L467.886 234.423ZM505.942 256.394L505.692 256.827L505.692 256.828L505.942 256.394ZM516.929 256.37L517.18 256.802L517.182 256.801L516.929 256.37ZM555.259 233.923L555.008 233.491L555.006 233.492L555.259 233.923ZM560.774 224.371L560.274 224.368L560.274 224.37L560.774 224.371ZM561.048 179.953L561.548 179.956L561.548 179.954L561.048 179.953ZM462.015 202.089C461.776 202.227 461.694 202.533 461.832 202.772C461.971 203.011 462.277 203.092 462.516 202.954L462.015 202.089ZM487.042 188.17L487.292 188.603C487.446 188.513 487.541 188.349 487.542 188.171L487.042 188.17ZM487.582 159.538C487.582 159.261 487.359 159.037 487.083 159.037C486.807 159.036 486.582 159.26 486.582 159.536L487.582 159.538ZM536.129 245.744C536.369 245.882 536.674 245.8 536.812 245.561C536.95 245.322 536.869 245.016 536.629 244.878L536.129 245.744ZM511.69 231.057L511.94 230.624C511.786 230.535 511.595 230.535 511.44 230.624L511.69 231.057ZM486.663 244.976C486.424 245.114 486.343 245.42 486.481 245.659C486.62 245.898 486.925 245.98 487.164 245.841L486.663 244.976ZM537.048 159.44C537.048 159.164 536.825 158.94 536.549 158.94C536.272 158.939 536.048 159.163 536.048 159.439L537.048 159.44ZM536.508 188.073L536.008 188.072C536.007 188.251 536.103 188.416 536.258 188.506L536.508 188.073ZM560.947 202.76C561.186 202.898 561.491 202.816 561.63 202.577C561.768 202.338 561.686 202.032 561.447 201.894L560.947 202.76ZM463.432 229.844C463.193 229.982 463.112 230.288 463.25 230.527C463.388 230.766 463.694 230.848 463.933 230.71L463.432 229.844ZM511.778 202.452L512.029 202.884C512.183 202.795 512.278 202.63 512.278 202.452L511.778 202.452ZM512.328 146.887C512.328 146.611 512.104 146.387 511.828 146.387C511.552 146.387 511.328 146.61 511.328 146.887L512.328 146.887ZM559.432 230.541C559.671 230.679 559.977 230.598 560.115 230.358C560.253 230.119 560.171 229.813 559.932 229.675L559.432 230.541ZM511.981 201.991C511.742 201.853 511.436 201.935 511.298 202.174C511.16 202.413 511.242 202.719 511.481 202.857L511.981 201.991ZM94.0709 24.1055L56.0147 2.13378L55.5147 2.99981L93.5709 24.9715L94.0709 24.1055ZM56.0143 2.13353C54.2685 1.12803 52.2881 0.601181 50.2718 0.605707L50.2741 1.6057C52.1146 1.60157 53.9221 2.08248 55.5152 3.00007L56.0143 2.13353ZM50.2718 0.605707C48.2555 0.610232 46.2743 1.14596 44.5268 2.15888L45.0283 3.02404C46.6244 2.09888 48.4335 1.60984 50.2741 1.6057L50.2718 0.605707ZM44.5249 2.15999L6.19472 24.6065L6.70006 25.4694L45.0303 3.02292L44.5249 2.15999ZM6.19664 24.6053C4.44748 25.6193 2.99403 27.0756 1.98227 28.8281L2.8483 29.3281C3.77267 27.727 5.10049 26.3966 6.69814 25.4705L6.19664 24.6053ZM1.98227 28.8281C0.970514 30.5805 0.435926 32.5674 0.432435 34.5892L1.43243 34.5909C1.43562 32.7443 1.92392 30.9291 2.8483 29.3281L1.98227 28.8281ZM0.432444 34.5869L0.158396 79.0051L1.15838 79.0113L1.43242 34.5931L0.432444 34.5869ZM0.158387 79.0074C0.154898 81.0271 0.681514 83.0108 1.68575 84.7592L2.5529 84.2612C1.63619 82.6651 1.1552 80.8539 1.15839 79.0091L0.158387 79.0074ZM1.68575 84.7592C2.68999 86.5077 4.13647 87.9593 5.88011 88.9684L6.381 88.1029C4.78981 87.182 3.4696 85.8572 2.5529 84.2612L1.68575 84.7592ZM5.88055 88.9687L43.9367 110.94L44.4367 110.074L6.38055 88.1026L5.88055 88.9687ZM43.9372 110.941C45.6829 111.946 47.6633 112.473 49.6796 112.468L49.6773 111.468C47.8368 111.473 46.0293 110.992 44.4363 110.074L43.9372 110.941ZM49.6796 112.468C51.6959 112.464 53.6771 111.928 55.4246 110.915L54.9231 110.05C53.327 110.975 51.5179 111.464 49.6773 111.468L49.6796 112.468ZM55.4265 110.914L93.7568 88.4677L93.2514 87.6048L54.9212 110.051L55.4265 110.914ZM93.7548 88.4688C95.504 87.4549 96.9574 85.9986 97.9692 84.2461L97.1032 83.7461C96.1788 85.3472 94.851 86.6776 93.2533 87.6037L93.7548 88.4688ZM97.9692 84.2461C98.981 82.4937 99.5155 80.5068 99.519 78.485L98.519 78.4833C98.5158 80.3299 98.0276 82.1451 97.1032 83.7461L97.9692 84.2461ZM99.519 78.4872L99.7931 34.069L98.7931 34.0629L98.519 78.4811L99.519 78.4872ZM99.7931 34.0668C99.7966 32.047 99.2699 30.0634 98.2657 28.315L97.3985 28.813C98.3152 30.4091 98.7963 32.2203 98.7931 34.0651L99.7931 34.0668ZM98.2657 28.315C97.2614 26.5665 95.8149 25.1149 94.0713 24.1058L93.5704 24.9713C95.1616 25.8921 96.4818 27.217 97.3985 28.813L98.2657 28.315ZM0.760619 57.067L25.5374 42.7156L25.0362 41.8503L0.259401 56.2017L0.760619 57.067ZM25.7868 42.2836L25.8271 13.6506L24.8271 13.6492L24.7868 42.2822L25.7868 42.2836ZM74.8743 98.9913L50.1854 84.7371L49.6854 85.6031L74.3743 99.8573L74.8743 98.9913ZM49.6848 84.7374L24.908 99.0888L25.4092 99.9542L50.186 85.6028L49.6848 84.7374ZM74.2927 13.5519L74.2524 42.185L75.2524 42.1864L75.2927 13.5533L74.2927 13.5519ZM74.5024 42.6187L99.1914 56.8728L99.6914 56.0068L75.0024 41.7526L74.5024 42.6187ZM2.17818 84.8226L50.2737 56.9973L49.7729 56.1318L1.67741 83.957L2.17818 84.8226ZM50.5233 56.565L50.5729 1.00045L49.5729 0.999554L49.5233 56.5641L50.5233 56.565ZM98.1765 83.7884L50.2257 56.1041L49.7257 56.9701L97.6765 84.6545L98.1765 83.7884ZM374.091 67.1955L293.381 20.5973L292.881 21.4633L373.591 68.0615L374.091 67.1955ZM293.38 20.5971C289.763 18.5139 285.66 17.4222 281.483 17.4316L281.485 18.4316C285.487 18.4226 289.417 19.4683 292.881 21.4636L293.38 20.5971ZM281.483 17.4316C277.305 17.441 273.199 18.551 269.578 20.6501L270.08 21.5152C273.55 19.5039 277.483 18.4406 281.485 18.4316L281.483 17.4316ZM269.576 20.6512L188.285 68.2562L188.79 69.1191L270.082 21.5141L269.576 20.6512ZM188.287 68.2551C184.662 70.3562 181.65 73.3743 179.553 77.0061L180.419 77.5061C182.428 74.0257 185.315 71.1335 188.788 69.1202L188.287 68.2551ZM179.553 77.0061C177.456 80.6378 176.348 84.7554 176.341 88.9451L177.341 88.9468C177.348 84.9323 178.41 80.9865 180.419 77.5061L179.553 77.0061ZM176.341 88.9429L175.76 183.146L176.76 183.152L177.341 88.9491L176.341 88.9429ZM175.76 183.148C175.753 187.334 176.844 191.444 178.925 195.067L179.792 194.569C177.799 191.099 176.753 187.161 176.76 183.15L175.76 183.148ZM178.925 195.067C181.006 198.69 184.002 201.697 187.615 203.788L188.116 202.922C184.656 200.92 181.785 198.039 179.792 194.569L178.925 195.067ZM187.615 203.788L268.326 250.386L268.826 249.52L188.115 202.922L187.615 203.788ZM268.326 250.387C271.943 252.47 276.046 253.561 280.224 253.552L280.222 252.552C276.22 252.561 272.29 251.515 268.825 249.52L268.326 250.387ZM280.224 253.552C284.402 253.543 288.507 252.433 292.128 250.334L291.627 249.468C288.157 251.48 284.224 252.543 280.222 252.552L280.224 253.552ZM292.13 250.333L373.422 202.728L372.917 201.865L291.625 249.47L292.13 250.333ZM373.42 202.729C377.045 200.628 380.057 197.609 382.154 193.978L381.288 193.478C379.278 196.958 376.392 199.85 372.919 201.863L373.42 202.729ZM382.154 193.978C384.25 190.346 385.358 186.228 385.365 182.039L384.365 182.037C384.358 186.051 383.297 189.997 381.288 193.478L382.154 193.978ZM385.365 182.041L385.947 87.8376L384.947 87.8314L384.365 182.035L385.365 182.041ZM385.947 87.8354C385.954 83.6498 384.863 79.5395 382.782 75.9168L381.915 76.4148C383.908 79.8852 384.954 83.8231 384.947 87.8337L385.947 87.8354ZM382.782 75.9168C380.701 72.294 377.704 69.2864 374.092 67.1958L373.591 68.0613C377.051 70.0637 379.921 72.9445 381.915 76.4148L382.782 75.9168ZM176.196 136.131L228.743 105.694L228.242 104.829L175.695 135.265L176.196 136.131ZM228.992 105.262L229.078 44.5363L228.078 44.5349L227.992 105.261L228.992 105.262ZM333.379 226.015L281.018 195.784L280.518 196.65L332.879 226.881L333.379 226.015ZM280.517 195.785L227.97 226.222L228.471 227.087L281.018 196.65L280.517 195.785ZM332.986 44.3287L332.9 105.054L333.9 105.056L333.986 44.3301L332.986 44.3287ZM333.15 105.488L385.511 135.719L386.011 134.853L333.65 104.622L333.15 105.488ZM179.202 194.995L281.205 135.983L280.704 135.117L178.702 194.13L179.202 194.995ZM281.454 135.551L281.559 17.7079L280.559 17.707L280.454 135.55L281.454 135.551ZM382.798 193.772L281.103 135.059L280.603 135.925L382.298 194.639L382.798 193.772ZM555.826 24.1055L517.77 2.13378L517.27 2.99981L555.326 24.9715L555.826 24.1055ZM517.769 2.13353C516.024 1.12803 514.043 0.601181 512.027 0.605707L512.029 1.6057C513.87 1.60157 515.677 2.08248 517.27 3.00007L517.769 2.13353ZM512.027 0.605707C510.011 0.610232 508.029 1.14596 506.282 2.15888L506.783 3.02404C508.38 2.09888 510.189 1.60984 512.029 1.6057L512.027 0.605707ZM506.28 2.15999L467.95 24.6065L468.455 25.4694L506.785 3.02292L506.28 2.15999ZM467.952 24.6053C466.202 25.6193 464.749 27.0757 463.737 28.8281L464.603 29.3281C465.528 27.727 466.856 26.3966 468.453 25.4705L467.952 24.6053ZM463.737 28.8281C462.726 30.5805 462.191 32.5674 462.188 34.5892L463.187 34.5909C463.191 32.7443 463.679 30.9291 464.603 29.3281L463.737 28.8281ZM462.188 34.5869L461.913 79.0051L462.913 79.0113L463.187 34.5931L462.188 34.5869ZM461.913 79.0074C461.91 81.0272 462.437 83.0108 463.441 84.7592L464.308 84.2612C463.391 82.6651 462.91 80.8538 462.913 79.0091L461.913 79.0074ZM463.441 84.7592C464.445 86.5077 465.892 87.9593 467.635 88.9684L468.136 88.1029C466.545 87.182 465.225 85.8572 464.308 84.2612L463.441 84.7592ZM467.636 88.9687L505.692 110.94L506.192 110.074L468.136 88.1026L467.636 88.9687ZM505.692 110.941C507.438 111.946 509.418 112.473 511.435 112.468L511.432 111.468C509.592 111.473 507.785 110.992 506.191 110.074L505.692 110.941ZM511.435 112.468C513.451 112.464 515.432 111.928 517.18 110.915L516.678 110.05C515.082 110.975 513.273 111.464 511.432 111.468L511.435 112.468ZM517.182 110.914L555.512 88.4677L555.006 87.6048L516.676 110.051L517.182 110.914ZM555.51 88.4688C557.259 87.4549 558.713 85.9986 559.724 84.2461L558.858 83.7461C557.934 85.3472 556.606 86.6776 555.008 87.6037L555.51 88.4688ZM559.724 84.2461C560.736 82.4937 561.27 80.5068 561.274 78.485L560.274 78.4833C560.271 80.33 559.783 82.1451 558.858 83.7461L559.724 84.2461ZM561.274 78.4872L561.548 34.069L560.548 34.0629L560.274 78.4811L561.274 78.4872ZM561.548 34.0668C561.552 32.047 561.025 30.0634 560.021 28.315L559.154 28.813C560.07 30.4091 560.551 32.2203 560.548 34.0651L561.548 34.0668ZM560.021 28.315C559.016 26.5665 557.57 25.1149 555.826 24.1058L555.325 24.9713C556.917 25.8921 558.237 27.217 559.154 28.813L560.021 28.315ZM462.516 57.067L487.292 42.7156L486.791 41.8503L462.015 56.2017L462.516 57.067ZM487.542 42.2836L487.582 13.6506L486.582 13.6492L486.542 42.2822L487.542 42.2836ZM536.629 98.9913L511.94 84.7371L511.44 85.6031L536.129 99.8573L536.629 98.9913ZM511.44 84.7374L486.663 99.0888L487.164 99.9542L511.941 85.6028L511.44 84.7374ZM536.048 13.5519L536.008 42.185L537.008 42.1864L537.048 13.5533L536.048 13.5519ZM536.258 42.6187L560.947 56.8728L561.447 56.0068L536.758 41.7526L536.258 42.6187ZM463.933 84.8226L512.029 56.9973L511.528 56.1318L463.432 83.957L463.933 84.8226ZM512.278 56.565L512.328 1.00045L511.328 0.999554L511.278 56.5641L512.278 56.565ZM559.932 83.7884L511.981 56.1041L511.481 56.9701L559.432 84.6545L559.932 83.7884ZM224.336 213.082L143.626 166.484L143.126 167.35L223.836 213.949L224.336 213.082ZM143.625 166.484C140.008 164.401 135.905 163.309 131.727 163.319L131.73 164.319C135.732 164.31 139.662 165.355 143.126 167.351L143.625 166.484ZM131.727 163.319C127.55 163.328 123.444 164.438 119.823 166.537L120.325 167.402C123.794 165.391 127.728 164.328 131.73 164.319L131.727 163.319ZM119.821 166.538L38.5296 214.143L39.0349 215.006L120.327 167.401L119.821 166.538ZM38.5315 214.142C34.9067 216.243 31.8946 219.261 29.7978 222.893L30.6638 223.393C32.6733 219.913 35.5597 217.02 39.033 215.007L38.5315 214.142ZM29.7978 222.893C27.701 226.525 26.5933 230.642 26.5861 234.832L27.5861 234.834C27.593 230.819 28.6544 226.873 30.6638 223.393L29.7978 222.893ZM26.5861 234.83L26.0048 329.033L27.0048 329.039L27.5861 234.836L26.5861 234.83ZM26.0048 329.035C25.9975 333.221 27.0889 337.331 29.1697 340.954L30.0368 340.456C28.0436 336.985 26.9978 333.048 27.0048 329.037L26.0048 329.035ZM29.1697 340.954C31.2505 344.577 34.2474 347.584 37.8599 349.675L38.3608 348.809C34.9007 346.807 32.0301 343.926 30.0368 340.456L29.1697 340.954ZM37.8604 349.675L118.571 396.273L119.071 395.407L38.3604 348.809L37.8604 349.675ZM118.571 396.274C122.188 398.357 126.291 399.448 130.469 399.439L130.467 398.439C126.465 398.448 122.535 397.402 119.07 395.407L118.571 396.274ZM130.469 399.439C134.647 399.43 138.752 398.32 142.373 396.221L141.872 395.355C138.402 397.367 134.469 398.43 130.467 398.439L130.469 399.439ZM142.375 396.219L223.667 348.614L223.162 347.752L141.87 395.357L142.375 396.219ZM223.665 348.616C227.29 346.514 230.302 343.496 232.399 339.865L231.533 339.365C229.523 342.845 226.637 345.737 223.163 347.75L223.665 348.616ZM232.399 339.865C234.495 336.233 235.603 332.115 235.61 327.926L234.61 327.924C234.603 331.938 233.542 335.884 231.533 339.365L232.399 339.865ZM235.61 327.928L236.192 233.725L235.192 233.718L234.61 327.922L235.61 327.928ZM236.192 233.722C236.199 229.537 235.107 225.426 233.027 221.804L232.16 222.302C234.153 225.772 235.199 229.71 235.192 233.721L236.192 233.722ZM233.027 221.804C230.946 218.181 227.949 215.173 224.337 213.083L223.836 213.948C227.296 215.951 230.166 218.831 232.16 222.302L233.027 221.804ZM26.4407 282.018L78.9879 251.581L78.4867 250.716L25.9395 281.152L26.4407 282.018ZM79.2373 251.149L79.3228 190.423L78.3228 190.422L78.2373 251.148L79.2373 251.149ZM183.624 371.902L131.263 341.671L130.763 342.537L183.124 372.768L183.624 371.902ZM130.762 341.672L78.2149 372.109L78.7161 372.974L131.263 342.537L130.762 341.672ZM183.231 190.216L183.145 250.941L184.145 250.943L184.231 190.217L183.231 190.216ZM183.395 251.375L235.756 281.606L236.256 280.74L183.895 250.509L183.395 251.375ZM29.4473 340.882L131.449 281.87L130.949 281.004L28.9466 340.017L29.4473 340.882ZM131.699 281.437L131.804 163.595L130.804 163.594L130.699 281.437L131.699 281.437ZM233.043 339.659L131.348 280.946L130.848 281.812L232.543 340.525L233.043 339.659ZM406.071 169.992L368.015 148.021L367.515 148.887L405.571 170.859L406.071 169.992ZM368.014 148.02C366.268 147.015 364.288 146.488 362.272 146.493L362.274 147.493C364.115 147.489 365.922 147.969 367.515 148.887L368.014 148.02ZM362.272 146.493C360.255 146.497 358.274 147.033 356.527 148.046L357.028 148.911C358.624 147.986 360.433 147.497 362.274 147.493L362.272 146.493ZM356.525 148.047L318.195 170.493L318.7 171.356L357.03 148.91L356.525 148.047ZM318.197 170.492C316.447 171.506 314.994 172.963 313.982 174.715L314.848 175.215C315.773 173.614 317.1 172.284 318.698 171.357L318.197 170.492ZM313.982 174.715C312.97 176.467 312.436 178.454 312.432 180.476L313.432 180.478C313.436 178.631 313.924 176.816 314.848 175.215L313.982 174.715ZM312.432 180.474L312.158 224.892L313.158 224.898L313.432 180.48L312.432 180.474ZM312.158 224.894C312.155 226.914 312.681 228.898 313.686 230.646L314.553 230.148C313.636 228.552 313.155 226.741 313.158 224.896L312.158 224.894ZM313.686 230.646C314.69 232.395 316.136 233.846 317.88 234.855L318.381 233.99C316.79 233.069 315.47 231.744 314.553 230.148L313.686 230.646ZM317.88 234.856L355.937 256.827L356.437 255.961L318.38 233.99L317.88 234.856ZM355.937 256.828C357.683 257.833 359.663 258.36 361.68 258.355L361.677 257.355C359.837 257.36 358.029 256.879 356.436 255.961L355.937 256.828ZM361.68 258.355C363.696 258.351 365.677 257.815 367.425 256.802L366.923 255.937C365.327 256.862 363.518 257.351 361.677 257.355L361.68 258.355ZM367.426 256.801L405.757 234.355L405.251 233.492L366.921 255.938L367.426 256.801ZM405.755 234.356C407.504 233.342 408.957 231.886 409.969 230.133L409.103 229.633C408.179 231.234 406.851 232.565 405.253 233.491L405.755 234.356ZM409.969 230.133C410.981 228.381 411.515 226.394 411.519 224.372L410.519 224.37C410.516 226.217 410.027 228.032 409.103 229.633L409.969 230.133ZM411.519 224.374L411.793 179.956L410.793 179.95L410.519 224.368L411.519 224.374ZM411.793 179.954C411.797 177.934 411.27 175.95 410.266 174.202L409.398 174.7C410.315 176.296 410.796 178.107 410.793 179.952L411.793 179.954ZM410.266 174.202C409.261 172.453 407.815 171.002 406.071 169.993L405.57 170.858C407.162 171.779 408.482 173.104 409.398 174.7L410.266 174.202ZM312.761 202.954L337.537 188.603L337.036 187.737L312.259 202.089L312.761 202.954ZM337.787 188.171L337.827 159.538L336.827 159.536L336.787 188.169L337.787 188.171ZM386.874 244.878L362.185 230.624L361.685 231.49L386.374 245.744L386.874 244.878ZM361.685 230.624L336.908 244.976L337.409 245.841L362.186 231.49L361.685 230.624ZM386.293 159.439L386.252 188.072L387.252 188.073L387.293 159.44L386.293 159.439ZM386.502 188.506L411.191 202.76L411.691 201.894L387.002 187.64L386.502 188.506ZM314.178 230.71L362.274 202.884L361.773 202.019L313.677 229.844L314.178 230.71ZM362.523 202.452L362.573 146.887L361.573 146.887L361.523 202.451L362.523 202.452ZM410.176 229.675L362.226 201.991L361.726 202.857L409.676 230.541L410.176 229.675ZM555.826 169.992L517.77 148.021L517.27 148.887L555.326 170.859L555.826 169.992ZM517.769 148.02C516.024 147.015 514.043 146.488 512.027 146.493L512.029 147.493C513.87 147.489 515.677 147.969 517.27 148.887L517.769 148.02ZM512.027 146.493C510.011 146.497 508.029 147.033 506.282 148.046L506.783 148.911C508.38 147.986 510.189 147.497 512.029 147.493L512.027 146.493ZM506.28 148.047L467.95 170.493L468.455 171.356L506.785 148.91L506.28 148.047ZM467.952 170.492C466.202 171.506 464.749 172.963 463.737 174.715L464.603 175.215C465.528 173.614 466.856 172.284 468.453 171.357L467.952 170.492ZM463.737 174.715C462.726 176.467 462.191 178.454 462.188 180.476L463.187 180.478C463.191 178.631 463.679 176.816 464.603 175.215L463.737 174.715ZM462.188 180.474L461.913 224.892L462.913 224.898L463.187 180.48L462.188 180.474ZM461.913 224.894C461.91 226.914 462.437 228.898 463.441 230.646L464.308 230.148C463.391 228.552 462.91 226.741 462.913 224.896L461.913 224.894ZM463.441 230.646C464.445 232.395 465.892 233.846 467.635 234.855L468.136 233.99C466.545 233.069 465.225 231.744 464.308 230.148L463.441 230.646ZM467.636 234.856L505.692 256.827L506.192 255.961L468.136 233.99L467.636 234.856ZM505.692 256.828C507.438 257.833 509.418 258.36 511.435 258.355L511.432 257.355C509.592 257.36 507.785 256.879 506.191 255.961L505.692 256.828ZM511.435 258.355C513.451 258.351 515.432 257.815 517.18 256.802L516.678 255.937C515.082 256.862 513.273 257.351 511.432 257.355L511.435 258.355ZM517.182 256.801L555.512 234.355L555.006 233.492L516.676 255.938L517.182 256.801ZM555.51 234.356C557.259 233.342 558.713 231.886 559.724 230.133L558.858 229.633C557.934 231.234 556.606 232.565 555.008 233.491L555.51 234.356ZM559.724 230.133C560.736 228.381 561.27 226.394 561.274 224.372L560.274 224.37C560.271 226.217 559.783 228.032 558.858 229.633L559.724 230.133ZM561.274 224.374L561.548 179.956L560.548 179.95L560.274 224.368L561.274 224.374ZM561.548 179.954C561.552 177.934 561.025 175.95 560.021 174.202L559.154 174.7C560.07 176.296 560.551 178.107 560.548 179.952L561.548 179.954ZM560.021 174.202C559.016 172.453 557.57 171.002 555.826 169.993L555.325 170.858C556.917 171.779 558.237 173.104 559.154 174.7L560.021 174.202ZM462.516 202.954L487.292 188.603L486.791 187.737L462.015 202.089L462.516 202.954ZM487.542 188.171L487.582 159.538L486.582 159.536L486.542 188.169L487.542 188.171ZM536.629 244.878L511.94 230.624L511.44 231.49L536.129 245.744L536.629 244.878ZM511.44 230.624L486.663 244.976L487.164 245.841L511.941 231.49L511.44 230.624ZM536.048 159.439L536.008 188.072L537.008 188.073L537.048 159.44L536.048 159.439ZM536.258 188.506L560.947 202.76L561.447 201.894L536.758 187.64L536.258 188.506ZM463.933 230.71L512.029 202.884L511.528 202.019L463.432 229.844L463.933 230.71ZM512.278 202.452L512.328 146.887L511.328 146.887L511.278 202.451L512.278 202.452ZM559.932 229.675L511.981 201.991L511.481 202.857L559.432 230.541L559.932 229.675Z" fill="#465975" fill-opacity="0.1"/>
</svg>
