<svg width="374" height="147" viewBox="0 0 374 147" fill="none" xmlns="http://www.w3.org/2000/svg">
<path d="M119.223 41.4449L81.1665 19.4732C79.4971 18.5116 77.6032 18.0078 75.6747 18.0121C73.7463 18.0164 71.8512 18.5288 70.1794 19.4978L31.8492 41.9443C30.1758 42.9143 28.7851 44.3077 27.8171 45.9844C26.849 47.6612 26.3376 49.5622 26.3343 51.4964L26.0602 95.9146C26.0568 97.8469 26.5607 99.7443 27.5211 101.417C28.4816 103.089 29.8649 104.477 31.5324 105.442L69.5885 127.414C71.2579 128.375 73.1518 128.879 75.0803 128.875C77.0087 128.871 78.9039 128.358 80.5756 127.389L118.906 104.943C120.579 103.973 121.97 102.579 122.938 100.903C123.906 99.2258 124.417 97.3248 124.421 95.3905L124.695 50.9723C124.698 49.04 124.194 47.1426 123.234 45.4704C122.273 43.7981 120.89 42.4099 119.223 41.4449Z" fill="white"/>
<path d="M25.9118 73.5407L50.6886 59.1893L50.7289 30.5563" stroke="#465975" stroke-width="2" stroke-linecap="round" stroke-linejoin="round"/>
<path d="M100.026 116.331L75.3372 102.076L50.5604 116.428" stroke="#465975" stroke-width="2" stroke-linecap="round" stroke-linejoin="round"/>
<path d="M100.195 30.459L100.154 59.092L124.843 73.3462" stroke="#465975" stroke-width="2" stroke-linecap="round" stroke-linejoin="round"/>
<path d="M27.3296 101.296L75.4251 73.4709L75.4747 17.9064" stroke="#465975" stroke-width="2" stroke-linecap="round" stroke-linejoin="round"/>
<path d="M123.328 101.128L75.3775 73.4435" stroke="#465975" stroke-width="2" stroke-linecap="round" stroke-linejoin="round"/>
<path d="M119.223 41.4449L81.1665 19.4732C79.4971 18.5116 77.6032 18.0078 75.6747 18.0121C73.7463 18.0164 71.8512 18.5288 70.1794 19.4978L31.8492 41.9443C30.1758 42.9143 28.7851 44.3077 27.8171 45.9844C26.849 47.6612 26.3376 49.5622 26.3343 51.4964L26.0602 95.9146C26.0568 97.8469 26.5607 99.7443 27.5211 101.417C28.4816 103.089 29.8649 104.477 31.5324 105.442L69.5885 127.414C71.2579 128.375 73.1518 128.879 75.0803 128.875C77.0087 128.871 78.9039 128.358 80.5756 127.389L118.906 104.943C120.579 103.973 121.97 102.579 122.938 100.903C123.906 99.2258 124.417 97.3248 124.421 95.3905L124.695 50.9723C124.698 49.04 124.194 47.1426 123.234 45.4704C122.273 43.7981 120.89 42.4099 119.223 41.4449Z" stroke="#465975" stroke-width="4" stroke-linecap="round" stroke-linejoin="round"/>
<path d="M157.552 85.5582H175.772V91.6696H148V86.6608L165.365 63.759H148.316V57.5846H175.107V62.4359L157.552 85.5582Z" fill="#FFA337"/>
<path d="M179.978 74.3121C179.978 70.9729 180.643 67.9697 181.971 65.3026C183.3 62.6144 185.166 60.5563 187.57 59.1282C189.974 57.6791 192.736 56.9546 195.857 56.9546C200.475 56.9546 204.218 58.4352 207.086 61.3963C209.975 64.3575 211.535 68.2847 211.767 73.178L211.799 74.9736C211.799 78.3338 211.145 81.337 209.838 83.9831C208.551 86.6293 206.696 88.6769 204.271 90.126C201.867 91.5751 199.083 92.2996 195.92 92.2996C191.091 92.2996 187.222 90.7035 184.312 87.5113C181.423 84.2982 179.978 80.0244 179.978 74.6901V74.3121ZM187.665 74.9736C187.665 78.4808 188.392 81.232 189.847 83.2271C191.302 85.2012 193.327 86.1883 195.92 86.1883C198.514 86.1883 200.528 85.1802 201.962 83.1641C203.417 81.148 204.144 78.1973 204.144 74.3121C204.144 70.8679 203.396 68.1377 201.898 66.1216C200.422 64.1055 198.408 63.0974 195.857 63.0974C193.348 63.0974 191.355 64.095 189.879 66.0901C188.403 68.0642 187.665 71.0254 187.665 74.9736Z" fill="#FFA337"/>
<path d="M227.93 49.2996V57.5846H233.972V63.2549H227.93V82.282C227.93 83.5841 228.183 84.5292 228.689 85.1172C229.217 85.6842 230.144 85.9678 231.473 85.9678C232.359 85.9678 233.255 85.8627 234.162 85.6527V91.5751C232.411 92.0581 230.724 92.2996 229.101 92.2996C223.196 92.2996 220.244 89.0549 220.244 82.5656V63.2549H214.614V57.5846H220.244V49.2996H227.93Z" fill="#FFA337"/>
<path d="M269.936 81.1165L275.376 57.5846H282.873L273.541 91.6696H267.215L259.877 68.2637L252.665 91.6696H246.339L236.977 57.5846H244.473L250.008 80.8645L257.03 57.5846H262.819L269.936 81.1165Z" fill="#FFA337"/>
<path d="M308.462 91.6696C308.124 91.0185 307.829 89.958 307.576 88.4879C305.13 91.029 302.135 92.2996 298.593 92.2996C295.156 92.2996 292.351 91.3231 290.179 89.37C288.007 87.4168 286.921 85.0017 286.921 82.1245C286.921 78.4913 288.271 75.7087 290.97 73.7765C293.69 71.8234 297.57 70.8469 302.61 70.8469H307.323V68.6102C307.323 66.8461 306.827 65.4391 305.836 64.389C304.845 63.3179 303.337 62.7824 301.313 62.7824C299.563 62.7824 298.129 63.2234 297.011 64.1055C295.894 64.9665 295.335 66.0691 295.335 67.4132H287.649C287.649 65.5441 288.271 63.801 289.515 62.1839C290.759 60.5458 292.446 59.2647 294.576 58.3406C296.727 57.4166 299.12 56.9546 301.756 56.9546C305.762 56.9546 308.957 57.9626 311.34 59.9787C313.723 61.9739 314.946 64.788 315.009 68.4212V83.7941C315.009 86.8603 315.441 89.3069 316.306 91.1341V91.6696H308.462ZM300.016 86.1568C301.535 86.1568 302.958 85.7892 304.286 85.0542C305.636 84.3192 306.648 83.3321 307.323 82.093V75.6667H303.179C300.333 75.6667 298.192 76.1602 296.758 77.1472C295.324 78.1343 294.607 79.5309 294.607 81.337C294.607 82.8071 295.092 83.9831 296.062 84.8652C297.054 85.7262 298.371 86.1568 300.016 86.1568Z" fill="#FFA337"/>
<path d="M340.978 64.578C339.966 64.41 338.922 64.326 337.846 64.326C334.325 64.326 331.953 65.6701 330.729 68.3582V91.6696H323.043V57.5846H330.382L330.571 61.3963C332.427 58.4352 335 56.9546 338.289 56.9546C339.386 56.9546 340.292 57.1016 341.009 57.3956L340.978 64.578Z" fill="#FFA337"/>
<path d="M360.272 92.2996C355.401 92.2996 351.447 90.777 348.411 87.7319C345.395 84.6657 343.888 80.5914 343.888 75.5091V74.5641C343.888 71.1619 344.541 68.1272 345.849 65.4601C347.177 62.7719 349.033 60.6823 351.416 59.1912C353.799 57.7001 356.456 56.9546 359.387 56.9546C364.047 56.9546 367.642 58.4352 370.173 61.3963C372.724 64.3575 374 68.5472 374 73.9656V77.0527H351.637C351.869 79.8669 352.808 82.093 354.452 83.7311C356.118 85.3692 358.206 86.1883 360.715 86.1883C364.237 86.1883 367.105 84.7707 369.319 81.9355L373.462 85.8732C372.092 87.9104 370.257 89.496 367.959 90.63C365.681 91.7431 363.119 92.2996 360.272 92.2996ZM359.355 63.0974C357.246 63.0974 355.538 63.8325 354.231 65.3026C352.945 66.7726 352.122 68.8203 351.764 71.4454H366.409V70.8784C366.24 68.3162 365.555 66.3841 364.353 65.082C363.151 63.759 361.485 63.0974 359.355 63.0974Z" fill="#FFA337"/>
</svg>
