<svg width="229" height="152" viewBox="0 0 229 152" fill="none" xmlns="http://www.w3.org/2000/svg">
<path d="M54.7333 103.575C54.9185 103.842 55.2237 104 55.5487 104H59.779C60.6196 104 61.0906 103.021 60.5854 102.35C52.9734 92.2272 48.4621 79.6404 48.4621 66C48.4621 32.5658 75.5658 5.46207 109 5.46207C142.434 5.46207 169.538 32.5658 169.538 66C169.538 79.6404 165.027 92.2272 157.415 102.35C156.909 103.021 157.38 104 158.221 104H162.451C162.776 104 163.081 103.842 163.267 103.575C170.665 92.9113 175 79.9619 175 66C175 29.5492 145.451 0 109 0C72.5492 0 43 29.5492 43 66C43 79.9619 47.3353 92.9113 54.7333 103.575Z" fill="white"/>
<path d="M74.3916 124.776H69.8916V144H74.3916V124.776Z" fill="white"/>
<path d="M70.1076 120.852C70.6596 121.356 71.3436 121.608 72.1596 121.608C72.9996 121.608 73.6836 121.344 74.2116 120.816C74.7636 120.264 75.0396 119.592 75.0396 118.8C75.0396 117.882 73.3999 115.957 72.4551 114.848C72.3462 114.72 72.2465 114.603 72.1596 114.5C71.9267 114.801 71.6711 115.117 71.4114 115.438L71.4104 115.44C70.3776 116.717 69.2796 118.074 69.2796 118.908C69.2796 119.676 69.5556 120.324 70.1076 120.852Z" fill="white"/>
<path d="M5.22688 118.8H0.546875V144H5.22688V118.8Z" fill="white"/>
<path fill-rule="evenodd" clip-rule="evenodd" d="M33.571 141.084V124.776H29.287V127.332C28.519 126.396 27.559 125.7 26.407 125.244C25.279 124.788 24.019 124.56 22.627 124.56C20.803 124.56 19.147 124.944 17.659 125.712C16.195 126.48 15.031 127.572 14.167 128.988C13.327 130.38 12.907 131.988 12.907 133.812C12.907 135.636 13.327 137.256 14.167 138.672C15.031 140.088 16.195 141.192 17.659 141.984C19.147 142.752 20.803 143.136 22.627 143.136C23.947 143.136 25.159 142.92 26.263 142.488C27.367 142.056 28.303 141.42 29.071 140.58V141.588C29.071 143.556 28.579 145.02 27.595 145.98C26.611 146.94 25.063 147.42 22.951 147.42C21.631 147.42 20.323 147.204 19.027 146.772C17.755 146.364 16.699 145.812 15.859 145.116L13.843 148.5C14.923 149.388 16.291 150.06 17.947 150.516C19.603 150.996 21.355 151.236 23.203 151.236C30.115 151.236 33.571 147.852 33.571 141.084ZM27.487 137.808C26.407 138.816 25.015 139.32 23.311 139.32C21.583 139.32 20.167 138.816 19.063 137.808C17.983 136.776 17.443 135.444 17.443 133.812C17.443 132.204 17.983 130.896 19.063 129.888C20.167 128.88 21.583 128.376 23.311 128.376C25.015 128.376 26.407 128.88 27.487 129.888C28.591 130.896 29.143 132.204 29.143 133.812C29.143 135.444 28.591 136.776 27.487 137.808Z" fill="white"/>
<path d="M53.2751 124.56C55.6991 124.56 57.6431 125.268 59.1071 126.684C60.5711 128.1 61.3031 130.2 61.3031 132.984V144H56.8031V133.56C56.8031 131.88 56.4071 130.62 55.6151 129.78C54.8231 128.916 53.6951 128.484 52.2311 128.484C50.5751 128.484 49.2671 128.988 48.3071 129.996C47.3471 130.98 46.8671 132.408 46.8671 134.28V144H42.3671V124.776H46.6511V127.26C47.3951 126.372 48.3311 125.7 49.4591 125.244C50.5871 124.788 51.8591 124.56 53.2751 124.56Z" fill="white"/>
<path d="M94.7339 142.956C94.2058 143.388 93.5578 143.712 92.7899 143.928C92.0459 144.144 91.2538 144.252 90.4138 144.252C88.3018 144.252 86.6698 143.7 85.5179 142.596C84.3658 141.492 83.7899 139.884 83.7899 137.772V128.52H80.6219V124.92H83.7899V120.528H88.2899V124.92H93.4379V128.52H88.2899V137.664C88.2899 138.6 88.5179 139.32 88.9738 139.824C89.4298 140.304 90.0898 140.544 90.9539 140.544C91.9619 140.544 92.8018 140.28 93.4738 139.752L94.7339 142.956Z" fill="white"/>
<path fill-rule="evenodd" clip-rule="evenodd" d="M118.683 135.828C118.731 135.252 118.755 134.808 118.755 134.496C118.755 132.528 118.335 130.8 117.495 129.312C116.679 127.8 115.527 126.636 114.039 125.82C112.575 124.98 110.907 124.56 109.035 124.56C107.139 124.56 105.435 124.98 103.923 125.82C102.411 126.66 101.223 127.836 100.359 129.348C99.5188 130.836 99.0988 132.516 99.0988 134.388C99.0988 136.284 99.5308 137.988 100.395 139.5C101.283 140.988 102.531 142.152 104.139 142.992C105.747 143.832 107.607 144.252 109.719 144.252C111.375 144.252 112.863 143.988 114.183 143.46C115.503 142.932 116.595 142.152 117.459 141.12L115.047 138.348C113.679 139.74 111.939 140.436 109.827 140.436C108.171 140.436 106.779 140.028 105.651 139.212C104.547 138.372 103.863 137.244 103.599 135.828H118.683ZM105.363 129.456C106.371 128.592 107.595 128.16 109.035 128.16C110.499 128.16 111.723 128.592 112.707 129.456C113.691 130.32 114.279 131.448 114.471 132.84H103.563C103.779 131.424 104.379 130.296 105.363 129.456Z" fill="white"/>
<path d="M138.089 144.504C135.449 144.504 133.073 143.952 130.961 142.848C128.873 141.72 127.229 140.16 126.029 138.168C124.829 136.176 124.229 133.92 124.229 131.4C124.229 128.88 124.829 126.624 126.029 124.632C127.229 122.64 128.873 121.092 130.961 119.988C133.073 118.86 135.449 118.296 138.089 118.296C140.393 118.296 142.469 118.704 144.317 119.52C146.165 120.336 147.701 121.512 148.925 123.048L144.389 127.152C142.757 125.184 140.777 124.2 138.449 124.2C137.081 124.2 135.857 124.5 134.777 125.1C133.721 125.7 132.893 126.552 132.293 127.656C131.717 128.736 131.429 129.984 131.429 131.4C131.429 132.816 131.717 134.076 132.293 135.18C132.893 136.26 133.721 137.1 134.777 137.7C135.857 138.3 137.081 138.6 138.449 138.6C140.777 138.6 142.757 137.616 144.389 135.648L148.925 139.752C147.701 141.288 146.165 142.464 144.317 143.28C142.469 144.096 140.393 144.504 138.089 144.504Z" fill="white"/>
<path fill-rule="evenodd" clip-rule="evenodd" d="M158.202 143.028C159.882 143.892 161.766 144.324 163.854 144.324C165.966 144.324 167.862 143.892 169.542 143.028C171.222 142.164 172.53 140.964 173.466 139.428C174.402 137.892 174.87 136.152 174.87 134.208C174.87 132.264 174.402 130.536 173.466 129.024C172.53 127.488 171.222 126.3 169.542 125.46C167.862 124.596 165.966 124.164 163.854 124.164C161.742 124.164 159.846 124.596 158.166 125.46C156.51 126.3 155.202 127.488 154.242 129.024C153.306 130.56 152.838 132.288 152.838 134.208C152.838 136.152 153.306 137.892 154.242 139.428C155.202 140.964 156.522 142.164 158.202 143.028ZM166.806 137.664C166.038 138.48 165.054 138.888 163.854 138.888C162.654 138.888 161.67 138.48 160.902 137.664C160.134 136.824 159.75 135.672 159.75 134.208C159.75 132.768 160.134 131.64 160.902 130.824C161.67 130.008 162.654 129.6 163.854 129.6C165.054 129.6 166.038 130.008 166.806 130.824C167.574 131.64 167.958 132.768 167.958 134.208C167.958 135.672 167.574 136.824 166.806 137.664Z" fill="white"/>
<path fill-rule="evenodd" clip-rule="evenodd" d="M201.654 117.288V144H195.138V142.056C193.866 143.568 191.958 144.324 189.414 144.324C187.638 144.324 186.018 143.916 184.554 143.1C183.09 142.26 181.926 141.072 181.062 139.536C180.222 138 179.802 136.224 179.802 134.208C179.802 132.192 180.222 130.428 181.062 128.916C181.926 127.38 183.09 126.204 184.554 125.388C186.018 124.572 187.638 124.164 189.414 124.164C191.742 124.164 193.542 124.836 194.814 126.18V117.288H201.654ZM190.854 138.888C192.03 138.888 193.002 138.48 193.77 137.664C194.538 136.824 194.922 135.672 194.922 134.208C194.922 132.768 194.538 131.64 193.77 130.824C193.026 130.008 192.054 129.6 190.854 129.6C189.654 129.6 188.67 130.008 187.902 130.824C187.134 131.64 186.75 132.768 186.75 134.208C186.75 135.672 187.134 136.824 187.902 137.664C188.67 138.48 189.654 138.888 190.854 138.888Z" fill="white"/>
<path fill-rule="evenodd" clip-rule="evenodd" d="M228.771 135.972C228.843 134.892 228.879 134.328 228.879 134.28C228.879 132.192 228.411 130.392 227.475 128.88C226.563 127.344 225.315 126.18 223.731 125.388C222.147 124.572 220.383 124.164 218.439 124.164C216.399 124.164 214.563 124.596 212.931 125.46C211.299 126.324 210.015 127.524 209.079 129.06C208.167 130.572 207.711 132.288 207.711 134.208C207.711 136.152 208.179 137.892 209.115 139.428C210.075 140.964 211.419 142.164 213.147 143.028C214.875 143.892 216.879 144.324 219.159 144.324C222.807 144.324 225.579 143.268 227.475 141.156L223.875 137.412C223.179 138.012 222.483 138.444 221.787 138.708C221.115 138.972 220.311 139.104 219.375 139.104C218.127 139.104 217.083 138.84 216.243 138.312C215.427 137.76 214.875 136.98 214.587 135.972H228.771ZM215.811 129.924C216.531 129.324 217.419 129.024 218.475 129.024C219.531 129.024 220.407 129.324 221.103 129.924C221.823 130.524 222.279 131.34 222.471 132.372H214.479C214.671 131.34 215.115 130.524 215.811 129.924Z" fill="white"/>
<path fill-rule="evenodd" clip-rule="evenodd" d="M116.172 38.8468C119.109 35.3917 122.422 31.952 126.092 28.68C138.878 40.0827 148.05 58.7091 148.05 67.74C148.05 89.3129 130.354 106.8 108.525 106.8C86.6963 106.8 69 89.3129 69 67.74C69 55.5948 81.3057 35.4562 98.6437 20C105.398 26.0234 111.362 32.4809 116.172 38.8468ZM109.03 90.525C114.122 90.525 118.835 89.0009 122.657 86.4308C131.345 80.5905 133.382 69.2692 128.556 60.4213C127.963 59.3329 127.298 58.1971 126.567 57.0358L116.222 68.374C116.222 68.374 100.006 48.4779 98.7831 47.125C90.2288 56.9782 85.9393 62.7456 85.9393 69.2912C85.9393 82.4316 96.2987 90.525 109.03 90.525Z" fill="#ED8E00"/>
</svg>
