<svg width="66" height="66" viewBox="0 0 66 66" fill="none" xmlns="http://www.w3.org/2000/svg">
<circle cx="33" cy="33" r="33" fill="white"/>
<path d="M17.5379 15.5788C19.4905 13.6261 22.6564 13.6261 24.609 15.5788L49.6877 40.6575C51.6403 42.6101 51.6403 45.7759 49.6877 47.7285L48.462 48.9542C46.5094 50.9068 43.3436 50.9068 41.391 48.9542L16.3123 23.8755C14.3596 21.9229 14.3596 18.757 16.3123 16.8044L17.5379 15.5788Z" fill="#B71D1D"/>
<path d="M16.3122 47.7285C14.3596 45.7759 14.3596 42.6101 16.3122 40.6574L41.391 15.5787C43.3436 13.6261 46.5094 13.6261 48.462 15.5787L49.6877 16.8044C51.6403 18.757 51.6403 21.9228 49.6877 23.8754L24.609 48.9542C22.6563 50.9068 19.4905 50.9068 17.5379 48.9542L16.3122 47.7285Z" fill="#B71D1D"/>
</svg>
