<svg viewBox="0 0 306 115" fill="none" xmlns="http://www.w3.org/2000/svg">
<path
    fill-rule="evenodd"
    clip-rule="evenodd"
    d="M69.3307 102.13C63.7795 104.238 57.7927 105.417 51.5296 105.417C23.0712 105.417 0 81.8225 0 52.7083C0 23.6038 23.0712 0 51.5296 0C79.9832 0 103.054 23.6038 103.054 52.7083C103.054 54.9269 102.905 57.1071 102.633 59.249C103.87 60.6002 104.605 62.4402 104.605 64.5342V64.6492L105.172 64.6252C109.299 64.6252 112.419 67.8596 112.419 72.1481L112.428 100.127C112.428 109.298 106.746 115 97.5923 115H85.2252C75.5283 115 72.296 108.263 70.7313 105.014L69.3307 102.13ZM97.5923 110.208C104.235 110.208 107.744 106.538 107.744 100.127L107.734 72.1481C107.734 70.2985 106.451 69.4169 105.172 69.4169C103.879 69.4169 102.6 70.3033 102.6 71.9804V84.2471C102.6 85.0856 101.94 85.4881 101.284 85.4881C100.604 85.4881 99.9205 85.0617 99.9205 84.2471V64.5342C99.9205 62.6367 98.5714 61.7119 97.2175 61.7119C95.845 61.7119 94.4677 62.6654 94.4677 64.5342V83.145C94.4677 83.9308 93.8541 84.319 93.231 84.319C92.608 84.319 91.9756 83.9165 91.9756 83.121V61.2854C91.9756 59.4119 90.6405 58.4583 89.104 58.4583C87.5956 58.4583 86.4244 59.3831 86.4244 61.2854L86.4151 83.3702C86.4151 84.2471 85.7452 84.6879 85.08 84.6879C84.4007 84.6879 83.7355 84.2471 83.7355 83.3702V64.8169C83.7355 63.0487 82.4051 62.1479 81.0888 62.1479C79.7912 62.1479 78.4982 63.02 78.4982 64.8169V87.7881C78.4982 88.526 77.9783 88.9094 77.4395 88.9094C77.046 88.9094 76.6338 88.7081 76.4136 88.296L72.7363 81.3769C72.0243 79.9777 70.7126 79.3692 69.415 79.3692C67.4943 79.3692 65.5831 80.6965 65.5831 82.776C65.5831 83.3079 65.7095 83.8925 65.9812 84.5106C66.5059 85.7804 73.275 99.4223 74.9427 102.906C76.6994 106.557 78.9105 110.208 85.2252 110.208H97.5923ZM98.1732 56.9777C98.2997 55.5737 98.3699 54.1506 98.3699 52.7083C98.3699 26.2871 77.3552 4.79167 51.5296 4.79167C25.6992 4.79167 4.6845 26.2871 4.6845 52.7083C4.6845 79.1296 25.6992 100.625 51.5296 100.625C57.0385 100.625 62.3086 99.6235 67.2133 97.8123L66.9978 97.3715C63.6343 90.505 62.0041 87.1796 61.7277 86.5183C61.1796 85.2965 60.8986 84.0362 60.8986 82.776C60.8986 78.2575 64.7211 74.5775 69.415 74.5775C71.0265 74.5775 72.5255 75.004 73.8137 75.7946V64.8169C73.8137 60.5619 76.943 57.3563 81.0888 57.3563L82.6159 57.5096C83.8245 55.1617 86.1949 53.6667 89.104 53.6667C91.8678 53.6667 94.1913 55.0083 95.5077 57.1167C96.0558 56.9873 96.6226 56.9202 97.2175 56.9202L98.1732 56.9777ZM39.5278 85.6846C30.2104 82.11 22.8089 74.5248 19.347 64.9798L14.967 65.5356C18.813 77.0787 27.7135 86.1925 38.9798 90.16L39.5278 85.6846ZM40.6428 76.566C35.1806 73.945 30.7725 69.4265 28.2101 63.8394L23.7411 64.4192C26.786 71.9804 32.6885 78.0179 40.09 81.1373L40.6428 76.566ZM51.5296 35.1421C61.0157 35.1421 68.7076 43.0052 68.7076 52.7083C68.7076 62.4115 61.0157 70.2794 51.5296 70.2794C42.0387 70.2794 34.3515 62.4115 34.3515 52.7083C34.3515 43.0052 42.0387 35.1421 51.5296 35.1421ZM51.5296 39.9337C44.6433 39.9337 39.036 45.6646 39.036 52.7083C39.036 59.7569 44.6433 65.4877 51.5296 65.4877C58.4205 65.4877 64.0231 59.7569 64.0231 52.7083C64.0231 45.6646 58.4205 39.9337 51.5296 39.9337ZM47.2385 52.7083C47.2385 55.1329 49.1592 57.1023 51.5296 57.1023C53.8999 57.1023 55.8252 55.1329 55.8252 52.7083C55.8252 50.2837 53.8999 48.3192 51.5296 48.3192C49.1592 48.3192 47.2385 50.2837 47.2385 52.7083ZM79.3227 41.0023C76.2778 33.4458 70.3659 27.4035 62.9738 24.289L62.4163 28.8602C67.8785 31.4765 72.2866 35.9902 74.8584 41.5773L79.3227 41.0023ZM83.6512 40.4513C80.1566 30.9781 72.7878 23.4552 63.5031 19.9094L64.0606 15.434C75.28 19.3727 84.1524 28.429 88.0312 39.8906L83.6512 40.4513Z"
    fill="white"
  />
<path
    d="M128.016 32.3333H129.566C130.936 32.3333 131.979 31.8687 132.694 30.9394L144.163 15.8485C144.679 15.1414 145.255 14.6667 145.891 14.4242C146.546 14.1616 147.311 14.0303 148.184 14.0303H155.632L141.094 32.2424C140.638 32.8283 140.181 33.3131 139.724 33.697C139.267 34.0808 138.791 34.404 138.294 34.6667C138.93 34.9091 139.476 35.2626 139.933 35.7273C140.409 36.1717 140.816 36.7576 141.154 37.4848L151.312 58H143.656C142.663 58 141.948 57.8586 141.511 57.5758C141.075 57.2727 140.727 56.8586 140.469 56.3333L132.574 40.3636C132.316 39.798 131.949 39.404 131.472 39.1818C131.015 38.9596 130.36 38.8485 129.506 38.8485H127.242L124.918 58H116.339L121.612 14H130.251L128.016 32.3333Z"
    fill="white"
  />
<path
    d="M176.805 34.9394C178.295 34.9394 179.566 34.7172 180.618 34.2727C181.671 33.8283 182.535 33.2222 183.21 32.4545C183.885 31.6869 184.382 30.7879 184.699 29.7576C185.017 28.7273 185.176 27.6364 185.176 26.4848C185.176 24.6869 184.63 23.2727 183.538 22.2424C182.465 21.2121 180.797 20.697 178.533 20.697H174.511L172.783 34.9394H176.805ZM179.337 14.0303C181.899 14.0303 184.084 14.3131 185.891 14.8788C187.718 15.4242 189.208 16.1919 190.36 17.1818C191.531 18.1515 192.385 19.3232 192.922 20.697C193.478 22.0505 193.756 23.5253 193.756 25.1212C193.756 26.7778 193.527 28.3434 193.071 29.8182C192.634 31.2929 191.988 32.6364 191.134 33.8485C190.28 35.0606 189.238 36.1313 188.006 37.0606C186.795 37.9899 185.405 38.7374 183.836 39.303C184.352 39.6061 184.819 39.9798 185.236 40.4242C185.673 40.8687 186.05 41.404 186.368 42.0303L193.428 58H185.653C184.163 58 183.19 57.4343 182.733 56.303L177.163 42.6061C176.924 42.0808 176.626 41.697 176.269 41.4545C175.911 41.2121 175.375 41.0909 174.66 41.0909H172.039L169.983 58H161.403L166.444 15.9697L163.754 14.0303H169.131H179.337Z"
    fill="white"
  />
<path
    d="M261.783 14.0303L244.118 58H236.313L231.844 28.7576C231.765 28.3535 231.695 27.899 231.636 27.3939C231.576 26.8889 231.526 26.3636 231.487 25.8182C231.089 26.9091 230.722 27.8889 230.384 28.7576L218.915 58H211.14L204.109 14.0303H210.872C211.626 14.0303 212.222 14.2121 212.659 14.5758C213.116 14.9192 213.394 15.3838 213.493 15.9697L216.919 41.4848C216.979 42.1919 217.038 42.9394 217.098 43.7273C217.157 44.5152 217.207 45.3434 217.247 46.2121C217.525 45.3434 217.803 44.5152 218.081 43.7273C218.379 42.9192 218.667 42.1717 218.945 41.4848L228.835 15.9697C228.954 15.7273 229.103 15.4949 229.282 15.2727C229.481 15.0303 229.709 14.8182 229.967 14.6364C230.245 14.4545 230.543 14.3131 230.861 14.2121C231.179 14.0909 231.516 14.0303 231.874 14.0303H233.9C234.654 14.0303 235.24 14.2222 235.657 14.6061C236.094 14.9697 236.392 15.4242 236.551 15.9697L240.424 41.4848C240.523 42.1313 240.622 42.8384 240.722 43.6061C240.821 44.3737 240.9 45.1818 240.96 46.0303C241.198 45.1818 241.437 44.3838 241.675 43.6364C241.933 42.8687 242.171 42.1515 242.39 41.4848L251.863 15.9697C252.022 15.4646 252.399 15.0202 252.995 14.6364C253.591 14.2323 254.246 14.0303 254.961 14.0303H261.783Z"
    fill="white"
  />
<path
    d="M306 33.1212C306 35.5253 305.732 37.8182 305.196 40C304.679 42.1616 303.925 44.1717 302.932 46.0303C301.958 47.8687 300.777 49.5253 299.387 51C297.996 52.4747 296.427 53.7374 294.68 54.7879C292.952 55.8182 291.065 56.6162 289.02 57.1818C286.994 57.7273 284.859 58 282.615 58H267.243L272.336 16L269.827 14L274.716 14.0303H287.947C290.728 14.0303 293.23 14.5151 295.454 15.4848C297.698 16.4343 299.595 17.7576 301.144 19.4545C302.713 21.1515 303.915 23.1717 304.749 25.5152C305.583 27.8384 306 30.3737 306 33.1212ZM297.152 33.3333C297.152 31.4343 296.924 29.7172 296.467 28.1818C296.03 26.6465 295.385 25.3434 294.531 24.2727C293.677 23.1818 292.624 22.3434 291.373 21.7576C290.142 21.1717 288.722 20.8788 287.113 20.8788H280.41L276.776 51.1212H283.449C285.534 51.1212 287.421 50.7071 289.109 49.8788C290.797 49.0505 292.237 47.8687 293.428 46.3333C294.62 44.798 295.534 42.9394 296.169 40.7576C296.825 38.5556 297.152 36.0808 297.152 33.3333Z"
    fill="white"
  />
<path
    d="M138.384 70.1207C138.236 70.319 138.093 70.47 137.955 70.5738C137.816 70.6682 137.646 70.7154 137.443 70.7154C137.249 70.7154 137.05 70.6446 136.847 70.503C136.644 70.352 136.409 70.1868 136.142 70.0074C135.874 69.828 135.565 69.6676 135.214 69.526C134.864 69.3749 134.439 69.2994 133.941 69.2994C133.47 69.2994 133.055 69.3702 132.695 69.5118C132.344 69.644 132.049 69.8328 131.809 70.0782C131.569 70.3237 131.389 70.6116 131.269 70.942C131.149 71.2724 131.089 71.6264 131.089 72.004C131.089 72.41 131.195 72.7498 131.408 73.0236C131.62 73.2974 131.897 73.5381 132.238 73.7458C132.589 73.9535 132.986 74.1423 133.429 74.3122C133.881 74.4727 134.338 74.6473 134.799 74.8361C135.26 75.025 135.712 75.2421 136.155 75.4875C136.608 75.733 137.004 76.0398 137.346 76.408C137.696 76.7667 137.978 77.2009 138.19 77.7107C138.402 78.2205 138.508 78.8388 138.508 79.5657C138.508 80.5759 138.333 81.5341 137.983 82.4403C137.641 83.3372 137.147 84.1254 136.501 84.8051C135.865 85.4754 135.09 86.0088 134.176 86.4053C133.262 86.8018 132.234 87 131.089 87C130.508 87 129.927 86.9339 129.345 86.8018C128.773 86.6696 128.229 86.4855 127.712 86.2495C127.195 86.0135 126.715 85.7303 126.272 85.3999C125.829 85.0695 125.451 84.7013 125.137 84.2953L126.563 82.3554C126.674 82.2232 126.812 82.1099 126.978 82.0155C127.154 81.9117 127.329 81.8597 127.504 81.8597C127.744 81.8597 127.98 81.9589 128.21 82.1571C128.45 82.3459 128.718 82.5536 129.013 82.7802C129.318 83.0067 129.673 83.2191 130.079 83.4174C130.494 83.6062 131.002 83.7006 131.601 83.7006C132.552 83.7006 133.29 83.4316 133.816 82.8935C134.351 82.3459 134.619 81.5718 134.619 80.5711C134.619 80.118 134.513 79.7498 134.301 79.4666C134.088 79.174 133.812 78.9285 133.47 78.7303C133.129 78.532 132.736 78.3574 132.294 78.2063C131.86 78.0553 131.412 77.8948 130.951 77.7249C130.49 77.5455 130.037 77.3425 129.594 77.116C129.161 76.88 128.773 76.5779 128.432 76.2097C128.09 75.8415 127.813 75.3931 127.601 74.8645C127.389 74.3264 127.283 73.6655 127.283 72.882C127.283 71.9852 127.444 71.1261 127.767 70.3048C128.1 69.474 128.57 68.7424 129.179 68.1099C129.788 67.468 130.526 66.9582 131.394 66.5806C132.261 66.203 133.235 66.0142 134.314 66.0142C134.868 66.0142 135.403 66.0755 135.92 66.1982C136.446 66.321 136.935 66.4909 137.387 66.708C137.839 66.9157 138.25 67.1659 138.619 67.4585C138.998 67.7512 139.321 68.0674 139.588 68.4073L138.384 70.1207Z"
    fill="white"
  />
<path
    d="M151.494 83.5307C152.103 83.5307 152.661 83.4127 153.168 83.1767C153.676 82.9407 154.119 82.6055 154.497 82.1713C154.876 81.7276 155.189 81.1989 155.438 80.5853C155.688 79.9622 155.854 79.2731 155.937 78.5179L157.418 66.2266H161.418L159.951 78.5179C159.803 79.7451 159.485 80.878 158.996 81.9164C158.507 82.9548 157.879 83.8517 157.113 84.6069C156.347 85.3527 155.452 85.938 154.428 86.3628C153.413 86.7876 152.296 87 151.078 87C149.86 87 148.79 86.7876 147.867 86.3628C146.953 85.938 146.201 85.3527 145.611 84.6069C145.029 83.8517 144.619 82.9548 144.379 81.9164C144.148 80.878 144.107 79.7451 144.254 78.5179L145.694 66.2266H149.708L148.241 78.5179C148.148 79.2731 148.153 79.9622 148.255 80.5853C148.356 81.1989 148.545 81.7276 148.822 82.1713C149.099 82.6055 149.459 82.9407 149.902 83.1767C150.354 83.4127 150.885 83.5307 151.494 83.5307Z"
    fill="white"
  />
<path
    d="M172.764 75.9973C173.456 75.9973 174.046 75.8935 174.535 75.6858C175.025 75.4781 175.426 75.1949 175.74 74.8361C176.053 74.4774 176.284 74.0573 176.432 73.5759C176.579 73.0944 176.653 72.5846 176.653 72.0465C176.653 71.2063 176.399 70.5455 175.892 70.0641C175.394 69.5826 174.619 69.3419 173.567 69.3419H171.698L170.895 75.9973H172.764ZM173.94 66.2266C175.131 66.2266 176.146 66.3587 176.985 66.6231C177.834 66.878 178.527 67.2367 179.062 67.6993C179.606 68.1524 180.003 68.6999 180.252 69.3419C180.51 69.9744 180.64 70.6635 180.64 71.4093C180.64 72.1834 180.534 72.915 180.321 73.6042C180.118 74.2933 179.818 74.9211 179.422 75.4875C179.025 76.0539 178.54 76.5543 177.968 76.9885C177.405 77.4228 176.759 77.7721 176.03 78.0364C176.27 78.178 176.487 78.3527 176.681 78.5603C176.884 78.768 177.059 79.0182 177.207 79.3109L180.487 86.7734H176.875C176.183 86.7734 175.73 86.5091 175.518 85.9804L172.93 79.5799C172.819 79.3345 172.681 79.1551 172.515 79.0418C172.348 78.9285 172.099 78.8719 171.767 78.8719H170.549L169.594 86.7734H165.608L167.965 67L167.08 66.2266H173.94Z"
    fill="white"
  />
<path
    d="M195.234 76.3796H201.699L200.674 84.791C200.158 85.178 199.627 85.5084 199.082 85.7822C198.538 86.056 197.961 86.2873 197.352 86.4761C196.752 86.6554 196.12 86.7876 195.456 86.8726C194.792 86.9575 194.081 87 193.324 87C192.088 87 190.962 86.7734 189.947 86.3203C188.941 85.8577 188.078 85.2205 187.359 84.4086C186.639 83.5873 186.08 82.6197 185.684 81.5057C185.287 80.3918 185.088 79.1787 185.088 77.8665C185.088 76.7148 185.213 75.6244 185.462 74.5954C185.711 73.557 186.067 72.5988 186.528 71.7208C186.999 70.8429 187.557 70.0546 188.203 69.356C188.858 68.648 189.582 68.0486 190.376 67.5577C191.179 67.0573 192.046 66.675 192.978 66.4107C193.91 66.1369 194.884 66 195.899 66C196.729 66 197.481 66.0802 198.155 66.2407C198.838 66.3918 199.452 66.5995 199.996 66.8638C200.54 67.1187 201.025 67.4208 201.449 67.7701C201.883 68.1099 202.266 68.4686 202.598 68.8463L201.297 70.5172C201.085 70.8193 200.831 71.0034 200.536 71.0695C200.241 71.1355 199.936 71.0647 199.622 70.857C199.327 70.6588 199.041 70.4747 198.764 70.3048C198.496 70.1254 198.206 69.9744 197.892 69.8517C197.588 69.7289 197.251 69.6345 196.882 69.5684C196.513 69.4929 196.088 69.4552 195.608 69.4552C194.667 69.4552 193.8 69.6534 193.006 70.0499C192.222 70.4464 191.543 71.0081 190.971 71.735C190.408 72.4525 189.97 73.321 189.656 74.3405C189.342 75.3601 189.186 76.4882 189.186 77.7249C189.186 78.6689 189.301 79.5185 189.532 80.2738C189.772 81.0196 190.099 81.6521 190.514 82.1713C190.939 82.6905 191.446 83.0917 192.037 83.3749C192.637 83.6487 193.297 83.7856 194.016 83.7856C194.681 83.7856 195.267 83.7242 195.774 83.6015C196.291 83.4693 196.785 83.29 197.255 83.0634L197.684 79.3958H195.691C195.442 79.3958 195.253 79.3297 195.124 79.1976C194.995 79.0654 194.944 78.8908 194.971 78.6736L195.234 76.3796Z"
    fill="white"
  />
<path
    d="M212.765 69.441L212.115 74.8786H218.164L217.762 77.9798H211.741L211.063 83.559H218.883L218.496 86.7734H206.647L209.125 66.2266H220.946L220.544 69.441H212.765Z"
    fill="white"
  />
</svg>
